solid 
   facet normal -0.000000e+000 0.000000e+000 -1.000000e+000
      outer loop
         vertex 1.438197e+001 -1.902113e+000 0.000000e+000
         vertex 1.806413e+001 -3.064129e+000 0.000000e+000
         vertex 9.192389e+000 -9.192389e+000 0.000000e+000
      endloop
   endfacet
   facet normal -0.000000e+000 0.000000e+000 -1.000000e+000
      outer loop
         vertex 1.700000e+001 0.000000e+000 0.000000e+000
         vertex 1.933333e+001 -7.488078e-015 0.000000e+000
         vertex 1.900348e+001 -1.658295e+000 0.000000e+000
      endloop
   endfacet
   facet normal 0.000000e+000 -0.000000e+000 -1.000000e+000
      outer loop
         vertex 1.661803e+001 1.175570e+000 0.000000e+000
         vertex 1.806413e+001 3.064129e+000 0.000000e+000
         vertex 1.900348e+001 1.658295e+000 0.000000e+000
      endloop
   endfacet
   facet normal 0.000000e+000 -0.000000e+000 -1.000000e+000
      outer loop
         vertex 7.071068e-001 7.071068e-001 0.000000e+000
         vertex 6.500000e+000 1.125833e+001 0.000000e+000
         vertex 9.192389e+000 9.192389e+000 0.000000e+000
      endloop
   endfacet
   facet normal 0.000000e+000 -0.000000e+000 -1.000000e+000
      outer loop
         vertex 6.123234e-017 1.000000e+000 0.000000e+000
         vertex 1.730278e-015 1.300000e+001 0.000000e+000
         vertex 3.364648e+000 1.255704e+001 0.000000e+000
      endloop
   endfacet
   facet normal 0.000000e+000 0.000000e+000 -1.000000e+000
      outer loop
         vertex -7.071068e-001 7.071068e-001 0.000000e+000
         vertex -6.500000e+000 1.125833e+001 0.000000e+000
         vertex -3.364648e+000 1.255704e+001 0.000000e+000
      endloop
   endfacet
   facet normal 0.000000e+000 0.000000e+000 -1.000000e+000
      outer loop
         vertex -1.438197e+001 1.902113e+000 0.000000e+000
         vertex -1.806413e+001 3.064129e+000 0.000000e+000
         vertex -9.192389e+000 9.192389e+000 0.000000e+000
      endloop
   endfacet
   facet normal 0.000000e+000 0.000000e+000 -1.000000e+000
      outer loop
         vertex -1.700000e+001 2.449294e-016 0.000000e+000
         vertex -1.933333e+001 -9.208563e-015 0.000000e+000
         vertex -1.900348e+001 1.658295e+000 0.000000e+000
      endloop
   endfacet
   facet normal 0.000000e+000 0.000000e+000 -1.000000e+000
      outer loop
         vertex -1.661803e+001 -1.175570e+000 0.000000e+000
         vertex -1.806413e+001 -3.064129e+000 0.000000e+000
         vertex -1.900348e+001 -1.658295e+000 0.000000e+000
      endloop
   endfacet
   facet normal 0.000000e+000 0.000000e+000 -1.000000e+000
      outer loop
         vertex -7.071068e-001 -7.071068e-001 0.000000e+000
         vertex -6.500000e+000 -1.125833e+001 0.000000e+000
         vertex -9.192389e+000 -9.192389e+000 0.000000e+000
      endloop
   endfacet
   facet normal 0.000000e+000 0.000000e+000 -1.000000e+000
      outer loop
         vertex -1.836970e-016 -1.000000e+000 0.000000e+000
         vertex -2.526298e-015 -1.300000e+001 0.000000e+000
         vertex -3.364648e+000 -1.255704e+001 0.000000e+000
      endloop
   endfacet
   facet normal -0.000000e+000 0.000000e+000 -1.000000e+000
      outer loop
         vertex 7.071068e-001 -7.071068e-001 0.000000e+000
         vertex 6.500000e+000 -1.125833e+001 0.000000e+000
         vertex 3.364648e+000 -1.255704e+001 0.000000e+000
      endloop
   endfacet
   facet normal 0.000000e+000 0.000000e+000 -1.000000e+000
      outer loop
         vertex 1.338197e+001 -1.175570e+000 0.000000e+000
         vertex 7.071068e-001 -7.071068e-001 0.000000e+000
         vertex 1.000000e+000 0.000000e+000 0.000000e+000
      endloop
   endfacet
   facet normal 0.000000e+000 -0.000000e+000 -1.000000e+000
      outer loop
         vertex -6.500000e+000 -1.125833e+001 0.000000e+000
         vertex -7.071068e-001 -7.071068e-001 0.000000e+000
         vertex -1.836970e-016 -1.000000e+000 0.000000e+000
      endloop
   endfacet
   facet normal -0.000000e+000 0.000000e+000 -1.000000e+000
      outer loop
         vertex -1.338197e+001 1.175570e+000 0.000000e+000
         vertex -7.071068e-001 7.071068e-001 0.000000e+000
         vertex -1.000000e+000 1.224647e-016 0.000000e+000
      endloop
   endfacet
   facet normal 0.000000e+000 0.000000e+000 -1.000000e+000
      outer loop
         vertex 6.500000e+000 1.125833e+001 0.000000e+000
         vertex 7.071068e-001 7.071068e-001 0.000000e+000
         vertex 6.123234e-017 1.000000e+000 0.000000e+000
      endloop
   endfacet
   facet normal 0.000000e+000 0.000000e+000 -1.000000e+000
      outer loop
         vertex 1.900348e+001 -1.658295e+000 0.000000e+000
         vertex 1.661803e+001 -1.175570e+000 0.000000e+000
         vertex 1.700000e+001 0.000000e+000 0.000000e+000
      endloop
   endfacet
   facet normal 0.000000e+000 0.000000e+000 -1.000000e+000
      outer loop
         vertex 1.806413e+001 -3.064129e+000 0.000000e+000
         vertex 1.438197e+001 -1.902113e+000 0.000000e+000
         vertex 1.561803e+001 -1.902113e+000 0.000000e+000
      endloop
   endfacet
   facet normal 0.000000e+000 -0.000000e+000 -1.000000e+000
      outer loop
         vertex 1.000000e+000 0.000000e+000 0.000000e+000
         vertex 1.300000e+001 2.449294e-016 0.000000e+000
         vertex 1.338197e+001 -1.175570e+000 0.000000e+000
      endloop
   endfacet
   facet normal -0.000000e+000 0.000000e+000 -1.000000e+000
      outer loop
         vertex 9.192389e+000 9.192389e+000 0.000000e+000
         vertex 1.438197e+001 1.902113e+000 0.000000e+000
         vertex 1.338197e+001 1.175570e+000 0.000000e+000
      endloop
   endfacet
   facet normal 0.000000e+000 0.000000e+000 -1.000000e+000
      outer loop
         vertex 1.806413e+001 3.064129e+000 0.000000e+000
         vertex 1.661803e+001 1.175570e+000 0.000000e+000
         vertex 1.561803e+001 1.902113e+000 0.000000e+000
      endloop
   endfacet
   facet normal 0.000000e+000 0.000000e+000 -1.000000e+000
      outer loop
         vertex -1.000000e+000 1.224647e-016 0.000000e+000
         vertex -1.338197e+001 -1.175570e+000 0.000000e+000
         vertex -1.300000e+001 0.000000e+000 0.000000e+000
      endloop
   endfacet
   facet normal 0.000000e+000 -0.000000e+000 -1.000000e+000
      outer loop
         vertex -1.806413e+001 -3.064129e+000 0.000000e+000
         vertex -1.561803e+001 -1.902113e+000 0.000000e+000
         vertex -1.438197e+001 -1.902113e+000 0.000000e+000
      endloop
   endfacet
   facet normal 0.000000e+000 -0.000000e+000 -1.000000e+000
      outer loop
         vertex -1.900348e+001 -1.658295e+000 0.000000e+000
         vertex -1.700000e+001 2.449294e-016 0.000000e+000
         vertex -1.661803e+001 -1.175570e+000 0.000000e+000
      endloop
   endfacet
   facet normal -0.000000e+000 0.000000e+000 -1.000000e+000
      outer loop
         vertex -1.806413e+001 3.064129e+000 0.000000e+000
         vertex -1.561803e+001 1.902113e+000 0.000000e+000
         vertex -1.661803e+001 1.175570e+000 0.000000e+000
      endloop
   endfacet
   facet normal 0.000000e+000 0.000000e+000 -1.000000e+000
      outer loop
         vertex -9.192389e+000 9.192389e+000 0.000000e+000
         vertex -1.338197e+001 1.175570e+000 0.000000e+000
         vertex -1.438197e+001 1.902113e+000 0.000000e+000
      endloop
   endfacet
   facet normal -0.000000e+000 0.000000e+000 -1.000000e+000
      outer loop
         vertex 1.338197e+001 -1.175570e+000 0.000000e+000
         vertex 1.438197e+001 -1.902113e+000 0.000000e+000
         vertex 9.192389e+000 -9.192389e+000 0.000000e+000
      endloop
   endfacet
   facet normal 0.000000e+000 0.000000e+000 -1.000000e+000
      outer loop
         vertex 1.338197e+001 1.175570e+000 0.000000e+000
         vertex 7.071068e-001 7.071068e-001 0.000000e+000
         vertex 9.192389e+000 9.192389e+000 0.000000e+000
      endloop
   endfacet
   facet normal 0.000000e+000 0.000000e+000 -1.000000e+000
      outer loop
         vertex -3.364648e+000 1.255704e+001 0.000000e+000
         vertex 1.730278e-015 1.300000e+001 0.000000e+000
         vertex 6.123234e-017 1.000000e+000 0.000000e+000
      endloop
   endfacet
   facet normal 0.000000e+000 0.000000e+000 -1.000000e+000
      outer loop
         vertex -1.561803e+001 1.902113e+000 0.000000e+000
         vertex -1.806413e+001 3.064129e+000 0.000000e+000
         vertex -1.438197e+001 1.902113e+000 0.000000e+000
      endloop
   endfacet
   facet normal 0.000000e+000 0.000000e+000 -1.000000e+000
      outer loop
         vertex -1.561803e+001 -1.902113e+000 0.000000e+000
         vertex -1.806413e+001 -3.064129e+000 0.000000e+000
         vertex -1.661803e+001 -1.175570e+000 0.000000e+000
      endloop
   endfacet
   facet normal 0.000000e+000 0.000000e+000 -1.000000e+000
      outer loop
         vertex 3.364648e+000 -1.255704e+001 0.000000e+000
         vertex -2.526298e-015 -1.300000e+001 0.000000e+000
         vertex -1.836970e-016 -1.000000e+000 0.000000e+000
      endloop
   endfacet
   facet normal 0.000000e+000 0.000000e+000 -1.000000e+000
      outer loop
         vertex 9.192389e+000 -9.192389e+000 0.000000e+000
         vertex 7.071068e-001 -7.071068e-001 0.000000e+000
         vertex 1.338197e+001 -1.175570e+000 0.000000e+000
      endloop
   endfacet
   facet normal 0.000000e+000 0.000000e+000 -1.000000e+000
      outer loop
         vertex -1.300000e+001 0.000000e+000 0.000000e+000
         vertex -1.338197e+001 1.175570e+000 0.000000e+000
         vertex -1.000000e+000 1.224647e-016 0.000000e+000
      endloop
   endfacet
   facet normal 0.000000e+000 0.000000e+000 -1.000000e+000
      outer loop
         vertex 1.806413e+001 -3.064129e+000 0.000000e+000
         vertex 1.661803e+001 -1.175570e+000 0.000000e+000
         vertex 1.900348e+001 -1.658295e+000 0.000000e+000
      endloop
   endfacet
   facet normal 0.000000e+000 0.000000e+000 -1.000000e+000
      outer loop
         vertex 1.806413e+001 3.064129e+000 0.000000e+000
         vertex 1.438197e+001 1.902113e+000 0.000000e+000
         vertex 9.192389e+000 9.192389e+000 0.000000e+000
      endloop
   endfacet
   facet normal 0.000000e+000 0.000000e+000 -1.000000e+000
      outer loop
         vertex -9.192389e+000 -9.192389e+000 0.000000e+000
         vertex -1.806413e+001 -3.064129e+000 0.000000e+000
         vertex -1.438197e+001 -1.902113e+000 0.000000e+000
      endloop
   endfacet
   facet normal 0.000000e+000 0.000000e+000 -1.000000e+000
      outer loop
         vertex -7.071068e-001 7.071068e-001 0.000000e+000
         vertex -1.338197e+001 1.175570e+000 0.000000e+000
         vertex -9.192389e+000 9.192389e+000 0.000000e+000
      endloop
   endfacet
   facet normal 0.000000e+000 0.000000e+000 -1.000000e+000
      outer loop
         vertex 7.071068e-001 -7.071068e-001 0.000000e+000
         vertex 3.364648e+000 -1.255704e+001 0.000000e+000
         vertex -1.836970e-016 -1.000000e+000 0.000000e+000
      endloop
   endfacet
   facet normal 0.000000e+000 0.000000e+000 -1.000000e+000
      outer loop
         vertex -1.338197e+001 -1.175570e+000 0.000000e+000
         vertex -9.192389e+000 -9.192389e+000 0.000000e+000
         vertex -1.438197e+001 -1.902113e+000 0.000000e+000
      endloop
   endfacet
   facet normal 0.000000e+000 -0.000000e+000 -1.000000e+000
      outer loop
         vertex 1.700000e+001 0.000000e+000 0.000000e+000
         vertex 1.900348e+001 1.658295e+000 0.000000e+000
         vertex 1.933333e+001 -7.488078e-015 0.000000e+000
      endloop
   endfacet
   facet normal 0.000000e+000 0.000000e+000 -1.000000e+000
      outer loop
         vertex -7.071068e-001 7.071068e-001 0.000000e+000
         vertex -9.192389e+000 9.192389e+000 0.000000e+000
         vertex -6.500000e+000 1.125833e+001 0.000000e+000
      endloop
   endfacet
   facet normal 0.000000e+000 0.000000e+000 -1.000000e+000
      outer loop
         vertex -1.700000e+001 2.449294e-016 0.000000e+000
         vertex -1.900348e+001 -1.658295e+000 0.000000e+000
         vertex -1.933333e+001 -9.208563e-015 0.000000e+000
      endloop
   endfacet
   facet normal -0.000000e+000 0.000000e+000 -1.000000e+000
      outer loop
         vertex 7.071068e-001 -7.071068e-001 0.000000e+000
         vertex 9.192389e+000 -9.192389e+000 0.000000e+000
         vertex 6.500000e+000 -1.125833e+001 0.000000e+000
      endloop
   endfacet
   facet normal -0.000000e+000 0.000000e+000 -1.000000e+000
      outer loop
         vertex -3.364648e+000 1.255704e+001 0.000000e+000
         vertex 6.123234e-017 1.000000e+000 0.000000e+000
         vertex -7.071068e-001 7.071068e-001 0.000000e+000
      endloop
   endfacet
   facet normal 0.000000e+000 0.000000e+000 -1.000000e+000
      outer loop
         vertex 1.806413e+001 -3.064129e+000 0.000000e+000
         vertex 1.561803e+001 -1.902113e+000 0.000000e+000
         vertex 1.661803e+001 -1.175570e+000 0.000000e+000
      endloop
   endfacet
   facet normal 0.000000e+000 0.000000e+000 -1.000000e+000
      outer loop
         vertex 1.806413e+001 3.064129e+000 0.000000e+000
         vertex 1.561803e+001 1.902113e+000 0.000000e+000
         vertex 1.438197e+001 1.902113e+000 0.000000e+000
      endloop
   endfacet
   facet normal -0.000000e+000 0.000000e+000 -1.000000e+000
      outer loop
         vertex -1.900348e+001 1.658295e+000 0.000000e+000
         vertex -1.661803e+001 1.175570e+000 0.000000e+000
         vertex -1.700000e+001 2.449294e-016 0.000000e+000
      endloop
   endfacet
   facet normal 0.000000e+000 0.000000e+000 -1.000000e+000
      outer loop
         vertex 6.500000e+000 1.125833e+001 0.000000e+000
         vertex 6.123234e-017 1.000000e+000 0.000000e+000
         vertex 3.364648e+000 1.255704e+001 0.000000e+000
      endloop
   endfacet
   facet normal 0.000000e+000 0.000000e+000 -1.000000e+000
      outer loop
         vertex -3.364648e+000 -1.255704e+001 0.000000e+000
         vertex -6.500000e+000 -1.125833e+001 0.000000e+000
         vertex -1.836970e-016 -1.000000e+000 0.000000e+000
      endloop
   endfacet
   facet normal 0.000000e+000 0.000000e+000 -1.000000e+000
      outer loop
         vertex 1.000000e+000 0.000000e+000 0.000000e+000
         vertex 7.071068e-001 7.071068e-001 0.000000e+000
         vertex 1.338197e+001 1.175570e+000 0.000000e+000
      endloop
   endfacet
   facet normal 0.000000e+000 0.000000e+000 -1.000000e+000
      outer loop
         vertex -1.806413e+001 3.064129e+000 0.000000e+000
         vertex -1.661803e+001 1.175570e+000 0.000000e+000
         vertex -1.900348e+001 1.658295e+000 0.000000e+000
      endloop
   endfacet
   facet normal 0.000000e+000 -0.000000e+000 -1.000000e+000
      outer loop
         vertex -1.338197e+001 -1.175570e+000 0.000000e+000
         vertex -1.000000e+000 1.224647e-016 0.000000e+000
         vertex -7.071068e-001 -7.071068e-001 0.000000e+000
      endloop
   endfacet
   facet normal 0.000000e+000 0.000000e+000 -1.000000e+000
      outer loop
         vertex 1.900348e+001 1.658295e+000 0.000000e+000
         vertex 1.700000e+001 0.000000e+000 0.000000e+000
         vertex 1.661803e+001 1.175570e+000 0.000000e+000
      endloop
   endfacet
   facet normal -0.000000e+000 0.000000e+000 -1.000000e+000
      outer loop
         vertex 1.338197e+001 1.175570e+000 0.000000e+000
         vertex 1.300000e+001 2.449294e-016 0.000000e+000
         vertex 1.000000e+000 0.000000e+000 0.000000e+000
      endloop
   endfacet
   facet normal 0.000000e+000 0.000000e+000 -1.000000e+000
      outer loop
         vertex -1.338197e+001 -1.175570e+000 0.000000e+000
         vertex -7.071068e-001 -7.071068e-001 0.000000e+000
         vertex -9.192389e+000 -9.192389e+000 0.000000e+000
      endloop
   endfacet
   facet normal 0.000000e+000 0.000000e+000 1.000000e+000
      outer loop
         vertex 2.356105e+000 -1.360298e+000 2.600000e+001
         vertex 2.720595e+000 -3.331768e-016 2.600000e+001
         vertex 1.000000e+000 0.000000e+000 2.600000e+001
      endloop
   endfacet
   facet normal 0.000000e+000 0.000000e+000 1.000000e+000
      outer loop
         vertex 2.356105e+000 1.360298e+000 2.600000e+001
         vertex 1.360298e+000 2.356105e+000 2.600000e+001
         vertex 7.071068e-001 7.071068e-001 2.600000e+001
      endloop
   endfacet
   facet normal -0.000000e+000 0.000000e+000 1.000000e+000
      outer loop
         vertex 1.665884e-016 2.720595e+000 2.600000e+001
         vertex -1.360298e+000 2.356105e+000 2.600000e+001
         vertex 6.123234e-017 1.000000e+000 2.600000e+001
      endloop
   endfacet
   facet normal -0.000000e+000 0.000000e+000 1.000000e+000
      outer loop
         vertex -2.356105e+000 1.360298e+000 2.600000e+001
         vertex -2.720595e+000 1.541364e-015 2.600000e+001
         vertex -1.000000e+000 1.224647e-016 2.600000e+001
      endloop
   endfacet
   facet normal 0.000000e+000 -0.000000e+000 1.000000e+000
      outer loop
         vertex -2.356105e+000 -1.360298e+000 2.600000e+001
         vertex -1.360298e+000 -2.356105e+000 2.600000e+001
         vertex -7.071068e-001 -7.071068e-001 2.600000e+001
      endloop
   endfacet
   facet normal 0.000000e+000 0.000000e+000 1.000000e+000
      outer loop
         vertex -4.997653e-016 -2.720595e+000 2.600000e+001
         vertex 1.360298e+000 -2.356105e+000 2.600000e+001
         vertex -1.836970e-016 -1.000000e+000 2.600000e+001
      endloop
   endfacet
   facet normal 0.000000e+000 -0.000000e+000 1.000000e+000
      outer loop
         vertex 7.071068e-001 7.071068e-001 2.600000e+001
         vertex 1.000000e+000 0.000000e+000 2.600000e+001
         vertex 2.356105e+000 1.360298e+000 2.600000e+001
      endloop
   endfacet
   facet normal -0.000000e+000 0.000000e+000 1.000000e+000
      outer loop
         vertex 7.071068e-001 -7.071068e-001 2.600000e+001
         vertex -1.836970e-016 -1.000000e+000 2.600000e+001
         vertex 1.360298e+000 -2.356105e+000 2.600000e+001
      endloop
   endfacet
   facet normal 0.000000e+000 0.000000e+000 1.000000e+000
      outer loop
         vertex -7.071068e-001 -7.071068e-001 2.600000e+001
         vertex -1.000000e+000 1.224647e-016 2.600000e+001
         vertex -2.356105e+000 -1.360298e+000 2.600000e+001
      endloop
   endfacet
   facet normal 0.000000e+000 0.000000e+000 1.000000e+000
      outer loop
         vertex -7.071068e-001 7.071068e-001 2.600000e+001
         vertex 6.123234e-017 1.000000e+000 2.600000e+001
         vertex -1.360298e+000 2.356105e+000 2.600000e+001
      endloop
   endfacet
   facet normal 0.000000e+000 0.000000e+000 1.000000e+000
      outer loop
         vertex 2.356105e+000 -1.360298e+000 2.600000e+001
         vertex 1.000000e+000 0.000000e+000 2.600000e+001
         vertex 7.071068e-001 -7.071068e-001 2.600000e+001
      endloop
   endfacet
   facet normal 0.000000e+000 0.000000e+000 1.000000e+000
      outer loop
         vertex 1.665884e-016 2.720595e+000 2.600000e+001
         vertex 6.123234e-017 1.000000e+000 2.600000e+001
         vertex 1.360298e+000 2.356105e+000 2.600000e+001
      endloop
   endfacet
   facet normal 0.000000e+000 0.000000e+000 1.000000e+000
      outer loop
         vertex -7.071068e-001 -7.071068e-001 2.600000e+001
         vertex -1.360298e+000 -2.356105e+000 2.600000e+001
         vertex -1.836970e-016 -1.000000e+000 2.600000e+001
      endloop
   endfacet
   facet normal 0.000000e+000 -0.000000e+000 1.000000e+000
      outer loop
         vertex 7.071068e-001 -7.071068e-001 2.600000e+001
         vertex 1.360298e+000 -2.356105e+000 2.600000e+001
         vertex 2.356105e+000 -1.360298e+000 2.600000e+001
      endloop
   endfacet
   facet normal -0.000000e+000 0.000000e+000 1.000000e+000
      outer loop
         vertex 1.360298e+000 2.356105e+000 2.600000e+001
         vertex 6.123234e-017 1.000000e+000 2.600000e+001
         vertex 7.071068e-001 7.071068e-001 2.600000e+001
      endloop
   endfacet
   facet normal 0.000000e+000 0.000000e+000 1.000000e+000
      outer loop
         vertex 2.720595e+000 -3.331768e-016 2.600000e+001
         vertex 2.356105e+000 1.360298e+000 2.600000e+001
         vertex 1.000000e+000 0.000000e+000 2.600000e+001
      endloop
   endfacet
   facet normal 0.000000e+000 -0.000000e+000 1.000000e+000
      outer loop
         vertex -2.720595e+000 1.541364e-015 2.600000e+001
         vertex -2.356105e+000 -1.360298e+000 2.600000e+001
         vertex -1.000000e+000 1.224647e-016 2.600000e+001
      endloop
   endfacet
   facet normal 0.000000e+000 0.000000e+000 1.000000e+000
      outer loop
         vertex -1.000000e+000 1.224647e-016 2.600000e+001
         vertex -7.071068e-001 7.071068e-001 2.600000e+001
         vertex -2.356105e+000 1.360298e+000 2.600000e+001
      endloop
   endfacet
   facet normal 0.000000e+000 0.000000e+000 1.000000e+000
      outer loop
         vertex -7.071068e-001 7.071068e-001 2.600000e+001
         vertex -1.360298e+000 2.356105e+000 2.600000e+001
         vertex -2.356105e+000 1.360298e+000 2.600000e+001
      endloop
   endfacet
   facet normal 0.000000e+000 -0.000000e+000 1.000000e+000
      outer loop
         vertex -1.360298e+000 -2.356105e+000 2.600000e+001
         vertex -4.997653e-016 -2.720595e+000 2.600000e+001
         vertex -1.836970e-016 -1.000000e+000 2.600000e+001
      endloop
   endfacet
   facet normal -9.238795e-001 -3.826835e-001 0.000000e+000
      outer loop
         vertex 7.071068e-001 7.071068e-001 0.000000e+000
         vertex 1.000000e+000 0.000000e+000 0.000000e+000
         vertex 1.000000e+000 0.000000e+000 2.600000e+001
      endloop
   endfacet
   facet normal 3.826835e-001 -9.238795e-001 0.000000e+000
      outer loop
         vertex -7.071068e-001 7.071068e-001 2.600000e+001
         vertex -7.071068e-001 7.071068e-001 0.000000e+000
         vertex 6.123234e-017 1.000000e+000 0.000000e+000
      endloop
   endfacet
   facet normal 9.238795e-001 3.826835e-001 -0.000000e+000
      outer loop
         vertex -7.071068e-001 -7.071068e-001 2.600000e+001
         vertex -7.071068e-001 -7.071068e-001 0.000000e+000
         vertex -1.000000e+000 1.224647e-016 0.000000e+000
      endloop
   endfacet
   facet normal -3.826835e-001 9.238795e-001 0.000000e+000
      outer loop
         vertex 7.071068e-001 -7.071068e-001 2.600000e+001
         vertex 7.071068e-001 -7.071068e-001 0.000000e+000
         vertex -1.836970e-016 -1.000000e+000 0.000000e+000
      endloop
   endfacet
   facet normal -9.238795e-001 3.826835e-001 0.000000e+000
      outer loop
         vertex 7.071068e-001 -7.071068e-001 0.000000e+000
         vertex 1.000000e+000 0.000000e+000 2.600000e+001
         vertex 1.000000e+000 0.000000e+000 0.000000e+000
      endloop
   endfacet
   facet normal 3.826835e-001 9.238795e-001 0.000000e+000
      outer loop
         vertex -7.071068e-001 -7.071068e-001 0.000000e+000
         vertex -7.071068e-001 -7.071068e-001 2.600000e+001
         vertex -1.836970e-016 -1.000000e+000 2.600000e+001
      endloop
   endfacet
   facet normal 9.238795e-001 -3.826835e-001 0.000000e+000
      outer loop
         vertex -7.071068e-001 7.071068e-001 0.000000e+000
         vertex -7.071068e-001 7.071068e-001 2.600000e+001
         vertex -1.000000e+000 1.224647e-016 2.600000e+001
      endloop
   endfacet
   facet normal -3.826835e-001 -9.238795e-001 -0.000000e+000
      outer loop
         vertex 7.071068e-001 7.071068e-001 0.000000e+000
         vertex 7.071068e-001 7.071068e-001 2.600000e+001
         vertex 6.123234e-017 1.000000e+000 2.600000e+001
      endloop
   endfacet
   facet normal -9.238795e-001 -3.826835e-001 0.000000e+000
      outer loop
         vertex 7.071068e-001 7.071068e-001 2.600000e+001
         vertex 7.071068e-001 7.071068e-001 0.000000e+000
         vertex 1.000000e+000 0.000000e+000 2.600000e+001
      endloop
   endfacet
   facet normal -3.826835e-001 9.238795e-001 0.000000e+000
      outer loop
         vertex -1.836970e-016 -1.000000e+000 2.600000e+001
         vertex 7.071068e-001 -7.071068e-001 2.600000e+001
         vertex -1.836970e-016 -1.000000e+000 0.000000e+000
      endloop
   endfacet
   facet normal 3.826835e-001 9.238795e-001 0.000000e+000
      outer loop
         vertex -1.836970e-016 -1.000000e+000 0.000000e+000
         vertex -7.071068e-001 -7.071068e-001 0.000000e+000
         vertex -1.836970e-016 -1.000000e+000 2.600000e+001
      endloop
   endfacet
   facet normal -3.826835e-001 -9.238795e-001 0.000000e+000
      outer loop
         vertex 6.123234e-017 1.000000e+000 2.600000e+001
         vertex 6.123234e-017 1.000000e+000 0.000000e+000
         vertex 7.071068e-001 7.071068e-001 0.000000e+000
      endloop
   endfacet
   facet normal -9.238795e-001 3.826835e-001 0.000000e+000
      outer loop
         vertex 7.071068e-001 -7.071068e-001 0.000000e+000
         vertex 7.071068e-001 -7.071068e-001 2.600000e+001
         vertex 1.000000e+000 0.000000e+000 2.600000e+001
      endloop
   endfacet
   facet normal 3.826835e-001 -9.238795e-001 0.000000e+000
      outer loop
         vertex 6.123234e-017 1.000000e+000 0.000000e+000
         vertex 6.123234e-017 1.000000e+000 2.600000e+001
         vertex -7.071068e-001 7.071068e-001 2.600000e+001
      endloop
   endfacet
   facet normal 9.238795e-001 -3.826835e-001 0.000000e+000
      outer loop
         vertex -1.000000e+000 1.224647e-016 0.000000e+000
         vertex -7.071068e-001 7.071068e-001 0.000000e+000
         vertex -1.000000e+000 1.224647e-016 2.600000e+001
      endloop
   endfacet
   facet normal 9.238795e-001 3.826835e-001 0.000000e+000
      outer loop
         vertex -1.000000e+000 1.224647e-016 0.000000e+000
         vertex -1.000000e+000 1.224647e-016 2.600000e+001
         vertex -7.071068e-001 -7.071068e-001 2.600000e+001
      endloop
   endfacet
   facet normal -6.087613e-001 -7.933534e-001 0.000000e+000
      outer loop
         vertex -9.192389e+000 -9.192389e+000 6.000000e+000
         vertex -9.192389e+000 -9.192389e+000 0.000000e+000
         vertex -6.500000e+000 -1.125833e+001 0.000000e+000
      endloop
   endfacet
   facet normal -1.305263e-001 -9.914449e-001 0.000000e+000
      outer loop
         vertex -3.364648e+000 -1.255704e+001 0.000000e+000
         vertex -2.526298e-015 -1.300000e+001 0.000000e+000
         vertex -2.526298e-015 -1.300000e+001 6.000000e+000
      endloop
   endfacet
   facet normal 3.826833e-001 -9.238796e-001 0.000000e+000
      outer loop
         vertex 3.364648e+000 -1.255704e+001 0.000000e+000
         vertex 6.500000e+000 -1.125833e+001 0.000000e+000
         vertex 6.500000e+000 -1.125833e+001 6.000000e+000
      endloop
   endfacet
   facet normal 6.087613e-001 -7.933534e-001 0.000000e+000
      outer loop
         vertex 9.192389e+000 -9.192389e+000 0.000000e+000
         vertex 9.192389e+000 -9.192389e+000 6.000000e+000
         vertex 6.500000e+000 -1.125833e+001 0.000000e+000
      endloop
   endfacet
   facet normal 1.305263e-001 -9.914449e-001 0.000000e+000
      outer loop
         vertex 3.364648e+000 -1.255704e+001 6.000000e+000
         vertex -2.526298e-015 -1.300000e+001 6.000000e+000
         vertex -2.526298e-015 -1.300000e+001 0.000000e+000
      endloop
   endfacet
   facet normal -3.826833e-001 -9.238796e-001 -0.000000e+000
      outer loop
         vertex -3.364648e+000 -1.255704e+001 6.000000e+000
         vertex -6.500000e+000 -1.125833e+001 6.000000e+000
         vertex -6.500000e+000 -1.125833e+001 0.000000e+000
      endloop
   endfacet
   facet normal -6.087613e-001 -7.933534e-001 0.000000e+000
      outer loop
         vertex -9.192389e+000 -9.192389e+000 6.000000e+000
         vertex -6.500000e+000 -1.125833e+001 0.000000e+000
         vertex -6.500000e+000 -1.125833e+001 6.000000e+000
      endloop
   endfacet
   facet normal 6.087613e-001 -7.933534e-001 0.000000e+000
      outer loop
         vertex 6.500000e+000 -1.125833e+001 6.000000e+000
         vertex 6.500000e+000 -1.125833e+001 0.000000e+000
         vertex 9.192389e+000 -9.192389e+000 6.000000e+000
      endloop
   endfacet
   facet normal -3.826833e-001 -9.238796e-001 0.000000e+000
      outer loop
         vertex -6.500000e+000 -1.125833e+001 0.000000e+000
         vertex -3.364648e+000 -1.255704e+001 0.000000e+000
         vertex -3.364648e+000 -1.255704e+001 6.000000e+000
      endloop
   endfacet
   facet normal 3.826833e-001 -9.238796e-001 0.000000e+000
      outer loop
         vertex 6.500000e+000 -1.125833e+001 6.000000e+000
         vertex 3.364648e+000 -1.255704e+001 6.000000e+000
         vertex 3.364648e+000 -1.255704e+001 0.000000e+000
      endloop
   endfacet
   facet normal -1.305263e-001 -9.914449e-001 0.000000e+000
      outer loop
         vertex -3.364648e+000 -1.255704e+001 0.000000e+000
         vertex -2.526298e-015 -1.300000e+001 6.000000e+000
         vertex -3.364648e+000 -1.255704e+001 6.000000e+000
      endloop
   endfacet
   facet normal 1.305263e-001 -9.914449e-001 0.000000e+000
      outer loop
         vertex -2.526298e-015 -1.300000e+001 0.000000e+000
         vertex 3.364648e+000 -1.255704e+001 0.000000e+000
         vertex 3.364648e+000 -1.255704e+001 6.000000e+000
      endloop
   endfacet
   facet normal -5.683498e-001 -8.227870e-001 0.000000e+000
      outer loop
         vertex -1.806413e+001 -3.064129e+000 6.000000e+000
         vertex -1.806413e+001 -3.064129e+000 0.000000e+000
         vertex -9.192389e+000 -9.192389e+000 0.000000e+000
      endloop
   endfacet
   facet normal -5.683498e-001 -8.227870e-001 0.000000e+000
      outer loop
         vertex -9.192389e+000 -9.192389e+000 6.000000e+000
         vertex -1.806413e+001 -3.064129e+000 6.000000e+000
         vertex -9.192389e+000 -9.192389e+000 0.000000e+000
      endloop
   endfacet
   facet normal -8.314697e-001 5.555701e-001 0.000000e+000
      outer loop
         vertex -1.806413e+001 3.064129e+000 6.000000e+000
         vertex -1.806413e+001 3.064129e+000 0.000000e+000
         vertex -1.900348e+001 1.658295e+000 0.000000e+000
      endloop
   endfacet
   facet normal -9.807851e-001 -1.950912e-001 0.000000e+000
      outer loop
         vertex -1.933333e+001 -9.208563e-015 0.000000e+000
         vertex -1.900348e+001 -1.658295e+000 0.000000e+000
         vertex -1.900348e+001 -1.658295e+000 6.000000e+000
      endloop
   endfacet
   facet normal -8.314697e-001 -5.555701e-001 -0.000000e+000
      outer loop
         vertex -1.806413e+001 -3.064129e+000 0.000000e+000
         vertex -1.806413e+001 -3.064129e+000 6.000000e+000
         vertex -1.900348e+001 -1.658295e+000 0.000000e+000
      endloop
   endfacet
   facet normal -9.807851e-001 1.950912e-001 0.000000e+000
      outer loop
         vertex -1.933333e+001 -9.208563e-015 6.000000e+000
         vertex -1.900348e+001 1.658295e+000 6.000000e+000
         vertex -1.900348e+001 1.658295e+000 0.000000e+000
      endloop
   endfacet
   facet normal -8.314697e-001 5.555701e-001 0.000000e+000
      outer loop
         vertex -1.806413e+001 3.064129e+000 6.000000e+000
         vertex -1.900348e+001 1.658295e+000 0.000000e+000
         vertex -1.900348e+001 1.658295e+000 6.000000e+000
      endloop
   endfacet
   facet normal -8.314697e-001 -5.555701e-001 0.000000e+000
      outer loop
         vertex -1.900348e+001 -1.658295e+000 0.000000e+000
         vertex -1.806413e+001 -3.064129e+000 6.000000e+000
         vertex -1.900348e+001 -1.658295e+000 6.000000e+000
      endloop
   endfacet
   facet normal -9.807851e-001 1.950912e-001 0.000000e+000
      outer loop
         vertex -1.900348e+001 1.658295e+000 0.000000e+000
         vertex -1.933333e+001 -9.208563e-015 0.000000e+000
         vertex -1.933333e+001 -9.208563e-015 6.000000e+000
      endloop
   endfacet
   facet normal -9.807851e-001 -1.950912e-001 0.000000e+000
      outer loop
         vertex -1.933333e+001 -9.208563e-015 0.000000e+000
         vertex -1.900348e+001 -1.658295e+000 6.000000e+000
         vertex -1.933333e+001 -9.208563e-015 6.000000e+000
      endloop
   endfacet
   facet normal -5.683498e-001 8.227870e-001 0.000000e+000
      outer loop
         vertex -9.192389e+000 9.192389e+000 6.000000e+000
         vertex -9.192389e+000 9.192389e+000 0.000000e+000
         vertex -1.806413e+001 3.064129e+000 0.000000e+000
      endloop
   endfacet
   facet normal -5.683498e-001 8.227870e-001 0.000000e+000
      outer loop
         vertex -1.806413e+001 3.064129e+000 6.000000e+000
         vertex -9.192389e+000 9.192389e+000 6.000000e+000
         vertex -1.806413e+001 3.064129e+000 0.000000e+000
      endloop
   endfacet
   facet normal 6.087613e-001 7.933534e-001 -0.000000e+000
      outer loop
         vertex 9.192389e+000 9.192389e+000 6.000000e+000
         vertex 9.192389e+000 9.192389e+000 0.000000e+000
         vertex 6.500000e+000 1.125833e+001 0.000000e+000
      endloop
   endfacet
   facet normal 1.305263e-001 9.914449e-001 -0.000000e+000
      outer loop
         vertex 3.364648e+000 1.255704e+001 0.000000e+000
         vertex 1.730278e-015 1.300000e+001 0.000000e+000
         vertex 1.730278e-015 1.300000e+001 6.000000e+000
      endloop
   endfacet
   facet normal -3.826833e-001 9.238796e-001 0.000000e+000
      outer loop
         vertex -3.364648e+000 1.255704e+001 0.000000e+000
         vertex -6.500000e+000 1.125833e+001 0.000000e+000
         vertex -6.500000e+000 1.125833e+001 6.000000e+000
      endloop
   endfacet
   facet normal -6.087613e-001 7.933534e-001 0.000000e+000
      outer loop
         vertex -9.192389e+000 9.192389e+000 0.000000e+000
         vertex -9.192389e+000 9.192389e+000 6.000000e+000
         vertex -6.500000e+000 1.125833e+001 0.000000e+000
      endloop
   endfacet
   facet normal -1.305263e-001 9.914449e-001 0.000000e+000
      outer loop
         vertex -3.364648e+000 1.255704e+001 6.000000e+000
         vertex 1.730278e-015 1.300000e+001 6.000000e+000
         vertex 1.730278e-015 1.300000e+001 0.000000e+000
      endloop
   endfacet
   facet normal 3.826833e-001 9.238796e-001 0.000000e+000
      outer loop
         vertex 3.364648e+000 1.255704e+001 6.000000e+000
         vertex 6.500000e+000 1.125833e+001 6.000000e+000
         vertex 6.500000e+000 1.125833e+001 0.000000e+000
      endloop
   endfacet
   facet normal 6.087613e-001 7.933534e-001 -0.000000e+000
      outer loop
         vertex 9.192389e+000 9.192389e+000 6.000000e+000
         vertex 6.500000e+000 1.125833e+001 0.000000e+000
         vertex 6.500000e+000 1.125833e+001 6.000000e+000
      endloop
   endfacet
   facet normal -6.087613e-001 7.933534e-001 0.000000e+000
      outer loop
         vertex -6.500000e+000 1.125833e+001 6.000000e+000
         vertex -6.500000e+000 1.125833e+001 0.000000e+000
         vertex -9.192389e+000 9.192389e+000 6.000000e+000
      endloop
   endfacet
   facet normal 3.826833e-001 9.238796e-001 -0.000000e+000
      outer loop
         vertex 6.500000e+000 1.125833e+001 0.000000e+000
         vertex 3.364648e+000 1.255704e+001 0.000000e+000
         vertex 3.364648e+000 1.255704e+001 6.000000e+000
      endloop
   endfacet
   facet normal -3.826833e-001 9.238796e-001 0.000000e+000
      outer loop
         vertex -6.500000e+000 1.125833e+001 6.000000e+000
         vertex -3.364648e+000 1.255704e+001 6.000000e+000
         vertex -3.364648e+000 1.255704e+001 0.000000e+000
      endloop
   endfacet
   facet normal 1.305263e-001 9.914449e-001 0.000000e+000
      outer loop
         vertex 3.364648e+000 1.255704e+001 0.000000e+000
         vertex 1.730278e-015 1.300000e+001 6.000000e+000
         vertex 3.364648e+000 1.255704e+001 6.000000e+000
      endloop
   endfacet
   facet normal -1.305263e-001 9.914449e-001 0.000000e+000
      outer loop
         vertex 1.730278e-015 1.300000e+001 0.000000e+000
         vertex -3.364648e+000 1.255704e+001 0.000000e+000
         vertex -3.364648e+000 1.255704e+001 6.000000e+000
      endloop
   endfacet
   facet normal 5.683498e-001 8.227870e-001 -0.000000e+000
      outer loop
         vertex 1.806413e+001 3.064129e+000 6.000000e+000
         vertex 1.806413e+001 3.064129e+000 0.000000e+000
         vertex 9.192389e+000 9.192389e+000 0.000000e+000
      endloop
   endfacet
   facet normal 5.683498e-001 8.227870e-001 0.000000e+000
      outer loop
         vertex 9.192389e+000 9.192389e+000 6.000000e+000
         vertex 1.806413e+001 3.064129e+000 6.000000e+000
         vertex 9.192389e+000 9.192389e+000 0.000000e+000
      endloop
   endfacet
   facet normal 8.314697e-001 -5.555701e-001 0.000000e+000
      outer loop
         vertex 1.806413e+001 -3.064129e+000 6.000000e+000
         vertex 1.806413e+001 -3.064129e+000 0.000000e+000
         vertex 1.900348e+001 -1.658295e+000 0.000000e+000
      endloop
   endfacet
   facet normal 9.807851e-001 1.950912e-001 -0.000000e+000
      outer loop
         vertex 1.933333e+001 -7.488078e-015 0.000000e+000
         vertex 1.900348e+001 1.658295e+000 0.000000e+000
         vertex 1.900348e+001 1.658295e+000 6.000000e+000
      endloop
   endfacet
   facet normal 8.314697e-001 5.555701e-001 0.000000e+000
      outer loop
         vertex 1.806413e+001 3.064129e+000 0.000000e+000
         vertex 1.806413e+001 3.064129e+000 6.000000e+000
         vertex 1.900348e+001 1.658295e+000 0.000000e+000
      endloop
   endfacet
   facet normal 9.807851e-001 -1.950912e-001 0.000000e+000
      outer loop
         vertex 1.933333e+001 -7.488078e-015 6.000000e+000
         vertex 1.900348e+001 -1.658295e+000 6.000000e+000
         vertex 1.900348e+001 -1.658295e+000 0.000000e+000
      endloop
   endfacet
   facet normal 8.314697e-001 -5.555701e-001 0.000000e+000
      outer loop
         vertex 1.806413e+001 -3.064129e+000 6.000000e+000
         vertex 1.900348e+001 -1.658295e+000 0.000000e+000
         vertex 1.900348e+001 -1.658295e+000 6.000000e+000
      endloop
   endfacet
   facet normal 8.314697e-001 5.555701e-001 0.000000e+000
      outer loop
         vertex 1.900348e+001 1.658295e+000 0.000000e+000
         vertex 1.806413e+001 3.064129e+000 6.000000e+000
         vertex 1.900348e+001 1.658295e+000 6.000000e+000
      endloop
   endfacet
   facet normal 9.807851e-001 -1.950912e-001 0.000000e+000
      outer loop
         vertex 1.900348e+001 -1.658295e+000 0.000000e+000
         vertex 1.933333e+001 -7.488078e-015 0.000000e+000
         vertex 1.933333e+001 -7.488078e-015 6.000000e+000
      endloop
   endfacet
   facet normal 9.807851e-001 1.950912e-001 0.000000e+000
      outer loop
         vertex 1.933333e+001 -7.488078e-015 0.000000e+000
         vertex 1.900348e+001 1.658295e+000 6.000000e+000
         vertex 1.933333e+001 -7.488078e-015 6.000000e+000
      endloop
   endfacet
   facet normal 5.683498e-001 -8.227870e-001 0.000000e+000
      outer loop
         vertex 9.192389e+000 -9.192389e+000 6.000000e+000
         vertex 9.192389e+000 -9.192389e+000 0.000000e+000
         vertex 1.806413e+001 -3.064129e+000 0.000000e+000
      endloop
   endfacet
   facet normal 5.683498e-001 -8.227870e-001 0.000000e+000
      outer loop
         vertex 1.806413e+001 -3.064129e+000 6.000000e+000
         vertex 9.192389e+000 -9.192389e+000 6.000000e+000
         vertex 1.806413e+001 -3.064129e+000 0.000000e+000
      endloop
   endfacet
   facet normal -9.510566e-001 -3.090167e-001 -2.522909e-017
      outer loop
         vertex 1.661803e+001 1.175570e+000 0.000000e+000
         vertex 1.700000e+001 0.000000e+000 0.000000e+000
         vertex 1.700000e+001 -2.449294e-016 3.000000e+000
      endloop
   endfacet
   facet normal 0.000000e+000 -1.000000e+000 0.000000e+000
      outer loop
         vertex 1.438197e+001 1.902113e+000 3.000000e+000
         vertex 1.438197e+001 1.902113e+000 0.000000e+000
         vertex 1.561803e+001 1.902113e+000 0.000000e+000
      endloop
   endfacet
   facet normal 9.510566e-001 -3.090167e-001 0.000000e+000
      outer loop
         vertex 1.300000e+001 2.449294e-016 3.000000e+000
         vertex 1.300000e+001 2.449294e-016 0.000000e+000
         vertex 1.338197e+001 1.175570e+000 0.000000e+000
      endloop
   endfacet
   facet normal 5.877853e-001 8.090170e-001 -0.000000e+000
      outer loop
         vertex 1.438197e+001 -1.902113e+000 3.000000e+000
         vertex 1.438197e+001 -1.902113e+000 0.000000e+000
         vertex 1.338197e+001 -1.175570e+000 0.000000e+000
      endloop
   endfacet
   facet normal -5.877853e-001 8.090170e-001 0.000000e+000
      outer loop
         vertex 1.661803e+001 -1.175570e+000 3.000000e+000
         vertex 1.661803e+001 -1.175570e+000 0.000000e+000
         vertex 1.561803e+001 -1.902113e+000 0.000000e+000
      endloop
   endfacet
   facet normal -9.510566e-001 3.090167e-001 2.522909e-017
      outer loop
         vertex 1.661803e+001 -1.175570e+000 0.000000e+000
         vertex 1.700000e+001 -2.449294e-016 3.000000e+000
         vertex 1.700000e+001 0.000000e+000 0.000000e+000
      endloop
   endfacet
   facet normal -0.000000e+000 1.000000e+000 0.000000e+000
      outer loop
         vertex 1.438197e+001 -1.902113e+000 0.000000e+000
         vertex 1.438197e+001 -1.902113e+000 3.000000e+000
         vertex 1.561803e+001 -1.902113e+000 3.000000e+000
      endloop
   endfacet
   facet normal 9.510566e-001 3.090167e-001 0.000000e+000
      outer loop
         vertex 1.300000e+001 2.449294e-016 0.000000e+000
         vertex 1.300000e+001 2.449294e-016 3.000000e+000
         vertex 1.338197e+001 -1.175570e+000 3.000000e+000
      endloop
   endfacet
   facet normal 5.877853e-001 -8.090170e-001 0.000000e+000
      outer loop
         vertex 1.438197e+001 1.902113e+000 0.000000e+000
         vertex 1.438197e+001 1.902113e+000 3.000000e+000
         vertex 1.338197e+001 1.175570e+000 3.000000e+000
      endloop
   endfacet
   facet normal -5.877853e-001 -8.090170e-001 -0.000000e+000
      outer loop
         vertex 1.661803e+001 1.175570e+000 0.000000e+000
         vertex 1.661803e+001 1.175570e+000 3.000000e+000
         vertex 1.561803e+001 1.902113e+000 3.000000e+000
      endloop
   endfacet
   facet normal -9.510566e-001 -3.090167e-001 0.000000e+000
      outer loop
         vertex 1.661803e+001 1.175570e+000 3.000000e+000
         vertex 1.661803e+001 1.175570e+000 0.000000e+000
         vertex 1.700000e+001 -2.449294e-016 3.000000e+000
      endloop
   endfacet
   facet normal 5.877853e-001 8.090170e-001 0.000000e+000
      outer loop
         vertex 1.338197e+001 -1.175570e+000 3.000000e+000
         vertex 1.438197e+001 -1.902113e+000 3.000000e+000
         vertex 1.338197e+001 -1.175570e+000 0.000000e+000
      endloop
   endfacet
   facet normal -9.510566e-001 3.090167e-001 0.000000e+000
      outer loop
         vertex 1.661803e+001 -1.175570e+000 3.000000e+000
         vertex 1.700000e+001 -2.449294e-016 3.000000e+000
         vertex 1.661803e+001 -1.175570e+000 0.000000e+000
      endloop
   endfacet
   facet normal -5.877853e-001 -8.090170e-001 0.000000e+000
      outer loop
         vertex 1.561803e+001 1.902113e+000 0.000000e+000
         vertex 1.661803e+001 1.175570e+000 0.000000e+000
         vertex 1.561803e+001 1.902113e+000 3.000000e+000
      endloop
   endfacet
   facet normal 5.877853e-001 -8.090170e-001 0.000000e+000
      outer loop
         vertex 1.338197e+001 1.175570e+000 3.000000e+000
         vertex 1.338197e+001 1.175570e+000 0.000000e+000
         vertex 1.438197e+001 1.902113e+000 0.000000e+000
      endloop
   endfacet
   facet normal 0.000000e+000 1.000000e+000 -0.000000e+000
      outer loop
         vertex 1.561803e+001 -1.902113e+000 3.000000e+000
         vertex 1.561803e+001 -1.902113e+000 0.000000e+000
         vertex 1.438197e+001 -1.902113e+000 0.000000e+000
      endloop
   endfacet
   facet normal 9.510566e-001 -3.090167e-001 0.000000e+000
      outer loop
         vertex 1.338197e+001 1.175570e+000 0.000000e+000
         vertex 1.338197e+001 1.175570e+000 3.000000e+000
         vertex 1.300000e+001 2.449294e-016 3.000000e+000
      endloop
   endfacet
   facet normal 0.000000e+000 -1.000000e+000 0.000000e+000
      outer loop
         vertex 1.561803e+001 1.902113e+000 3.000000e+000
         vertex 1.438197e+001 1.902113e+000 3.000000e+000
         vertex 1.561803e+001 1.902113e+000 0.000000e+000
      endloop
   endfacet
   facet normal 9.510566e-001 3.090167e-001 0.000000e+000
      outer loop
         vertex 1.300000e+001 2.449294e-016 0.000000e+000
         vertex 1.338197e+001 -1.175570e+000 3.000000e+000
         vertex 1.338197e+001 -1.175570e+000 0.000000e+000
      endloop
   endfacet
   facet normal -5.877853e-001 8.090170e-001 0.000000e+000
      outer loop
         vertex 1.561803e+001 -1.902113e+000 0.000000e+000
         vertex 1.561803e+001 -1.902113e+000 3.000000e+000
         vertex 1.661803e+001 -1.175570e+000 3.000000e+000
      endloop
   endfacet
   facet normal -9.510566e-001 -3.090167e-001 -2.522909e-017
      outer loop
         vertex -1.338197e+001 1.175570e+000 0.000000e+000
         vertex -1.300000e+001 0.000000e+000 0.000000e+000
         vertex -1.300000e+001 -2.449294e-016 3.000000e+000
      endloop
   endfacet
   facet normal 0.000000e+000 -1.000000e+000 0.000000e+000
      outer loop
         vertex -1.561803e+001 1.902113e+000 3.000000e+000
         vertex -1.561803e+001 1.902113e+000 0.000000e+000
         vertex -1.438197e+001 1.902113e+000 0.000000e+000
      endloop
   endfacet
   facet normal 9.510566e-001 -3.090167e-001 0.000000e+000
      outer loop
         vertex -1.700000e+001 2.449294e-016 3.000000e+000
         vertex -1.700000e+001 2.449294e-016 0.000000e+000
         vertex -1.661803e+001 1.175570e+000 0.000000e+000
      endloop
   endfacet
   facet normal 5.877853e-001 8.090170e-001 -0.000000e+000
      outer loop
         vertex -1.561803e+001 -1.902113e+000 3.000000e+000
         vertex -1.561803e+001 -1.902113e+000 0.000000e+000
         vertex -1.661803e+001 -1.175570e+000 0.000000e+000
      endloop
   endfacet
   facet normal -5.877853e-001 8.090170e-001 0.000000e+000
      outer loop
         vertex -1.338197e+001 -1.175570e+000 3.000000e+000
         vertex -1.338197e+001 -1.175570e+000 0.000000e+000
         vertex -1.438197e+001 -1.902113e+000 0.000000e+000
      endloop
   endfacet
   facet normal -9.510566e-001 3.090167e-001 2.522909e-017
      outer loop
         vertex -1.338197e+001 -1.175570e+000 0.000000e+000
         vertex -1.300000e+001 -2.449294e-016 3.000000e+000
         vertex -1.300000e+001 0.000000e+000 0.000000e+000
      endloop
   endfacet
   facet normal -0.000000e+000 1.000000e+000 0.000000e+000
      outer loop
         vertex -1.561803e+001 -1.902113e+000 0.000000e+000
         vertex -1.561803e+001 -1.902113e+000 3.000000e+000
         vertex -1.438197e+001 -1.902113e+000 3.000000e+000
      endloop
   endfacet
   facet normal 9.510566e-001 3.090167e-001 0.000000e+000
      outer loop
         vertex -1.700000e+001 2.449294e-016 0.000000e+000
         vertex -1.700000e+001 2.449294e-016 3.000000e+000
         vertex -1.661803e+001 -1.175570e+000 3.000000e+000
      endloop
   endfacet
   facet normal 5.877853e-001 -8.090170e-001 0.000000e+000
      outer loop
         vertex -1.561803e+001 1.902113e+000 0.000000e+000
         vertex -1.561803e+001 1.902113e+000 3.000000e+000
         vertex -1.661803e+001 1.175570e+000 3.000000e+000
      endloop
   endfacet
   facet normal -5.877853e-001 -8.090170e-001 -0.000000e+000
      outer loop
         vertex -1.338197e+001 1.175570e+000 0.000000e+000
         vertex -1.338197e+001 1.175570e+000 3.000000e+000
         vertex -1.438197e+001 1.902113e+000 3.000000e+000
      endloop
   endfacet
   facet normal -9.510566e-001 -3.090167e-001 0.000000e+000
      outer loop
         vertex -1.338197e+001 1.175570e+000 3.000000e+000
         vertex -1.338197e+001 1.175570e+000 0.000000e+000
         vertex -1.300000e+001 -2.449294e-016 3.000000e+000
      endloop
   endfacet
   facet normal 5.877853e-001 8.090170e-001 0.000000e+000
      outer loop
         vertex -1.661803e+001 -1.175570e+000 3.000000e+000
         vertex -1.561803e+001 -1.902113e+000 3.000000e+000
         vertex -1.661803e+001 -1.175570e+000 0.000000e+000
      endloop
   endfacet
   facet normal -9.510566e-001 3.090167e-001 0.000000e+000
      outer loop
         vertex -1.338197e+001 -1.175570e+000 3.000000e+000
         vertex -1.300000e+001 -2.449294e-016 3.000000e+000
         vertex -1.338197e+001 -1.175570e+000 0.000000e+000
      endloop
   endfacet
   facet normal -5.877853e-001 -8.090170e-001 0.000000e+000
      outer loop
         vertex -1.438197e+001 1.902113e+000 0.000000e+000
         vertex -1.338197e+001 1.175570e+000 0.000000e+000
         vertex -1.438197e+001 1.902113e+000 3.000000e+000
      endloop
   endfacet
   facet normal 5.877853e-001 -8.090170e-001 0.000000e+000
      outer loop
         vertex -1.661803e+001 1.175570e+000 3.000000e+000
         vertex -1.661803e+001 1.175570e+000 0.000000e+000
         vertex -1.561803e+001 1.902113e+000 0.000000e+000
      endloop
   endfacet
   facet normal 0.000000e+000 1.000000e+000 -0.000000e+000
      outer loop
         vertex -1.438197e+001 -1.902113e+000 3.000000e+000
         vertex -1.438197e+001 -1.902113e+000 0.000000e+000
         vertex -1.561803e+001 -1.902113e+000 0.000000e+000
      endloop
   endfacet
   facet normal 9.510566e-001 -3.090167e-001 0.000000e+000
      outer loop
         vertex -1.661803e+001 1.175570e+000 0.000000e+000
         vertex -1.661803e+001 1.175570e+000 3.000000e+000
         vertex -1.700000e+001 2.449294e-016 3.000000e+000
      endloop
   endfacet
   facet normal 0.000000e+000 -1.000000e+000 0.000000e+000
      outer loop
         vertex -1.438197e+001 1.902113e+000 3.000000e+000
         vertex -1.561803e+001 1.902113e+000 3.000000e+000
         vertex -1.438197e+001 1.902113e+000 0.000000e+000
      endloop
   endfacet
   facet normal 9.510566e-001 3.090167e-001 0.000000e+000
      outer loop
         vertex -1.700000e+001 2.449294e-016 0.000000e+000
         vertex -1.661803e+001 -1.175570e+000 3.000000e+000
         vertex -1.661803e+001 -1.175570e+000 0.000000e+000
      endloop
   endfacet
   facet normal -5.877853e-001 8.090170e-001 0.000000e+000
      outer loop
         vertex -1.438197e+001 -1.902113e+000 0.000000e+000
         vertex -1.438197e+001 -1.902113e+000 3.000000e+000
         vertex -1.338197e+001 -1.175570e+000 3.000000e+000
      endloop
   endfacet
   facet normal 9.312317e-001 1.338909e-001 3.389406e-001
      outer loop
         vertex 2.720595e+000 -3.331768e-016 2.600000e+001
         vertex 1.000000e+001 -1.224647e-015 6.000000e+000
         vertex 9.594930e+000 2.817326e+000 6.000000e+000
      endloop
   endfacet
   facet normal 7.107713e-001 6.158870e-001 3.398342e-001
      outer loop
         vertex 8.412536e+000 5.406408e+000 6.000000e+000
         vertex 6.548607e+000 7.557496e+000 6.000000e+000
         vertex 2.356105e+000 1.360298e+000 2.600000e+001
      endloop
   endfacet
   facet normal 2.648486e-001 9.019917e-001 3.409783e-001
      outer loop
         vertex 4.154150e+000 9.096320e+000 6.000000e+000
         vertex 1.423148e+000 9.898214e+000 6.000000e+000
         vertex 1.360298e+000 2.356105e+000 2.600000e+001
      endloop
   endfacet
   facet normal -2.648486e-001 9.019917e-001 3.409783e-001
      outer loop
         vertex -1.423148e+000 9.898214e+000 6.000000e+000
         vertex -4.154150e+000 9.096320e+000 6.000000e+000
         vertex -1.360298e+000 2.356105e+000 2.600000e+001
      endloop
   endfacet
   facet normal -7.107713e-001 6.158870e-001 3.398342e-001
      outer loop
         vertex -6.548607e+000 7.557496e+000 6.000000e+000
         vertex -8.412536e+000 5.406408e+000 6.000000e+000
         vertex -2.356105e+000 1.360298e+000 2.600000e+001
      endloop
   endfacet
   facet normal -9.312317e-001 1.338909e-001 3.389406e-001
      outer loop
         vertex -9.594930e+000 2.817326e+000 6.000000e+000
         vertex -1.000000e+001 5.665539e-015 6.000000e+000
         vertex -2.720595e+000 1.541364e-015 2.600000e+001
      endloop
   endfacet
   facet normal -8.559985e-001 -3.909213e-001 3.383003e-001
      outer loop
         vertex -9.594930e+000 -2.817326e+000 6.000000e+000
         vertex -8.412536e+000 -5.406408e+000 6.000000e+000
         vertex -2.356105e+000 -1.360298e+000 2.600000e+001
      endloop
   endfacet
   facet normal -5.088385e-001 -7.917680e-001 3.379153e-001
      outer loop
         vertex -6.548607e+000 -7.557496e+000 6.000000e+000
         vertex -4.154150e+000 -9.096320e+000 6.000000e+000
         vertex -1.360298e+000 -2.356105e+000 2.600000e+001
      endloop
   endfacet
   facet normal 0.000000e+000 -9.412226e-001 3.377869e-001
      outer loop
         vertex -1.423148e+000 -9.898214e+000 6.000000e+000
         vertex 1.423148e+000 -9.898214e+000 6.000000e+000
         vertex -4.997653e-016 -2.720595e+000 2.600000e+001
      endloop
   endfacet
   facet normal 5.088385e-001 -7.917680e-001 3.379153e-001
      outer loop
         vertex 4.154150e+000 -9.096320e+000 6.000000e+000
         vertex 6.548607e+000 -7.557496e+000 6.000000e+000
         vertex 1.360298e+000 -2.356105e+000 2.600000e+001
      endloop
   endfacet
   facet normal 8.559985e-001 -3.909213e-001 3.383003e-001
      outer loop
         vertex 8.412536e+000 -5.406408e+000 6.000000e+000
         vertex 9.594930e+000 -2.817326e+000 6.000000e+000
         vertex 2.356105e+000 -1.360298e+000 2.600000e+001
      endloop
   endfacet
   facet normal 9.312317e-001 -1.338909e-001 3.389406e-001
      outer loop
         vertex 1.000000e+001 -1.224647e-015 6.000000e+000
         vertex 2.720595e+000 -3.331768e-016 2.600000e+001
         vertex 9.594930e+000 -2.817326e+000 6.000000e+000
      endloop
   endfacet
   facet normal 2.431244e-001 -9.073524e-001 3.429316e-001
      outer loop
         vertex 1.360298e+000 -2.356105e+000 2.600000e+001
         vertex -4.997653e-016 -2.720595e+000 2.600000e+001
         vertex 1.423148e+000 -9.898214e+000 6.000000e+000
      endloop
   endfacet
   facet normal -6.637431e-001 -6.637431e-001 3.448046e-001
      outer loop
         vertex -1.360298e+000 -2.356105e+000 2.600000e+001
         vertex -2.356105e+000 -1.360298e+000 2.600000e+001
         vertex -6.548607e+000 -7.557496e+000 6.000000e+000
      endloop
   endfacet
   facet normal -9.063573e-001 2.428578e-001 3.457406e-001
      outer loop
         vertex -2.720595e+000 1.541364e-015 2.600000e+001
         vertex -2.356105e+000 1.360298e+000 2.600000e+001
         vertex -9.594930e+000 2.817326e+000 6.000000e+000
      endloop
   endfacet
   facet normal -2.431244e-001 9.073524e-001 3.429316e-001
      outer loop
         vertex -1.360298e+000 2.356105e+000 2.600000e+001
         vertex 1.665884e-016 2.720595e+000 2.600000e+001
         vertex -1.423148e+000 9.898214e+000 6.000000e+000
      endloop
   endfacet
   facet normal 6.637431e-001 6.637431e-001 3.448046e-001
      outer loop
         vertex 1.360298e+000 2.356105e+000 2.600000e+001
         vertex 2.356105e+000 1.360298e+000 2.600000e+001
         vertex 6.548607e+000 7.557496e+000 6.000000e+000
      endloop
   endfacet
   facet normal 9.063573e-001 2.428578e-001 3.457406e-001
      outer loop
         vertex 2.720595e+000 -3.331768e-016 2.600000e+001
         vertex 9.594930e+000 2.817326e+000 6.000000e+000
         vertex 2.356105e+000 1.360298e+000 2.600000e+001
      endloop
   endfacet
   facet normal 2.431244e-001 9.073524e-001 3.429316e-001
      outer loop
         vertex 1.360298e+000 2.356105e+000 2.600000e+001
         vertex 1.423148e+000 9.898214e+000 6.000000e+000
         vertex 1.665884e-016 2.720595e+000 2.600000e+001
      endloop
   endfacet
   facet normal -8.559985e-001 3.909213e-001 3.383003e-001
      outer loop
         vertex -2.356105e+000 1.360298e+000 2.600000e+001
         vertex -8.412536e+000 5.406408e+000 6.000000e+000
         vertex -9.594930e+000 2.817326e+000 6.000000e+000
      endloop
   endfacet
   facet normal -7.107713e-001 -6.158870e-001 3.398342e-001
      outer loop
         vertex -2.356105e+000 -1.360298e+000 2.600000e+001
         vertex -8.412536e+000 -5.406408e+000 6.000000e+000
         vertex -6.548607e+000 -7.557496e+000 6.000000e+000
      endloop
   endfacet
   facet normal 2.648486e-001 -9.019917e-001 3.409783e-001
      outer loop
         vertex 4.154150e+000 -9.096320e+000 6.000000e+000
         vertex 1.360298e+000 -2.356105e+000 2.600000e+001
         vertex 1.423148e+000 -9.898214e+000 6.000000e+000
      endloop
   endfacet
   facet normal 9.063573e-001 -2.428578e-001 3.457406e-001
      outer loop
         vertex 2.356105e+000 -1.360298e+000 2.600000e+001
         vertex 9.594930e+000 -2.817326e+000 6.000000e+000
         vertex 2.720595e+000 -3.331768e-016 2.600000e+001
      endloop
   endfacet
   facet normal 8.559985e-001 3.909213e-001 3.383003e-001
      outer loop
         vertex 2.356105e+000 1.360298e+000 2.600000e+001
         vertex 9.594930e+000 2.817326e+000 6.000000e+000
         vertex 8.412536e+000 5.406408e+000 6.000000e+000
      endloop
   endfacet
   facet normal 5.088385e-001 7.917680e-001 3.379153e-001
      outer loop
         vertex 6.548607e+000 7.557496e+000 6.000000e+000
         vertex 4.154150e+000 9.096320e+000 6.000000e+000
         vertex 1.360298e+000 2.356105e+000 2.600000e+001
      endloop
   endfacet
   facet normal -5.088385e-001 7.917680e-001 3.379153e-001
      outer loop
         vertex -4.154150e+000 9.096320e+000 6.000000e+000
         vertex -6.548607e+000 7.557496e+000 6.000000e+000
         vertex -1.360298e+000 2.356105e+000 2.600000e+001
      endloop
   endfacet
   facet normal -2.648486e-001 -9.019917e-001 3.409783e-001
      outer loop
         vertex -4.154150e+000 -9.096320e+000 6.000000e+000
         vertex -1.423148e+000 -9.898214e+000 6.000000e+000
         vertex -1.360298e+000 -2.356105e+000 2.600000e+001
      endloop
   endfacet
   facet normal 6.637431e-001 -6.637431e-001 3.448046e-001
      outer loop
         vertex 2.356105e+000 -1.360298e+000 2.600000e+001
         vertex 1.360298e+000 -2.356105e+000 2.600000e+001
         vertex 6.548607e+000 -7.557496e+000 6.000000e+000
      endloop
   endfacet
   facet normal -9.063573e-001 -2.428578e-001 3.457406e-001
      outer loop
         vertex -2.356105e+000 -1.360298e+000 2.600000e+001
         vertex -2.720595e+000 1.541364e-015 2.600000e+001
         vertex -9.594930e+000 -2.817326e+000 6.000000e+000
      endloop
   endfacet
   facet normal -6.637431e-001 6.637431e-001 3.448046e-001
      outer loop
         vertex -6.548607e+000 7.557496e+000 6.000000e+000
         vertex -2.356105e+000 1.360298e+000 2.600000e+001
         vertex -1.360298e+000 2.356105e+000 2.600000e+001
      endloop
   endfacet
   facet normal 7.107713e-001 -6.158870e-001 3.398342e-001
      outer loop
         vertex 8.412536e+000 -5.406408e+000 6.000000e+000
         vertex 2.356105e+000 -1.360298e+000 2.600000e+001
         vertex 6.548607e+000 -7.557496e+000 6.000000e+000
      endloop
   endfacet
   facet normal -2.431244e-001 -9.073524e-001 3.429316e-001
      outer loop
         vertex -1.360298e+000 -2.356105e+000 2.600000e+001
         vertex -1.423148e+000 -9.898214e+000 6.000000e+000
         vertex -4.997653e-016 -2.720595e+000 2.600000e+001
      endloop
   endfacet
   facet normal -0.000000e+000 9.412226e-001 3.377869e-001
      outer loop
         vertex 1.423148e+000 9.898214e+000 6.000000e+000
         vertex -1.423148e+000 9.898214e+000 6.000000e+000
         vertex 1.665884e-016 2.720595e+000 2.600000e+001
      endloop
   endfacet
   facet normal -9.312317e-001 -1.338909e-001 3.389406e-001
      outer loop
         vertex -2.720595e+000 1.541364e-015 2.600000e+001
         vertex -1.000000e+001 5.665539e-015 6.000000e+000
         vertex -9.594930e+000 -2.817326e+000 6.000000e+000
      endloop
   endfacet
   facet normal 0.000000e+000 0.000000e+000 1.000000e+000
      outer loop
         vertex 6.500000e+000 -1.125833e+001 6.000000e+000
         vertex 9.192389e+000 -9.192389e+000 6.000000e+000
         vertex 6.548607e+000 -7.557496e+000 6.000000e+000
      endloop
   endfacet
   facet normal 0.000000e+000 0.000000e+000 1.000000e+000
      outer loop
         vertex 1.806413e+001 -3.064129e+000 6.000000e+000
         vertex 1.900348e+001 -1.658295e+000 6.000000e+000
         vertex 1.660000e+001 -2.771281e+000 6.000000e+000
      endloop
   endfacet
   facet normal 0.000000e+000 0.000000e+000 1.000000e+000
      outer loop
         vertex 1.933333e+001 -7.488078e-015 6.000000e+000
         vertex 1.900348e+001 1.658295e+000 6.000000e+000
         vertex 1.820000e+001 0.000000e+000 6.000000e+000
      endloop
   endfacet
   facet normal 0.000000e+000 0.000000e+000 1.000000e+000
      outer loop
         vertex 1.806413e+001 3.064129e+000 6.000000e+000
         vertex 9.192389e+000 9.192389e+000 6.000000e+000
         vertex 1.660000e+001 2.771281e+000 6.000000e+000
      endloop
   endfacet
   facet normal 0.000000e+000 0.000000e+000 1.000000e+000
      outer loop
         vertex 6.500000e+000 1.125833e+001 6.000000e+000
         vertex 3.364648e+000 1.255704e+001 6.000000e+000
         vertex 4.154150e+000 9.096320e+000 6.000000e+000
      endloop
   endfacet
   facet normal -0.000000e+000 0.000000e+000 1.000000e+000
      outer loop
         vertex 1.730278e-015 1.300000e+001 6.000000e+000
         vertex -3.364648e+000 1.255704e+001 6.000000e+000
         vertex -1.423148e+000 9.898214e+000 6.000000e+000
      endloop
   endfacet
   facet normal -0.000000e+000 0.000000e+000 1.000000e+000
      outer loop
         vertex -6.500000e+000 1.125833e+001 6.000000e+000
         vertex -9.192389e+000 9.192389e+000 6.000000e+000
         vertex -6.548607e+000 7.557496e+000 6.000000e+000
      endloop
   endfacet
   facet normal 0.000000e+000 0.000000e+000 1.000000e+000
      outer loop
         vertex -1.806413e+001 3.064129e+000 6.000000e+000
         vertex -1.900348e+001 1.658295e+000 6.000000e+000
         vertex -1.660000e+001 2.771281e+000 6.000000e+000
      endloop
   endfacet
   facet normal 0.000000e+000 -0.000000e+000 1.000000e+000
      outer loop
         vertex -1.933333e+001 -9.208563e-015 6.000000e+000
         vertex -1.900348e+001 -1.658295e+000 6.000000e+000
         vertex -1.820000e+001 0.000000e+000 6.000000e+000
      endloop
   endfacet
   facet normal 0.000000e+000 0.000000e+000 1.000000e+000
      outer loop
         vertex -1.806413e+001 -3.064129e+000 6.000000e+000
         vertex -9.192389e+000 -9.192389e+000 6.000000e+000
         vertex -1.660000e+001 -2.771281e+000 6.000000e+000
      endloop
   endfacet
   facet normal 0.000000e+000 0.000000e+000 1.000000e+000
      outer loop
         vertex -6.500000e+000 -1.125833e+001 6.000000e+000
         vertex -3.364648e+000 -1.255704e+001 6.000000e+000
         vertex -4.154150e+000 -9.096320e+000 6.000000e+000
      endloop
   endfacet
   facet normal 0.000000e+000 0.000000e+000 1.000000e+000
      outer loop
         vertex -2.526298e-015 -1.300000e+001 6.000000e+000
         vertex 3.364648e+000 -1.255704e+001 6.000000e+000
         vertex 1.423148e+000 -9.898214e+000 6.000000e+000
      endloop
   endfacet
   facet normal 0.000000e+000 -0.000000e+000 1.000000e+000
      outer loop
         vertex 9.594930e+000 2.817326e+000 6.000000e+000
         vertex 1.000000e+001 -1.224647e-015 6.000000e+000
         vertex 1.180000e+001 0.000000e+000 6.000000e+000
      endloop
   endfacet
   facet normal 0.000000e+000 0.000000e+000 1.000000e+000
      outer loop
         vertex 9.594930e+000 -2.817326e+000 6.000000e+000
         vertex 8.412536e+000 -5.406408e+000 6.000000e+000
         vertex 1.340000e+001 -2.771281e+000 6.000000e+000
      endloop
   endfacet
   facet normal -0.000000e+000 0.000000e+000 1.000000e+000
      outer loop
         vertex 6.548607e+000 -7.557496e+000 6.000000e+000
         vertex 4.154150e+000 -9.096320e+000 6.000000e+000
         vertex 6.500000e+000 -1.125833e+001 6.000000e+000
      endloop
   endfacet
   facet normal -0.000000e+000 0.000000e+000 1.000000e+000
      outer loop
         vertex 1.423148e+000 -9.898214e+000 6.000000e+000
         vertex -1.423148e+000 -9.898214e+000 6.000000e+000
         vertex -2.526298e-015 -1.300000e+001 6.000000e+000
      endloop
   endfacet
   facet normal 0.000000e+000 0.000000e+000 1.000000e+000
      outer loop
         vertex -4.154150e+000 -9.096320e+000 6.000000e+000
         vertex -6.548607e+000 -7.557496e+000 6.000000e+000
         vertex -6.500000e+000 -1.125833e+001 6.000000e+000
      endloop
   endfacet
   facet normal 0.000000e+000 0.000000e+000 1.000000e+000
      outer loop
         vertex -8.412536e+000 -5.406408e+000 6.000000e+000
         vertex -9.594930e+000 -2.817326e+000 6.000000e+000
         vertex -1.340000e+001 -2.771281e+000 6.000000e+000
      endloop
   endfacet
   facet normal 0.000000e+000 0.000000e+000 1.000000e+000
      outer loop
         vertex -1.000000e+001 5.665539e-015 6.000000e+000
         vertex -9.594930e+000 2.817326e+000 6.000000e+000
         vertex -1.180000e+001 0.000000e+000 6.000000e+000
      endloop
   endfacet
   facet normal 0.000000e+000 0.000000e+000 1.000000e+000
      outer loop
         vertex -8.412536e+000 5.406408e+000 6.000000e+000
         vertex -6.548607e+000 7.557496e+000 6.000000e+000
         vertex -9.192389e+000 9.192389e+000 6.000000e+000
      endloop
   endfacet
   facet normal 0.000000e+000 0.000000e+000 1.000000e+000
      outer loop
         vertex -4.154150e+000 9.096320e+000 6.000000e+000
         vertex -1.423148e+000 9.898214e+000 6.000000e+000
         vertex -3.364648e+000 1.255704e+001 6.000000e+000
      endloop
   endfacet
   facet normal 0.000000e+000 0.000000e+000 1.000000e+000
      outer loop
         vertex 1.423148e+000 9.898214e+000 6.000000e+000
         vertex 4.154150e+000 9.096320e+000 6.000000e+000
         vertex 3.364648e+000 1.255704e+001 6.000000e+000
      endloop
   endfacet
   facet normal 0.000000e+000 -0.000000e+000 1.000000e+000
      outer loop
         vertex 6.548607e+000 7.557496e+000 6.000000e+000
         vertex 8.412536e+000 5.406408e+000 6.000000e+000
         vertex 9.192389e+000 9.192389e+000 6.000000e+000
      endloop
   endfacet
   facet normal 0.000000e+000 -0.000000e+000 1.000000e+000
      outer loop
         vertex 1.660000e+001 2.771281e+000 6.000000e+000
         vertex 1.820000e+001 0.000000e+000 6.000000e+000
         vertex 1.900348e+001 1.658295e+000 6.000000e+000
      endloop
   endfacet
   facet normal -0.000000e+000 0.000000e+000 1.000000e+000
      outer loop
         vertex 1.660000e+001 -2.771281e+000 6.000000e+000
         vertex 1.340000e+001 -2.771281e+000 6.000000e+000
         vertex 9.192389e+000 -9.192389e+000 6.000000e+000
      endloop
   endfacet
   facet normal 0.000000e+000 0.000000e+000 1.000000e+000
      outer loop
         vertex 1.180000e+001 0.000000e+000 6.000000e+000
         vertex 1.340000e+001 2.771281e+000 6.000000e+000
         vertex 9.594930e+000 2.817326e+000 6.000000e+000
      endloop
   endfacet
   facet normal 0.000000e+000 -0.000000e+000 1.000000e+000
      outer loop
         vertex -1.340000e+001 2.771281e+000 6.000000e+000
         vertex -1.180000e+001 0.000000e+000 6.000000e+000
         vertex -9.594930e+000 2.817326e+000 6.000000e+000
      endloop
   endfacet
   facet normal -0.000000e+000 0.000000e+000 1.000000e+000
      outer loop
         vertex -1.340000e+001 -2.771281e+000 6.000000e+000
         vertex -1.660000e+001 -2.771281e+000 6.000000e+000
         vertex -9.192389e+000 -9.192389e+000 6.000000e+000
      endloop
   endfacet
   facet normal 0.000000e+000 0.000000e+000 1.000000e+000
      outer loop
         vertex -1.820000e+001 0.000000e+000 6.000000e+000
         vertex -1.660000e+001 2.771281e+000 6.000000e+000
         vertex -1.900348e+001 1.658295e+000 6.000000e+000
      endloop
   endfacet
   facet normal 0.000000e+000 0.000000e+000 1.000000e+000
      outer loop
         vertex 6.548607e+000 -7.557496e+000 6.000000e+000
         vertex 9.192389e+000 -9.192389e+000 6.000000e+000
         vertex 8.412536e+000 -5.406408e+000 6.000000e+000
      endloop
   endfacet
   facet normal 0.000000e+000 0.000000e+000 1.000000e+000
      outer loop
         vertex 1.933333e+001 -7.488078e-015 6.000000e+000
         vertex 1.820000e+001 0.000000e+000 6.000000e+000
         vertex 1.900348e+001 -1.658295e+000 6.000000e+000
      endloop
   endfacet
   facet normal -0.000000e+000 0.000000e+000 1.000000e+000
      outer loop
         vertex 6.500000e+000 1.125833e+001 6.000000e+000
         vertex 4.154150e+000 9.096320e+000 6.000000e+000
         vertex 6.548607e+000 7.557496e+000 6.000000e+000
      endloop
   endfacet
   facet normal 0.000000e+000 -0.000000e+000 1.000000e+000
      outer loop
         vertex -1.806413e+001 3.064129e+000 6.000000e+000
         vertex -1.660000e+001 2.771281e+000 6.000000e+000
         vertex -9.192389e+000 9.192389e+000 6.000000e+000
      endloop
   endfacet
   facet normal 0.000000e+000 0.000000e+000 1.000000e+000
      outer loop
         vertex -1.806413e+001 -3.064129e+000 6.000000e+000
         vertex -1.660000e+001 -2.771281e+000 6.000000e+000
         vertex -1.900348e+001 -1.658295e+000 6.000000e+000
      endloop
   endfacet
   facet normal -0.000000e+000 0.000000e+000 1.000000e+000
      outer loop
         vertex 1.180000e+001 0.000000e+000 6.000000e+000
         vertex 1.000000e+001 -1.224647e-015 6.000000e+000
         vertex 9.594930e+000 -2.817326e+000 6.000000e+000
      endloop
   endfacet
   facet normal 0.000000e+000 0.000000e+000 1.000000e+000
      outer loop
         vertex 6.500000e+000 -1.125833e+001 6.000000e+000
         vertex 4.154150e+000 -9.096320e+000 6.000000e+000
         vertex 3.364648e+000 -1.255704e+001 6.000000e+000
      endloop
   endfacet
   facet normal 0.000000e+000 0.000000e+000 1.000000e+000
      outer loop
         vertex -8.412536e+000 -5.406408e+000 6.000000e+000
         vertex -1.340000e+001 -2.771281e+000 6.000000e+000
         vertex -9.192389e+000 -9.192389e+000 6.000000e+000
      endloop
   endfacet
   facet normal -0.000000e+000 0.000000e+000 1.000000e+000
      outer loop
         vertex -1.000000e+001 5.665539e-015 6.000000e+000
         vertex -1.180000e+001 0.000000e+000 6.000000e+000
         vertex -9.594930e+000 -2.817326e+000 6.000000e+000
      endloop
   endfacet
   facet normal 0.000000e+000 0.000000e+000 1.000000e+000
      outer loop
         vertex 1.423148e+000 9.898214e+000 6.000000e+000
         vertex 3.364648e+000 1.255704e+001 6.000000e+000
         vertex 1.730278e-015 1.300000e+001 6.000000e+000
      endloop
   endfacet
   facet normal 0.000000e+000 0.000000e+000 1.000000e+000
      outer loop
         vertex 1.660000e+001 2.771281e+000 6.000000e+000
         vertex 1.900348e+001 1.658295e+000 6.000000e+000
         vertex 1.806413e+001 3.064129e+000 6.000000e+000
      endloop
   endfacet
   facet normal 0.000000e+000 -0.000000e+000 1.000000e+000
      outer loop
         vertex -1.340000e+001 2.771281e+000 6.000000e+000
         vertex -9.594930e+000 2.817326e+000 6.000000e+000
         vertex -8.412536e+000 5.406408e+000 6.000000e+000
      endloop
   endfacet
   facet normal 0.000000e+000 0.000000e+000 1.000000e+000
      outer loop
         vertex 1.900348e+001 -1.658295e+000 6.000000e+000
         vertex 1.820000e+001 0.000000e+000 6.000000e+000
         vertex 1.660000e+001 -2.771281e+000 6.000000e+000
      endloop
   endfacet
   facet normal 0.000000e+000 0.000000e+000 1.000000e+000
      outer loop
         vertex 1.180000e+001 0.000000e+000 6.000000e+000
         vertex 9.594930e+000 -2.817326e+000 6.000000e+000
         vertex 1.340000e+001 -2.771281e+000 6.000000e+000
      endloop
   endfacet
   facet normal 0.000000e+000 0.000000e+000 1.000000e+000
      outer loop
         vertex 1.423148e+000 9.898214e+000 6.000000e+000
         vertex 1.730278e-015 1.300000e+001 6.000000e+000
         vertex -1.423148e+000 9.898214e+000 6.000000e+000
      endloop
   endfacet
   facet normal 0.000000e+000 0.000000e+000 1.000000e+000
      outer loop
         vertex 9.192389e+000 -9.192389e+000 6.000000e+000
         vertex 1.806413e+001 -3.064129e+000 6.000000e+000
         vertex 1.660000e+001 -2.771281e+000 6.000000e+000
      endloop
   endfacet
   facet normal -0.000000e+000 0.000000e+000 1.000000e+000
      outer loop
         vertex -3.364648e+000 1.255704e+001 6.000000e+000
         vertex -6.500000e+000 1.125833e+001 6.000000e+000
         vertex -4.154150e+000 9.096320e+000 6.000000e+000
      endloop
   endfacet
   facet normal 0.000000e+000 0.000000e+000 1.000000e+000
      outer loop
         vertex -9.192389e+000 -9.192389e+000 6.000000e+000
         vertex -6.500000e+000 -1.125833e+001 6.000000e+000
         vertex -6.548607e+000 -7.557496e+000 6.000000e+000
      endloop
   endfacet
   facet normal -0.000000e+000 0.000000e+000 1.000000e+000
      outer loop
         vertex 4.154150e+000 -9.096320e+000 6.000000e+000
         vertex 1.423148e+000 -9.898214e+000 6.000000e+000
         vertex 3.364648e+000 -1.255704e+001 6.000000e+000
      endloop
   endfacet
   facet normal 0.000000e+000 0.000000e+000 1.000000e+000
      outer loop
         vertex -6.548607e+000 -7.557496e+000 6.000000e+000
         vertex -8.412536e+000 -5.406408e+000 6.000000e+000
         vertex -9.192389e+000 -9.192389e+000 6.000000e+000
      endloop
   endfacet
   facet normal -0.000000e+000 -0.000000e+000 1.000000e+000
      outer loop
         vertex 8.412536e+000 5.406408e+000 6.000000e+000
         vertex 9.594930e+000 2.817326e+000 6.000000e+000
         vertex 1.340000e+001 2.771281e+000 6.000000e+000
      endloop
   endfacet
   facet normal -0.000000e+000 0.000000e+000 1.000000e+000
      outer loop
         vertex -1.180000e+001 0.000000e+000 6.000000e+000
         vertex -1.340000e+001 -2.771281e+000 6.000000e+000
         vertex -9.594930e+000 -2.817326e+000 6.000000e+000
      endloop
   endfacet
   facet normal 0.000000e+000 -0.000000e+000 1.000000e+000
      outer loop
         vertex -1.660000e+001 2.771281e+000 6.000000e+000
         vertex -1.340000e+001 2.771281e+000 6.000000e+000
         vertex -9.192389e+000 9.192389e+000 6.000000e+000
      endloop
   endfacet
   facet normal 0.000000e+000 0.000000e+000 1.000000e+000
      outer loop
         vertex -6.500000e+000 1.125833e+001 6.000000e+000
         vertex -6.548607e+000 7.557496e+000 6.000000e+000
         vertex -4.154150e+000 9.096320e+000 6.000000e+000
      endloop
   endfacet
   facet normal 0.000000e+000 -0.000000e+000 1.000000e+000
      outer loop
         vertex -4.154150e+000 -9.096320e+000 6.000000e+000
         vertex -3.364648e+000 -1.255704e+001 6.000000e+000
         vertex -1.423148e+000 -9.898214e+000 6.000000e+000
      endloop
   endfacet
   facet normal 0.000000e+000 0.000000e+000 1.000000e+000
      outer loop
         vertex -8.412536e+000 5.406408e+000 6.000000e+000
         vertex -9.192389e+000 9.192389e+000 6.000000e+000
         vertex -1.340000e+001 2.771281e+000 6.000000e+000
      endloop
   endfacet
   facet normal -0.000000e+000 0.000000e+000 1.000000e+000
      outer loop
         vertex 9.192389e+000 9.192389e+000 6.000000e+000
         vertex 8.412536e+000 5.406408e+000 6.000000e+000
         vertex 1.340000e+001 2.771281e+000 6.000000e+000
      endloop
   endfacet
   facet normal 0.000000e+000 0.000000e+000 1.000000e+000
      outer loop
         vertex -1.820000e+001 0.000000e+000 6.000000e+000
         vertex -1.900348e+001 1.658295e+000 6.000000e+000
         vertex -1.933333e+001 -9.208563e-015 6.000000e+000
      endloop
   endfacet
   facet normal -0.000000e+000 0.000000e+000 1.000000e+000
      outer loop
         vertex -1.423148e+000 -9.898214e+000 6.000000e+000
         vertex -3.364648e+000 -1.255704e+001 6.000000e+000
         vertex -2.526298e-015 -1.300000e+001 6.000000e+000
      endloop
   endfacet
   facet normal 0.000000e+000 0.000000e+000 1.000000e+000
      outer loop
         vertex 9.192389e+000 9.192389e+000 6.000000e+000
         vertex 6.500000e+000 1.125833e+001 6.000000e+000
         vertex 6.548607e+000 7.557496e+000 6.000000e+000
      endloop
   endfacet
   facet normal 0.000000e+000 0.000000e+000 1.000000e+000
      outer loop
         vertex -1.660000e+001 -2.771281e+000 6.000000e+000
         vertex -1.820000e+001 0.000000e+000 6.000000e+000
         vertex -1.900348e+001 -1.658295e+000 6.000000e+000
      endloop
   endfacet
   facet normal -0.000000e+000 0.000000e+000 1.000000e+000
      outer loop
         vertex 1.340000e+001 -2.771281e+000 6.000000e+000
         vertex 8.412536e+000 -5.406408e+000 6.000000e+000
         vertex 9.192389e+000 -9.192389e+000 6.000000e+000
      endloop
   endfacet
   facet normal 0.000000e+000 0.000000e+000 1.000000e+000
      outer loop
         vertex 1.340000e+001 2.771281e+000 6.000000e+000
         vertex 1.660000e+001 2.771281e+000 6.000000e+000
         vertex 9.192389e+000 9.192389e+000 6.000000e+000
      endloop
   endfacet
   facet normal 0.000000e+000 0.000000e+000 1.000000e+000
      outer loop
         vertex 1.340000e+001 -2.771281e+000 3.000000e+000
         vertex 1.660000e+001 -2.771281e+000 3.000000e+000
         vertex 1.561803e+001 -1.902113e+000 3.000000e+000
      endloop
   endfacet
   facet normal 0.000000e+000 0.000000e+000 1.000000e+000
      outer loop
         vertex 1.820000e+001 0.000000e+000 3.000000e+000
         vertex 1.660000e+001 2.771281e+000 3.000000e+000
         vertex 1.661803e+001 1.175570e+000 3.000000e+000
      endloop
   endfacet
   facet normal 0.000000e+000 0.000000e+000 1.000000e+000
      outer loop
         vertex 1.340000e+001 2.771281e+000 3.000000e+000
         vertex 1.180000e+001 0.000000e+000 3.000000e+000
         vertex 1.338197e+001 1.175570e+000 3.000000e+000
      endloop
   endfacet
   facet normal 0.000000e+000 -0.000000e+000 1.000000e+000
      outer loop
         vertex 1.661803e+001 1.175570e+000 3.000000e+000
         vertex 1.700000e+001 -2.449294e-016 3.000000e+000
         vertex 1.820000e+001 0.000000e+000 3.000000e+000
      endloop
   endfacet
   facet normal -0.000000e+000 0.000000e+000 1.000000e+000
      outer loop
         vertex 1.661803e+001 -1.175570e+000 3.000000e+000
         vertex 1.561803e+001 -1.902113e+000 3.000000e+000
         vertex 1.660000e+001 -2.771281e+000 3.000000e+000
      endloop
   endfacet
   facet normal 0.000000e+000 0.000000e+000 1.000000e+000
      outer loop
         vertex 1.438197e+001 -1.902113e+000 3.000000e+000
         vertex 1.338197e+001 -1.175570e+000 3.000000e+000
         vertex 1.340000e+001 -2.771281e+000 3.000000e+000
      endloop
   endfacet
   facet normal 0.000000e+000 0.000000e+000 1.000000e+000
      outer loop
         vertex 1.300000e+001 2.449294e-016 3.000000e+000
         vertex 1.338197e+001 1.175570e+000 3.000000e+000
         vertex 1.180000e+001 0.000000e+000 3.000000e+000
      endloop
   endfacet
   facet normal 0.000000e+000 0.000000e+000 1.000000e+000
      outer loop
         vertex 1.438197e+001 1.902113e+000 3.000000e+000
         vertex 1.561803e+001 1.902113e+000 3.000000e+000
         vertex 1.340000e+001 2.771281e+000 3.000000e+000
      endloop
   endfacet
   facet normal 0.000000e+000 0.000000e+000 1.000000e+000
      outer loop
         vertex 1.340000e+001 -2.771281e+000 3.000000e+000
         vertex 1.561803e+001 -1.902113e+000 3.000000e+000
         vertex 1.438197e+001 -1.902113e+000 3.000000e+000
      endloop
   endfacet
   facet normal -0.000000e+000 0.000000e+000 1.000000e+000
      outer loop
         vertex 1.820000e+001 0.000000e+000 3.000000e+000
         vertex 1.700000e+001 -2.449294e-016 3.000000e+000
         vertex 1.661803e+001 -1.175570e+000 3.000000e+000
      endloop
   endfacet
   facet normal -0.000000e+000 0.000000e+000 1.000000e+000
      outer loop
         vertex 1.300000e+001 2.449294e-016 3.000000e+000
         vertex 1.180000e+001 0.000000e+000 3.000000e+000
         vertex 1.338197e+001 -1.175570e+000 3.000000e+000
      endloop
   endfacet
   facet normal -0.000000e+000 0.000000e+000 1.000000e+000
      outer loop
         vertex 1.820000e+001 0.000000e+000 3.000000e+000
         vertex 1.661803e+001 -1.175570e+000 3.000000e+000
         vertex 1.660000e+001 -2.771281e+000 3.000000e+000
      endloop
   endfacet
   facet normal -0.000000e+000 0.000000e+000 1.000000e+000
      outer loop
         vertex 1.660000e+001 2.771281e+000 3.000000e+000
         vertex 1.340000e+001 2.771281e+000 3.000000e+000
         vertex 1.561803e+001 1.902113e+000 3.000000e+000
      endloop
   endfacet
   facet normal 0.000000e+000 0.000000e+000 1.000000e+000
      outer loop
         vertex 1.338197e+001 1.175570e+000 3.000000e+000
         vertex 1.438197e+001 1.902113e+000 3.000000e+000
         vertex 1.340000e+001 2.771281e+000 3.000000e+000
      endloop
   endfacet
   facet normal 0.000000e+000 0.000000e+000 1.000000e+000
      outer loop
         vertex 1.661803e+001 1.175570e+000 3.000000e+000
         vertex 1.660000e+001 2.771281e+000 3.000000e+000
         vertex 1.561803e+001 1.902113e+000 3.000000e+000
      endloop
   endfacet
   facet normal 0.000000e+000 0.000000e+000 1.000000e+000
      outer loop
         vertex 1.180000e+001 0.000000e+000 3.000000e+000
         vertex 1.340000e+001 -2.771281e+000 3.000000e+000
         vertex 1.338197e+001 -1.175570e+000 3.000000e+000
      endloop
   endfacet
   facet normal 0.000000e+000 0.000000e+000 1.000000e+000
      outer loop
         vertex -1.660000e+001 -2.771281e+000 3.000000e+000
         vertex -1.340000e+001 -2.771281e+000 3.000000e+000
         vertex -1.438197e+001 -1.902113e+000 3.000000e+000
      endloop
   endfacet
   facet normal 0.000000e+000 0.000000e+000 1.000000e+000
      outer loop
         vertex -1.180000e+001 0.000000e+000 3.000000e+000
         vertex -1.340000e+001 2.771281e+000 3.000000e+000
         vertex -1.338197e+001 1.175570e+000 3.000000e+000
      endloop
   endfacet
   facet normal 0.000000e+000 0.000000e+000 1.000000e+000
      outer loop
         vertex -1.660000e+001 2.771281e+000 3.000000e+000
         vertex -1.820000e+001 0.000000e+000 3.000000e+000
         vertex -1.661803e+001 1.175570e+000 3.000000e+000
      endloop
   endfacet
   facet normal 0.000000e+000 -0.000000e+000 1.000000e+000
      outer loop
         vertex -1.338197e+001 1.175570e+000 3.000000e+000
         vertex -1.300000e+001 -2.449294e-016 3.000000e+000
         vertex -1.180000e+001 0.000000e+000 3.000000e+000
      endloop
   endfacet
   facet normal -0.000000e+000 0.000000e+000 1.000000e+000
      outer loop
         vertex -1.338197e+001 -1.175570e+000 3.000000e+000
         vertex -1.438197e+001 -1.902113e+000 3.000000e+000
         vertex -1.340000e+001 -2.771281e+000 3.000000e+000
      endloop
   endfacet
   facet normal 0.000000e+000 0.000000e+000 1.000000e+000
      outer loop
         vertex -1.561803e+001 -1.902113e+000 3.000000e+000
         vertex -1.661803e+001 -1.175570e+000 3.000000e+000
         vertex -1.660000e+001 -2.771281e+000 3.000000e+000
      endloop
   endfacet
   facet normal 0.000000e+000 0.000000e+000 1.000000e+000
      outer loop
         vertex -1.700000e+001 2.449294e-016 3.000000e+000
         vertex -1.661803e+001 1.175570e+000 3.000000e+000
         vertex -1.820000e+001 0.000000e+000 3.000000e+000
      endloop
   endfacet
   facet normal 0.000000e+000 0.000000e+000 1.000000e+000
      outer loop
         vertex -1.561803e+001 1.902113e+000 3.000000e+000
         vertex -1.438197e+001 1.902113e+000 3.000000e+000
         vertex -1.660000e+001 2.771281e+000 3.000000e+000
      endloop
   endfacet
   facet normal 0.000000e+000 0.000000e+000 1.000000e+000
      outer loop
         vertex -1.660000e+001 -2.771281e+000 3.000000e+000
         vertex -1.438197e+001 -1.902113e+000 3.000000e+000
         vertex -1.561803e+001 -1.902113e+000 3.000000e+000
      endloop
   endfacet
   facet normal -0.000000e+000 0.000000e+000 1.000000e+000
      outer loop
         vertex -1.180000e+001 0.000000e+000 3.000000e+000
         vertex -1.300000e+001 -2.449294e-016 3.000000e+000
         vertex -1.338197e+001 -1.175570e+000 3.000000e+000
      endloop
   endfacet
   facet normal -0.000000e+000 0.000000e+000 1.000000e+000
      outer loop
         vertex -1.700000e+001 2.449294e-016 3.000000e+000
         vertex -1.820000e+001 0.000000e+000 3.000000e+000
         vertex -1.661803e+001 -1.175570e+000 3.000000e+000
      endloop
   endfacet
   facet normal -0.000000e+000 0.000000e+000 1.000000e+000
      outer loop
         vertex -1.180000e+001 0.000000e+000 3.000000e+000
         vertex -1.338197e+001 -1.175570e+000 3.000000e+000
         vertex -1.340000e+001 -2.771281e+000 3.000000e+000
      endloop
   endfacet
   facet normal -0.000000e+000 0.000000e+000 1.000000e+000
      outer loop
         vertex -1.340000e+001 2.771281e+000 3.000000e+000
         vertex -1.660000e+001 2.771281e+000 3.000000e+000
         vertex -1.438197e+001 1.902113e+000 3.000000e+000
      endloop
   endfacet
   facet normal 0.000000e+000 0.000000e+000 1.000000e+000
      outer loop
         vertex -1.661803e+001 1.175570e+000 3.000000e+000
         vertex -1.561803e+001 1.902113e+000 3.000000e+000
         vertex -1.660000e+001 2.771281e+000 3.000000e+000
      endloop
   endfacet
   facet normal 0.000000e+000 0.000000e+000 1.000000e+000
      outer loop
         vertex -1.338197e+001 1.175570e+000 3.000000e+000
         vertex -1.340000e+001 2.771281e+000 3.000000e+000
         vertex -1.438197e+001 1.902113e+000 3.000000e+000
      endloop
   endfacet
   facet normal 0.000000e+000 0.000000e+000 1.000000e+000
      outer loop
         vertex -1.820000e+001 0.000000e+000 3.000000e+000
         vertex -1.660000e+001 -2.771281e+000 3.000000e+000
         vertex -1.661803e+001 -1.175570e+000 3.000000e+000
      endloop
   endfacet
   facet normal -8.660253e-001 5.000001e-001 0.000000e+000
      outer loop
         vertex 1.820000e+001 0.000000e+000 3.000000e+000
         vertex 1.660000e+001 -2.771281e+000 3.000000e+000
         vertex 1.660000e+001 -2.771281e+000 6.000000e+000
      endloop
   endfacet
   facet normal -8.660253e-001 5.000001e-001 0.000000e+000
      outer loop
         vertex 1.820000e+001 0.000000e+000 3.000000e+000
         vertex 1.660000e+001 -2.771281e+000 6.000000e+000
         vertex 1.820000e+001 0.000000e+000 6.000000e+000
      endloop
   endfacet
   facet normal 0.000000e+000 1.000000e+000 0.000000e+000
      outer loop
         vertex 1.660000e+001 -2.771281e+000 3.000000e+000
         vertex 1.340000e+001 -2.771281e+000 3.000000e+000
         vertex 1.340000e+001 -2.771281e+000 6.000000e+000
      endloop
   endfacet
   facet normal -0.000000e+000 1.000000e+000 0.000000e+000
      outer loop
         vertex 1.660000e+001 -2.771281e+000 3.000000e+000
         vertex 1.340000e+001 -2.771281e+000 6.000000e+000
         vertex 1.660000e+001 -2.771281e+000 6.000000e+000
      endloop
   endfacet
   facet normal 8.660255e-001 4.999999e-001 -0.000000e+000
      outer loop
         vertex 1.340000e+001 -2.771281e+000 3.000000e+000
         vertex 1.180000e+001 0.000000e+000 3.000000e+000
         vertex 1.180000e+001 0.000000e+000 6.000000e+000
      endloop
   endfacet
   facet normal 8.660255e-001 4.999999e-001 0.000000e+000
      outer loop
         vertex 1.340000e+001 -2.771281e+000 3.000000e+000
         vertex 1.180000e+001 0.000000e+000 6.000000e+000
         vertex 1.340000e+001 -2.771281e+000 6.000000e+000
      endloop
   endfacet
   facet normal 8.660255e-001 -4.999999e-001 0.000000e+000
      outer loop
         vertex 1.180000e+001 0.000000e+000 3.000000e+000
         vertex 1.340000e+001 2.771281e+000 3.000000e+000
         vertex 1.340000e+001 2.771281e+000 6.000000e+000
      endloop
   endfacet
   facet normal 8.660255e-001 -4.999999e-001 0.000000e+000
      outer loop
         vertex 1.180000e+001 0.000000e+000 3.000000e+000
         vertex 1.340000e+001 2.771281e+000 6.000000e+000
         vertex 1.180000e+001 0.000000e+000 6.000000e+000
      endloop
   endfacet
   facet normal 0.000000e+000 -1.000000e+000 0.000000e+000
      outer loop
         vertex 1.340000e+001 2.771281e+000 3.000000e+000
         vertex 1.660000e+001 2.771281e+000 3.000000e+000
         vertex 1.660000e+001 2.771281e+000 6.000000e+000
      endloop
   endfacet
   facet normal -0.000000e+000 -1.000000e+000 0.000000e+000
      outer loop
         vertex 1.340000e+001 2.771281e+000 3.000000e+000
         vertex 1.660000e+001 2.771281e+000 6.000000e+000
         vertex 1.340000e+001 2.771281e+000 6.000000e+000
      endloop
   endfacet
   facet normal -8.660253e-001 -5.000001e-001 0.000000e+000
      outer loop
         vertex 1.660000e+001 2.771281e+000 3.000000e+000
         vertex 1.820000e+001 0.000000e+000 3.000000e+000
         vertex 1.820000e+001 0.000000e+000 6.000000e+000
      endloop
   endfacet
   facet normal -8.660253e-001 -5.000001e-001 0.000000e+000
      outer loop
         vertex 1.660000e+001 2.771281e+000 3.000000e+000
         vertex 1.820000e+001 0.000000e+000 6.000000e+000
         vertex 1.660000e+001 2.771281e+000 6.000000e+000
      endloop
   endfacet
   facet normal -8.660255e-001 4.999999e-001 0.000000e+000
      outer loop
         vertex -1.180000e+001 0.000000e+000 3.000000e+000
         vertex -1.340000e+001 -2.771281e+000 3.000000e+000
         vertex -1.340000e+001 -2.771281e+000 6.000000e+000
      endloop
   endfacet
   facet normal -8.660255e-001 4.999999e-001 0.000000e+000
      outer loop
         vertex -1.180000e+001 0.000000e+000 3.000000e+000
         vertex -1.340000e+001 -2.771281e+000 6.000000e+000
         vertex -1.180000e+001 0.000000e+000 6.000000e+000
      endloop
   endfacet
   facet normal 0.000000e+000 1.000000e+000 0.000000e+000
      outer loop
         vertex -1.340000e+001 -2.771281e+000 3.000000e+000
         vertex -1.660000e+001 -2.771281e+000 3.000000e+000
         vertex -1.660000e+001 -2.771281e+000 6.000000e+000
      endloop
   endfacet
   facet normal -0.000000e+000 1.000000e+000 0.000000e+000
      outer loop
         vertex -1.340000e+001 -2.771281e+000 3.000000e+000
         vertex -1.660000e+001 -2.771281e+000 6.000000e+000
         vertex -1.340000e+001 -2.771281e+000 6.000000e+000
      endloop
   endfacet
   facet normal 8.660253e-001 5.000001e-001 -0.000000e+000
      outer loop
         vertex -1.660000e+001 -2.771281e+000 3.000000e+000
         vertex -1.820000e+001 0.000000e+000 3.000000e+000
         vertex -1.820000e+001 0.000000e+000 6.000000e+000
      endloop
   endfacet
   facet normal 8.660253e-001 5.000001e-001 0.000000e+000
      outer loop
         vertex -1.660000e+001 -2.771281e+000 3.000000e+000
         vertex -1.820000e+001 0.000000e+000 6.000000e+000
         vertex -1.660000e+001 -2.771281e+000 6.000000e+000
      endloop
   endfacet
   facet normal 8.660253e-001 -5.000001e-001 0.000000e+000
      outer loop
         vertex -1.820000e+001 0.000000e+000 3.000000e+000
         vertex -1.660000e+001 2.771281e+000 3.000000e+000
         vertex -1.660000e+001 2.771281e+000 6.000000e+000
      endloop
   endfacet
   facet normal 8.660253e-001 -5.000001e-001 0.000000e+000
      outer loop
         vertex -1.820000e+001 0.000000e+000 3.000000e+000
         vertex -1.660000e+001 2.771281e+000 6.000000e+000
         vertex -1.820000e+001 0.000000e+000 6.000000e+000
      endloop
   endfacet
   facet normal 0.000000e+000 -1.000000e+000 0.000000e+000
      outer loop
         vertex -1.660000e+001 2.771281e+000 3.000000e+000
         vertex -1.340000e+001 2.771281e+000 3.000000e+000
         vertex -1.340000e+001 2.771281e+000 6.000000e+000
      endloop
   endfacet
   facet normal -0.000000e+000 -1.000000e+000 0.000000e+000
      outer loop
         vertex -1.660000e+001 2.771281e+000 3.000000e+000
         vertex -1.340000e+001 2.771281e+000 6.000000e+000
         vertex -1.660000e+001 2.771281e+000 6.000000e+000
      endloop
   endfacet
   facet normal -8.660255e-001 -4.999999e-001 0.000000e+000
      outer loop
         vertex -1.340000e+001 2.771281e+000 3.000000e+000
         vertex -1.180000e+001 0.000000e+000 3.000000e+000
         vertex -1.180000e+001 0.000000e+000 6.000000e+000
      endloop
   endfacet
   facet normal -8.660255e-001 -4.999999e-001 0.000000e+000
      outer loop
         vertex -1.340000e+001 2.771281e+000 3.000000e+000
         vertex -1.180000e+001 0.000000e+000 6.000000e+000
         vertex -1.340000e+001 2.771281e+000 6.000000e+000
      endloop
   endfacet
endsolid
