solid 
   facet normal 0.000000e+000 -1.000000e+000 0.000000e+000
      outer loop
         vertex -2.000000e+000 5.050000e+000 3.500000e+000
         vertex -5.650000e+000 5.050000e+000 3.500000e+000
         vertex -5.650000e+000 5.050000e+000 2.000000e+000
      endloop
   endfacet
   facet normal 0.000000e+000 -1.000000e+000 0.000000e+000
      outer loop
         vertex -2.000000e+000 5.050000e+000 7.500000e+000
         vertex -5.650000e+000 5.050000e+000 1.200000e+001
         vertex -5.650000e+000 5.050000e+000 7.500000e+000
      endloop
   endfacet
   facet normal 0.000000e+000 -1.000000e+000 0.000000e+000
      outer loop
         vertex 2.000000e+000 5.050000e+000 7.500000e+000
         vertex 5.650000e+000 5.050000e+000 7.500000e+000
         vertex 5.650000e+000 5.050000e+000 1.200000e+001
      endloop
   endfacet
   facet normal 0.000000e+000 -1.000000e+000 0.000000e+000
      outer loop
         vertex 2.000000e+000 5.050000e+000 3.500000e+000
         vertex 5.650000e+000 5.050000e+000 2.000000e+000
         vertex 5.650000e+000 5.050000e+000 3.500000e+000
      endloop
   endfacet
   facet normal 0.000000e+000 -1.000000e+000 0.000000e+000
      outer loop
         vertex 2.000000e+000 5.050000e+000 7.500000e+000
         vertex 1.618034e+000 5.050000e+000 6.675570e+000
         vertex 2.000000e+000 5.050000e+000 5.500000e+000
      endloop
   endfacet
   facet normal 0.000000e+000 -1.000000e+000 0.000000e+000
      outer loop
         vertex 2.000000e+000 5.050000e+000 7.500000e+000
         vertex -6.180340e-001 5.050000e+000 7.402113e+000
         vertex 6.180340e-001 5.050000e+000 7.402113e+000
      endloop
   endfacet
   facet normal 0.000000e+000 -1.000000e+000 0.000000e+000
      outer loop
         vertex -2.000000e+000 5.050000e+000 7.500000e+000
         vertex -2.000000e+000 5.050000e+000 5.500000e+000
         vertex -1.618034e+000 5.050000e+000 6.675570e+000
      endloop
   endfacet
   facet normal -0.000000e+000 -1.000000e+000 0.000000e+000
      outer loop
         vertex -2.000000e+000 5.050000e+000 3.500000e+000
         vertex -6.180340e-001 5.050000e+000 3.597887e+000
         vertex -1.618034e+000 5.050000e+000 4.324430e+000
      endloop
   endfacet
   facet normal 0.000000e+000 -1.000000e+000 -0.000000e+000
      outer loop
         vertex 2.000000e+000 5.050000e+000 3.500000e+000
         vertex 1.618034e+000 5.050000e+000 4.324430e+000
         vertex 6.180340e-001 5.050000e+000 3.597887e+000
      endloop
   endfacet
   facet normal 0.000000e+000 -1.000000e+000 0.000000e+000
      outer loop
         vertex -6.180340e-001 5.050000e+000 3.597887e+000
         vertex -2.000000e+000 5.050000e+000 3.500000e+000
         vertex 2.000000e+000 5.050000e+000 3.500000e+000
      endloop
   endfacet
   facet normal 0.000000e+000 -1.000000e+000 -0.000000e+000
      outer loop
         vertex 5.650000e+000 5.050000e+000 2.000000e+000
         vertex -2.000000e+000 5.050000e+000 3.500000e+000
         vertex -5.650000e+000 5.050000e+000 2.000000e+000
      endloop
   endfacet
   facet normal 0.000000e+000 -1.000000e+000 0.000000e+000
      outer loop
         vertex 5.650000e+000 5.050000e+000 1.200000e+001
         vertex -5.650000e+000 5.050000e+000 1.200000e+001
         vertex -2.000000e+000 5.050000e+000 7.500000e+000
      endloop
   endfacet
   facet normal 0.000000e+000 -1.000000e+000 0.000000e+000
      outer loop
         vertex 2.000000e+000 5.050000e+000 5.500000e+000
         vertex 2.000000e+000 5.050000e+000 3.500000e+000
         vertex 5.650000e+000 5.050000e+000 3.500000e+000
      endloop
   endfacet
   facet normal 0.000000e+000 -1.000000e+000 0.000000e+000
      outer loop
         vertex 5.650000e+000 5.050000e+000 7.500000e+000
         vertex 2.000000e+000 5.050000e+000 7.500000e+000
         vertex 2.000000e+000 5.050000e+000 5.500000e+000
      endloop
   endfacet
   facet normal 0.000000e+000 -1.000000e+000 0.000000e+000
      outer loop
         vertex -2.000000e+000 5.050000e+000 7.500000e+000
         vertex -6.180340e-001 5.050000e+000 7.402113e+000
         vertex 2.000000e+000 5.050000e+000 7.500000e+000
      endloop
   endfacet
   facet normal 0.000000e+000 -1.000000e+000 0.000000e+000
      outer loop
         vertex -2.000000e+000 5.050000e+000 5.500000e+000
         vertex -2.000000e+000 5.050000e+000 3.500000e+000
         vertex -1.618034e+000 5.050000e+000 4.324430e+000
      endloop
   endfacet
   facet normal 0.000000e+000 -1.000000e+000 0.000000e+000
      outer loop
         vertex 6.180340e-001 5.050000e+000 3.597887e+000
         vertex -6.180340e-001 5.050000e+000 3.597887e+000
         vertex 2.000000e+000 5.050000e+000 3.500000e+000
      endloop
   endfacet
   facet normal 0.000000e+000 -1.000000e+000 0.000000e+000
      outer loop
         vertex 1.618034e+000 5.050000e+000 4.324430e+000
         vertex 2.000000e+000 5.050000e+000 3.500000e+000
         vertex 2.000000e+000 5.050000e+000 5.500000e+000
      endloop
   endfacet
   facet normal 0.000000e+000 -1.000000e+000 0.000000e+000
      outer loop
         vertex -2.000000e+000 5.050000e+000 5.500000e+000
         vertex -5.650000e+000 5.050000e+000 7.500000e+000
         vertex -5.650000e+000 5.050000e+000 3.500000e+000
      endloop
   endfacet
   facet normal 0.000000e+000 -1.000000e+000 0.000000e+000
      outer loop
         vertex 2.000000e+000 5.050000e+000 7.500000e+000
         vertex 6.180340e-001 5.050000e+000 7.402113e+000
         vertex 1.618034e+000 5.050000e+000 6.675570e+000
      endloop
   endfacet
   facet normal 0.000000e+000 -1.000000e+000 0.000000e+000
      outer loop
         vertex -2.000000e+000 5.050000e+000 5.500000e+000
         vertex -5.650000e+000 5.050000e+000 3.500000e+000
         vertex -2.000000e+000 5.050000e+000 3.500000e+000
      endloop
   endfacet
   facet normal 0.000000e+000 -1.000000e+000 0.000000e+000
      outer loop
         vertex -2.000000e+000 5.050000e+000 7.500000e+000
         vertex 2.000000e+000 5.050000e+000 7.500000e+000
         vertex 5.650000e+000 5.050000e+000 1.200000e+001
      endloop
   endfacet
   facet normal 0.000000e+000 -1.000000e+000 0.000000e+000
      outer loop
         vertex -5.650000e+000 5.050000e+000 7.500000e+000
         vertex -2.000000e+000 5.050000e+000 5.500000e+000
         vertex -2.000000e+000 5.050000e+000 7.500000e+000
      endloop
   endfacet
   facet normal 0.000000e+000 -1.000000e+000 -0.000000e+000
      outer loop
         vertex 5.650000e+000 5.050000e+000 3.500000e+000
         vertex 5.650000e+000 5.050000e+000 7.500000e+000
         vertex 2.000000e+000 5.050000e+000 5.500000e+000
      endloop
   endfacet
   facet normal 0.000000e+000 -1.000000e+000 0.000000e+000
      outer loop
         vertex -2.000000e+000 5.050000e+000 7.500000e+000
         vertex -1.618034e+000 5.050000e+000 6.675570e+000
         vertex -6.180340e-001 5.050000e+000 7.402113e+000
      endloop
   endfacet
   facet normal 0.000000e+000 -1.000000e+000 0.000000e+000
      outer loop
         vertex -2.000000e+000 5.050000e+000 3.500000e+000
         vertex 5.650000e+000 5.050000e+000 2.000000e+000
         vertex 2.000000e+000 5.050000e+000 3.500000e+000
      endloop
   endfacet
   facet normal 0.000000e+000 1.000000e+000 -0.000000e+000
      outer loop
         vertex 5.000000e+000 6.000000e+000 3.500000e+000
         vertex 5.000000e+000 6.000000e+000 0.000000e+000
         vertex 2.000000e+000 6.000000e+000 3.500000e+000
      endloop
   endfacet
   facet normal -0.000000e+000 1.000000e+000 0.000000e+000
      outer loop
         vertex -5.000000e+000 6.000000e+000 0.000000e+000
         vertex -5.000000e+000 6.000000e+000 3.500000e+000
         vertex -2.000000e+000 6.000000e+000 3.500000e+000
      endloop
   endfacet
   facet normal 0.000000e+000 1.000000e+000 0.000000e+000
      outer loop
         vertex -5.000000e+000 6.000000e+000 7.500000e+000
         vertex -5.000000e+000 6.000000e+000 1.200000e+001
         vertex -2.000000e+000 6.000000e+000 7.500000e+000
      endloop
   endfacet
   facet normal 0.000000e+000 1.000000e+000 -0.000000e+000
      outer loop
         vertex 5.000000e+000 6.000000e+000 1.200000e+001
         vertex 5.000000e+000 6.000000e+000 7.500000e+000
         vertex 2.000000e+000 6.000000e+000 7.500000e+000
      endloop
   endfacet
   facet normal 0.000000e+000 1.000000e+000 0.000000e+000
      outer loop
         vertex 1.618034e+000 6.000000e+000 4.324430e+000
         vertex 2.000000e+000 6.000000e+000 5.500000e+000
         vertex 2.000000e+000 6.000000e+000 3.500000e+000
      endloop
   endfacet
   facet normal -0.000000e+000 1.000000e+000 0.000000e+000
      outer loop
         vertex 1.618034e+000 6.000000e+000 6.675570e+000
         vertex 6.180340e-001 6.000000e+000 7.402113e+000
         vertex 2.000000e+000 6.000000e+000 7.500000e+000
      endloop
   endfacet
   facet normal 0.000000e+000 1.000000e+000 -0.000000e+000
      outer loop
         vertex -6.180340e-001 6.000000e+000 7.402113e+000
         vertex -1.618034e+000 6.000000e+000 6.675570e+000
         vertex -2.000000e+000 6.000000e+000 7.500000e+000
      endloop
   endfacet
   facet normal 0.000000e+000 1.000000e+000 0.000000e+000
      outer loop
         vertex -2.000000e+000 6.000000e+000 5.500000e+000
         vertex -1.618034e+000 6.000000e+000 4.324430e+000
         vertex -2.000000e+000 6.000000e+000 3.500000e+000
      endloop
   endfacet
   facet normal 0.000000e+000 1.000000e+000 0.000000e+000
      outer loop
         vertex -6.180340e-001 6.000000e+000 3.597887e+000
         vertex 6.180340e-001 6.000000e+000 3.597887e+000
         vertex 2.000000e+000 6.000000e+000 3.500000e+000
      endloop
   endfacet
   facet normal 0.000000e+000 1.000000e+000 0.000000e+000
      outer loop
         vertex 2.000000e+000 6.000000e+000 3.500000e+000
         vertex -2.000000e+000 6.000000e+000 3.500000e+000
         vertex -6.180340e-001 6.000000e+000 3.597887e+000
      endloop
   endfacet
   facet normal 0.000000e+000 1.000000e+000 0.000000e+000
      outer loop
         vertex 5.000000e+000 6.000000e+000 3.500000e+000
         vertex 2.000000e+000 6.000000e+000 3.500000e+000
         vertex 2.000000e+000 6.000000e+000 5.500000e+000
      endloop
   endfacet
   facet normal 0.000000e+000 1.000000e+000 0.000000e+000
      outer loop
         vertex -5.000000e+000 6.000000e+000 0.000000e+000
         vertex -2.000000e+000 6.000000e+000 3.500000e+000
         vertex 5.000000e+000 6.000000e+000 0.000000e+000
      endloop
   endfacet
   facet normal -0.000000e+000 1.000000e+000 0.000000e+000
      outer loop
         vertex -2.000000e+000 6.000000e+000 7.500000e+000
         vertex -5.000000e+000 6.000000e+000 1.200000e+001
         vertex 5.000000e+000 6.000000e+000 1.200000e+001
      endloop
   endfacet
   facet normal 0.000000e+000 1.000000e+000 0.000000e+000
      outer loop
         vertex 1.618034e+000 6.000000e+000 4.324430e+000
         vertex 2.000000e+000 6.000000e+000 3.500000e+000
         vertex 6.180340e-001 6.000000e+000 3.597887e+000
      endloop
   endfacet
   facet normal 0.000000e+000 1.000000e+000 0.000000e+000
      outer loop
         vertex -6.180340e-001 6.000000e+000 7.402113e+000
         vertex -2.000000e+000 6.000000e+000 7.500000e+000
         vertex 6.180340e-001 6.000000e+000 7.402113e+000
      endloop
   endfacet
   facet normal 0.000000e+000 1.000000e+000 0.000000e+000
      outer loop
         vertex -2.000000e+000 6.000000e+000 3.500000e+000
         vertex -1.618034e+000 6.000000e+000 4.324430e+000
         vertex -6.180340e-001 6.000000e+000 3.597887e+000
      endloop
   endfacet
   facet normal 0.000000e+000 1.000000e+000 0.000000e+000
      outer loop
         vertex -2.000000e+000 6.000000e+000 7.500000e+000
         vertex 5.000000e+000 6.000000e+000 1.200000e+001
         vertex 2.000000e+000 6.000000e+000 7.500000e+000
      endloop
   endfacet
   facet normal 0.000000e+000 1.000000e+000 0.000000e+000
      outer loop
         vertex -5.000000e+000 6.000000e+000 3.500000e+000
         vertex -5.000000e+000 6.000000e+000 7.500000e+000
         vertex -2.000000e+000 6.000000e+000 5.500000e+000
      endloop
   endfacet
   facet normal -0.000000e+000 1.000000e+000 0.000000e+000
      outer loop
         vertex 2.000000e+000 6.000000e+000 5.500000e+000
         vertex 1.618034e+000 6.000000e+000 6.675570e+000
         vertex 2.000000e+000 6.000000e+000 7.500000e+000
      endloop
   endfacet
   facet normal 0.000000e+000 1.000000e+000 0.000000e+000
      outer loop
         vertex -2.000000e+000 6.000000e+000 7.500000e+000
         vertex 2.000000e+000 6.000000e+000 7.500000e+000
         vertex 6.180340e-001 6.000000e+000 7.402113e+000
      endloop
   endfacet
   facet normal 0.000000e+000 1.000000e+000 0.000000e+000
      outer loop
         vertex -2.000000e+000 6.000000e+000 3.500000e+000
         vertex -5.000000e+000 6.000000e+000 3.500000e+000
         vertex -2.000000e+000 6.000000e+000 5.500000e+000
      endloop
   endfacet
   facet normal 0.000000e+000 1.000000e+000 0.000000e+000
      outer loop
         vertex 2.000000e+000 6.000000e+000 7.500000e+000
         vertex 5.000000e+000 6.000000e+000 7.500000e+000
         vertex 2.000000e+000 6.000000e+000 5.500000e+000
      endloop
   endfacet
   facet normal -0.000000e+000 1.000000e+000 0.000000e+000
      outer loop
         vertex 5.000000e+000 6.000000e+000 3.500000e+000
         vertex 2.000000e+000 6.000000e+000 5.500000e+000
         vertex 5.000000e+000 6.000000e+000 7.500000e+000
      endloop
   endfacet
   facet normal 0.000000e+000 1.000000e+000 0.000000e+000
      outer loop
         vertex -1.618034e+000 6.000000e+000 6.675570e+000
         vertex -2.000000e+000 6.000000e+000 5.500000e+000
         vertex -2.000000e+000 6.000000e+000 7.500000e+000
      endloop
   endfacet
   facet normal 0.000000e+000 1.000000e+000 0.000000e+000
      outer loop
         vertex 2.000000e+000 6.000000e+000 3.500000e+000
         vertex 5.000000e+000 6.000000e+000 0.000000e+000
         vertex -2.000000e+000 6.000000e+000 3.500000e+000
      endloop
   endfacet
   facet normal 0.000000e+000 1.000000e+000 -0.000000e+000
      outer loop
         vertex -2.000000e+000 6.000000e+000 7.500000e+000
         vertex -2.000000e+000 6.000000e+000 5.500000e+000
         vertex -5.000000e+000 6.000000e+000 7.500000e+000
      endloop
   endfacet
   facet normal -9.510565e-001 0.000000e+000 3.090170e-001
      outer loop
         vertex 1.618034e+000 5.050000e+000 4.324430e+000
         vertex 2.000000e+000 5.050000e+000 5.500000e+000
         vertex 2.000000e+000 6.000000e+000 5.500000e+000
      endloop
   endfacet
   facet normal 0.000000e+000 0.000000e+000 1.000000e+000
      outer loop
         vertex -6.180340e-001 6.000000e+000 3.597887e+000
         vertex -6.180340e-001 5.050000e+000 3.597887e+000
         vertex 6.180340e-001 5.050000e+000 3.597887e+000
      endloop
   endfacet
   facet normal 9.510565e-001 -0.000000e+000 3.090170e-001
      outer loop
         vertex -2.000000e+000 6.000000e+000 5.500000e+000
         vertex -2.000000e+000 5.050000e+000 5.500000e+000
         vertex -1.618034e+000 5.050000e+000 4.324430e+000
      endloop
   endfacet
   facet normal 5.877852e-001 0.000000e+000 -8.090170e-001
      outer loop
         vertex -6.180340e-001 6.000000e+000 7.402113e+000
         vertex -6.180340e-001 5.050000e+000 7.402113e+000
         vertex -1.618034e+000 5.050000e+000 6.675570e+000
      endloop
   endfacet
   facet normal -5.877852e-001 0.000000e+000 -8.090170e-001
      outer loop
         vertex 1.618034e+000 6.000000e+000 6.675570e+000
         vertex 1.618034e+000 5.050000e+000 6.675570e+000
         vertex 6.180340e-001 5.050000e+000 7.402113e+000
      endloop
   endfacet
   facet normal -9.510565e-001 -0.000000e+000 -3.090170e-001
      outer loop
         vertex 1.618034e+000 5.050000e+000 6.675570e+000
         vertex 2.000000e+000 6.000000e+000 5.500000e+000
         vertex 2.000000e+000 5.050000e+000 5.500000e+000
      endloop
   endfacet
   facet normal 0.000000e+000 0.000000e+000 -1.000000e+000
      outer loop
         vertex -6.180340e-001 5.050000e+000 7.402113e+000
         vertex -6.180340e-001 6.000000e+000 7.402113e+000
         vertex 6.180340e-001 6.000000e+000 7.402113e+000
      endloop
   endfacet
   facet normal 9.510565e-001 0.000000e+000 -3.090170e-001
      outer loop
         vertex -2.000000e+000 5.050000e+000 5.500000e+000
         vertex -2.000000e+000 6.000000e+000 5.500000e+000
         vertex -1.618034e+000 6.000000e+000 6.675570e+000
      endloop
   endfacet
   facet normal 5.877852e-001 0.000000e+000 8.090170e-001
      outer loop
         vertex -6.180340e-001 5.050000e+000 3.597887e+000
         vertex -6.180340e-001 6.000000e+000 3.597887e+000
         vertex -1.618034e+000 6.000000e+000 4.324430e+000
      endloop
   endfacet
   facet normal -5.877852e-001 0.000000e+000 8.090170e-001
      outer loop
         vertex 1.618034e+000 5.050000e+000 4.324430e+000
         vertex 1.618034e+000 6.000000e+000 4.324430e+000
         vertex 6.180340e-001 6.000000e+000 3.597887e+000
      endloop
   endfacet
   facet normal -9.510565e-001 0.000000e+000 3.090170e-001
      outer loop
         vertex 1.618034e+000 6.000000e+000 4.324430e+000
         vertex 1.618034e+000 5.050000e+000 4.324430e+000
         vertex 2.000000e+000 6.000000e+000 5.500000e+000
      endloop
   endfacet
   facet normal 5.877852e-001 0.000000e+000 -8.090170e-001
      outer loop
         vertex -1.618034e+000 6.000000e+000 6.675570e+000
         vertex -6.180340e-001 6.000000e+000 7.402113e+000
         vertex -1.618034e+000 5.050000e+000 6.675570e+000
      endloop
   endfacet
   facet normal -9.510565e-001 0.000000e+000 -3.090170e-001
      outer loop
         vertex 1.618034e+000 6.000000e+000 6.675570e+000
         vertex 2.000000e+000 6.000000e+000 5.500000e+000
         vertex 1.618034e+000 5.050000e+000 6.675570e+000
      endloop
   endfacet
   facet normal -5.877852e-001 0.000000e+000 8.090170e-001
      outer loop
         vertex 6.180340e-001 5.050000e+000 3.597887e+000
         vertex 1.618034e+000 5.050000e+000 4.324430e+000
         vertex 6.180340e-001 6.000000e+000 3.597887e+000
      endloop
   endfacet
   facet normal 5.877852e-001 -0.000000e+000 8.090170e-001
      outer loop
         vertex -1.618034e+000 6.000000e+000 4.324430e+000
         vertex -1.618034e+000 5.050000e+000 4.324430e+000
         vertex -6.180340e-001 5.050000e+000 3.597887e+000
      endloop
   endfacet
   facet normal 0.000000e+000 0.000000e+000 -1.000000e+000
      outer loop
         vertex 6.180340e-001 6.000000e+000 7.402113e+000
         vertex 6.180340e-001 5.050000e+000 7.402113e+000
         vertex -6.180340e-001 5.050000e+000 7.402113e+000
      endloop
   endfacet
   facet normal 9.510565e-001 0.000000e+000 3.090170e-001
      outer loop
         vertex -1.618034e+000 5.050000e+000 4.324430e+000
         vertex -1.618034e+000 6.000000e+000 4.324430e+000
         vertex -2.000000e+000 6.000000e+000 5.500000e+000
      endloop
   endfacet
   facet normal -0.000000e+000 0.000000e+000 1.000000e+000
      outer loop
         vertex 6.180340e-001 6.000000e+000 3.597887e+000
         vertex -6.180340e-001 6.000000e+000 3.597887e+000
         vertex 6.180340e-001 5.050000e+000 3.597887e+000
      endloop
   endfacet
   facet normal 9.510565e-001 0.000000e+000 -3.090170e-001
      outer loop
         vertex -2.000000e+000 5.050000e+000 5.500000e+000
         vertex -1.618034e+000 6.000000e+000 6.675570e+000
         vertex -1.618034e+000 5.050000e+000 6.675570e+000
      endloop
   endfacet
   facet normal -5.877852e-001 -0.000000e+000 -8.090170e-001
      outer loop
         vertex 6.180340e-001 5.050000e+000 7.402113e+000
         vertex 6.180340e-001 6.000000e+000 7.402113e+000
         vertex 1.618034e+000 6.000000e+000 6.675570e+000
      endloop
   endfacet
   facet normal 0.000000e+000 0.000000e+000 1.000000e+000
      outer loop
         vertex 6.050000e+000 -4.650000e+000 2.000000e+000
         vertex 6.050000e+000 4.650000e+000 2.000000e+000
         vertex 2.100000e+000 0.000000e+000 2.000000e+000
      endloop
   endfacet
   facet normal 0.000000e+000 0.000000e+000 1.000000e+000
      outer loop
         vertex 5.996410e+000 4.850000e+000 2.000000e+000
         vertex 5.850000e+000 4.996410e+000 2.000000e+000
         vertex 6.050000e+000 4.650000e+000 2.000000e+000
      endloop
   endfacet
   facet normal -0.000000e+000 0.000000e+000 1.000000e+000
      outer loop
         vertex -5.650000e+000 5.050000e+000 2.000000e+000
         vertex -5.850000e+000 4.996410e+000 2.000000e+000
         vertex -5.996410e+000 4.850000e+000 2.000000e+000
      endloop
   endfacet
   facet normal 0.000000e+000 0.000000e+000 1.000000e+000
      outer loop
         vertex -6.050000e+000 4.650000e+000 2.000000e+000
         vertex -6.050000e+000 -4.650000e+000 2.000000e+000
         vertex -2.100000e+000 2.571758e-016 2.000000e+000
      endloop
   endfacet
   facet normal 0.000000e+000 0.000000e+000 1.000000e+000
      outer loop
         vertex -5.996410e+000 -4.850000e+000 2.000000e+000
         vertex -5.850000e+000 -4.996410e+000 2.000000e+000
         vertex -6.050000e+000 -4.650000e+000 2.000000e+000
      endloop
   endfacet
   facet normal 0.000000e+000 -0.000000e+000 1.000000e+000
      outer loop
         vertex 5.650000e+000 -5.050000e+000 2.000000e+000
         vertex 5.850000e+000 -4.996410e+000 2.000000e+000
         vertex 6.050000e+000 -4.650000e+000 2.000000e+000
      endloop
   endfacet
   facet normal 0.000000e+000 0.000000e+000 1.000000e+000
      outer loop
         vertex 5.996410e+000 -4.850000e+000 2.000000e+000
         vertex 6.050000e+000 -4.650000e+000 2.000000e+000
         vertex 5.850000e+000 -4.996410e+000 2.000000e+000
      endloop
   endfacet
   facet normal -0.000000e+000 0.000000e+000 1.000000e+000
      outer loop
         vertex 1.698936e+000 -1.234349e+000 2.000000e+000
         vertex 6.489357e-001 -1.997219e+000 2.000000e+000
         vertex 2.100000e+000 -2.100000e+000 2.000000e+000
      endloop
   endfacet
   facet normal 0.000000e+000 0.000000e+000 1.000000e+000
      outer loop
         vertex -6.489357e-001 -1.997219e+000 2.000000e+000
         vertex -1.698936e+000 -1.234349e+000 2.000000e+000
         vertex -2.100000e+000 -2.100000e+000 2.000000e+000
      endloop
   endfacet
   facet normal 0.000000e+000 0.000000e+000 1.000000e+000
      outer loop
         vertex -2.100000e+000 2.571758e-016 2.000000e+000
         vertex -1.698936e+000 1.234349e+000 2.000000e+000
         vertex -2.100000e+000 2.100000e+000 2.000000e+000
      endloop
   endfacet
   facet normal 0.000000e+000 -0.000000e+000 1.000000e+000
      outer loop
         vertex 6.489357e-001 1.997219e+000 2.000000e+000
         vertex 1.698936e+000 1.234349e+000 2.000000e+000
         vertex 2.100000e+000 2.100000e+000 2.000000e+000
      endloop
   endfacet
   facet normal 0.000000e+000 0.000000e+000 1.000000e+000
      outer loop
         vertex -2.100000e+000 -2.100000e+000 2.000000e+000
         vertex 2.100000e+000 -2.100000e+000 2.000000e+000
         vertex 6.489357e-001 -1.997219e+000 2.000000e+000
      endloop
   endfacet
   facet normal 0.000000e+000 0.000000e+000 1.000000e+000
      outer loop
         vertex 6.050000e+000 -4.650000e+000 2.000000e+000
         vertex 2.100000e+000 0.000000e+000 2.000000e+000
         vertex 2.100000e+000 -2.100000e+000 2.000000e+000
      endloop
   endfacet
   facet normal 0.000000e+000 0.000000e+000 1.000000e+000
      outer loop
         vertex 6.050000e+000 4.650000e+000 2.000000e+000
         vertex 5.850000e+000 4.996410e+000 2.000000e+000
         vertex 5.650000e+000 5.050000e+000 2.000000e+000
      endloop
   endfacet
   facet normal 0.000000e+000 0.000000e+000 1.000000e+000
      outer loop
         vertex -2.100000e+000 2.571758e-016 2.000000e+000
         vertex -6.050000e+000 -4.650000e+000 2.000000e+000
         vertex -2.100000e+000 -2.100000e+000 2.000000e+000
      endloop
   endfacet
   facet normal 0.000000e+000 0.000000e+000 1.000000e+000
      outer loop
         vertex 5.650000e+000 -5.050000e+000 2.000000e+000
         vertex 6.050000e+000 -4.650000e+000 2.000000e+000
         vertex 2.100000e+000 -2.100000e+000 2.000000e+000
      endloop
   endfacet
   facet normal 0.000000e+000 0.000000e+000 1.000000e+000
      outer loop
         vertex -2.100000e+000 -2.100000e+000 2.000000e+000
         vertex -1.698936e+000 -1.234349e+000 2.000000e+000
         vertex -2.100000e+000 2.571758e-016 2.000000e+000
      endloop
   endfacet
   facet normal -0.000000e+000 0.000000e+000 1.000000e+000
      outer loop
         vertex 2.100000e+000 2.100000e+000 2.000000e+000
         vertex 1.698936e+000 1.234349e+000 2.000000e+000
         vertex 2.100000e+000 0.000000e+000 2.000000e+000
      endloop
   endfacet
   facet normal 0.000000e+000 0.000000e+000 1.000000e+000
      outer loop
         vertex 6.050000e+000 4.650000e+000 2.000000e+000
         vertex 5.650000e+000 5.050000e+000 2.000000e+000
         vertex 2.100000e+000 2.100000e+000 2.000000e+000
      endloop
   endfacet
   facet normal 0.000000e+000 0.000000e+000 1.000000e+000
      outer loop
         vertex 5.650000e+000 -5.050000e+000 2.000000e+000
         vertex 2.100000e+000 -2.100000e+000 2.000000e+000
         vertex -5.650000e+000 -5.050000e+000 2.000000e+000
      endloop
   endfacet
   facet normal 0.000000e+000 0.000000e+000 1.000000e+000
      outer loop
         vertex 2.100000e+000 2.100000e+000 2.000000e+000
         vertex 5.650000e+000 5.050000e+000 2.000000e+000
         vertex -5.650000e+000 5.050000e+000 2.000000e+000
      endloop
   endfacet
   facet normal 0.000000e+000 0.000000e+000 1.000000e+000
      outer loop
         vertex -5.996410e+000 4.850000e+000 2.000000e+000
         vertex -6.050000e+000 4.650000e+000 2.000000e+000
         vertex -5.650000e+000 5.050000e+000 2.000000e+000
      endloop
   endfacet
   facet normal -0.000000e+000 0.000000e+000 1.000000e+000
      outer loop
         vertex 2.100000e+000 0.000000e+000 2.000000e+000
         vertex 1.698936e+000 -1.234349e+000 2.000000e+000
         vertex 2.100000e+000 -2.100000e+000 2.000000e+000
      endloop
   endfacet
   facet normal 0.000000e+000 0.000000e+000 1.000000e+000
      outer loop
         vertex -1.698936e+000 1.234349e+000 2.000000e+000
         vertex -6.489357e-001 1.997219e+000 2.000000e+000
         vertex -2.100000e+000 2.100000e+000 2.000000e+000
      endloop
   endfacet
   facet normal -0.000000e+000 0.000000e+000 1.000000e+000
      outer loop
         vertex 2.100000e+000 2.100000e+000 2.000000e+000
         vertex -2.100000e+000 2.100000e+000 2.000000e+000
         vertex -6.489357e-001 1.997219e+000 2.000000e+000
      endloop
   endfacet
   facet normal 0.000000e+000 0.000000e+000 1.000000e+000
      outer loop
         vertex 2.100000e+000 0.000000e+000 2.000000e+000
         vertex 6.050000e+000 4.650000e+000 2.000000e+000
         vertex 2.100000e+000 2.100000e+000 2.000000e+000
      endloop
   endfacet
   facet normal -0.000000e+000 -0.000000e+000 1.000000e+000
      outer loop
         vertex -6.050000e+000 -4.650000e+000 2.000000e+000
         vertex -5.850000e+000 -4.996410e+000 2.000000e+000
         vertex -5.650000e+000 -5.050000e+000 2.000000e+000
      endloop
   endfacet
   facet normal 0.000000e+000 0.000000e+000 1.000000e+000
      outer loop
         vertex 6.489357e-001 1.997219e+000 2.000000e+000
         vertex 2.100000e+000 2.100000e+000 2.000000e+000
         vertex -6.489357e-001 1.997219e+000 2.000000e+000
      endloop
   endfacet
   facet normal 0.000000e+000 0.000000e+000 1.000000e+000
      outer loop
         vertex -5.650000e+000 -5.050000e+000 2.000000e+000
         vertex 2.100000e+000 -2.100000e+000 2.000000e+000
         vertex -2.100000e+000 -2.100000e+000 2.000000e+000
      endloop
   endfacet
   facet normal 0.000000e+000 -0.000000e+000 1.000000e+000
      outer loop
         vertex -6.050000e+000 -4.650000e+000 2.000000e+000
         vertex -5.650000e+000 -5.050000e+000 2.000000e+000
         vertex -2.100000e+000 -2.100000e+000 2.000000e+000
      endloop
   endfacet
   facet normal -0.000000e+000 0.000000e+000 1.000000e+000
      outer loop
         vertex 6.489357e-001 -1.997219e+000 2.000000e+000
         vertex -6.489357e-001 -1.997219e+000 2.000000e+000
         vertex -2.100000e+000 -2.100000e+000 2.000000e+000
      endloop
   endfacet
   facet normal 0.000000e+000 -0.000000e+000 1.000000e+000
      outer loop
         vertex -6.050000e+000 4.650000e+000 2.000000e+000
         vertex -2.100000e+000 2.571758e-016 2.000000e+000
         vertex -2.100000e+000 2.100000e+000 2.000000e+000
      endloop
   endfacet
   facet normal -0.000000e+000 0.000000e+000 1.000000e+000
      outer loop
         vertex -5.650000e+000 5.050000e+000 2.000000e+000
         vertex -6.050000e+000 4.650000e+000 2.000000e+000
         vertex -2.100000e+000 2.100000e+000 2.000000e+000
      endloop
   endfacet
   facet normal 0.000000e+000 0.000000e+000 1.000000e+000
      outer loop
         vertex 2.100000e+000 2.100000e+000 2.000000e+000
         vertex -5.650000e+000 5.050000e+000 2.000000e+000
         vertex -2.100000e+000 2.100000e+000 2.000000e+000
      endloop
   endfacet
   facet normal -2.588192e-001 -9.659258e-001 -0.000000e+000
      outer loop
         vertex 5.850000e+000 4.996410e+000 1.200000e+001
         vertex 5.650000e+000 5.050000e+000 1.200000e+001
         vertex 5.650000e+000 5.050000e+000 2.000000e+000
      endloop
   endfacet
   facet normal -9.659258e-001 -2.588192e-001 -0.000000e+000
      outer loop
         vertex 6.050000e+000 4.650000e+000 2.000000e+000
         vertex 6.050000e+000 4.650000e+000 1.200000e+001
         vertex 5.996410e+000 4.850000e+000 1.200000e+001
      endloop
   endfacet
   facet normal -7.071068e-001 -7.071068e-001 0.000000e+000
      outer loop
         vertex 5.850000e+000 4.996410e+000 1.200000e+001
         vertex 5.850000e+000 4.996410e+000 2.000000e+000
         vertex 5.996410e+000 4.850000e+000 2.000000e+000
      endloop
   endfacet
   facet normal -2.588192e-001 -9.659258e-001 -0.000000e+000
      outer loop
         vertex 5.850000e+000 4.996410e+000 2.000000e+000
         vertex 5.850000e+000 4.996410e+000 1.200000e+001
         vertex 5.650000e+000 5.050000e+000 2.000000e+000
      endloop
   endfacet
   facet normal -7.071068e-001 -7.071068e-001 -0.000000e+000
      outer loop
         vertex 5.996410e+000 4.850000e+000 2.000000e+000
         vertex 5.996410e+000 4.850000e+000 1.200000e+001
         vertex 5.850000e+000 4.996410e+000 1.200000e+001
      endloop
   endfacet
   facet normal -9.659258e-001 -2.588192e-001 0.000000e+000
      outer loop
         vertex 5.996410e+000 4.850000e+000 2.000000e+000
         vertex 6.050000e+000 4.650000e+000 2.000000e+000
         vertex 5.996410e+000 4.850000e+000 1.200000e+001
      endloop
   endfacet
   facet normal 0.000000e+000 0.000000e+000 1.000000e+000
      outer loop
         vertex 6.000000e+000 5.732051e+000 1.200000e+001
         vertex 5.000000e+000 6.000000e+000 1.200000e+001
         vertex 5.650000e+000 5.050000e+000 1.200000e+001
      endloop
   endfacet
   facet normal -0.000000e+000 0.000000e+000 1.000000e+000
      outer loop
         vertex -5.000000e+000 6.000000e+000 1.200000e+001
         vertex -6.000000e+000 5.732051e+000 1.200000e+001
         vertex -5.650000e+000 5.050000e+000 1.200000e+001
      endloop
   endfacet
   facet normal 0.000000e+000 0.000000e+000 1.000000e+000
      outer loop
         vertex -6.732051e+000 5.000000e+000 1.200000e+001
         vertex -7.000000e+000 4.000000e+000 1.200000e+001
         vertex -6.050000e+000 4.650000e+000 1.200000e+001
      endloop
   endfacet
   facet normal 0.000000e+000 -0.000000e+000 1.000000e+000
      outer loop
         vertex -7.000000e+000 -4.000000e+000 1.200000e+001
         vertex -6.732051e+000 -5.000000e+000 1.200000e+001
         vertex -6.050000e+000 -4.650000e+000 1.200000e+001
      endloop
   endfacet
   facet normal 0.000000e+000 0.000000e+000 1.000000e+000
      outer loop
         vertex -6.000000e+000 -5.732051e+000 1.200000e+001
         vertex -5.000000e+000 -6.000000e+000 1.200000e+001
         vertex -5.650000e+000 -5.050000e+000 1.200000e+001
      endloop
   endfacet
   facet normal 0.000000e+000 0.000000e+000 1.000000e+000
      outer loop
         vertex 5.000000e+000 -6.000000e+000 1.200000e+001
         vertex 6.000000e+000 -5.732051e+000 1.200000e+001
         vertex 5.650000e+000 -5.050000e+000 1.200000e+001
      endloop
   endfacet
   facet normal 0.000000e+000 0.000000e+000 1.000000e+000
      outer loop
         vertex 6.732051e+000 -5.000000e+000 1.200000e+001
         vertex 7.000000e+000 -4.000000e+000 1.200000e+001
         vertex 6.050000e+000 -4.650000e+000 1.200000e+001
      endloop
   endfacet
   facet normal 0.000000e+000 0.000000e+000 1.000000e+000
      outer loop
         vertex 7.000000e+000 4.000000e+000 1.200000e+001
         vertex 6.732051e+000 5.000000e+000 1.200000e+001
         vertex 6.050000e+000 4.650000e+000 1.200000e+001
      endloop
   endfacet
   facet normal 0.000000e+000 0.000000e+000 1.000000e+000
      outer loop
         vertex -5.850000e+000 4.996410e+000 1.200000e+001
         vertex -5.650000e+000 5.050000e+000 1.200000e+001
         vertex -6.000000e+000 5.732051e+000 1.200000e+001
      endloop
   endfacet
   facet normal 0.000000e+000 -0.000000e+000 1.000000e+000
      outer loop
         vertex 5.650000e+000 5.050000e+000 1.200000e+001
         vertex 5.850000e+000 4.996410e+000 1.200000e+001
         vertex 6.000000e+000 5.732051e+000 1.200000e+001
      endloop
   endfacet
   facet normal 0.000000e+000 -0.000000e+000 1.000000e+000
      outer loop
         vertex 5.996410e+000 4.850000e+000 1.200000e+001
         vertex 6.050000e+000 4.650000e+000 1.200000e+001
         vertex 6.732051e+000 5.000000e+000 1.200000e+001
      endloop
   endfacet
   facet normal -0.000000e+000 0.000000e+000 1.000000e+000
      outer loop
         vertex 6.050000e+000 -4.650000e+000 1.200000e+001
         vertex 5.996410e+000 -4.850000e+000 1.200000e+001
         vertex 6.732051e+000 -5.000000e+000 1.200000e+001
      endloop
   endfacet
   facet normal -0.000000e+000 0.000000e+000 1.000000e+000
      outer loop
         vertex 5.850000e+000 -4.996410e+000 1.200000e+001
         vertex 5.650000e+000 -5.050000e+000 1.200000e+001
         vertex 6.000000e+000 -5.732051e+000 1.200000e+001
      endloop
   endfacet
   facet normal 0.000000e+000 0.000000e+000 1.000000e+000
      outer loop
         vertex -5.650000e+000 -5.050000e+000 1.200000e+001
         vertex -5.850000e+000 -4.996410e+000 1.200000e+001
         vertex -6.000000e+000 -5.732051e+000 1.200000e+001
      endloop
   endfacet
   facet normal 0.000000e+000 0.000000e+000 1.000000e+000
      outer loop
         vertex -5.996410e+000 -4.850000e+000 1.200000e+001
         vertex -6.050000e+000 -4.650000e+000 1.200000e+001
         vertex -6.732051e+000 -5.000000e+000 1.200000e+001
      endloop
   endfacet
   facet normal 0.000000e+000 0.000000e+000 1.000000e+000
      outer loop
         vertex -6.050000e+000 4.650000e+000 1.200000e+001
         vertex -5.996410e+000 4.850000e+000 1.200000e+001
         vertex -6.732051e+000 5.000000e+000 1.200000e+001
      endloop
   endfacet
   facet normal 0.000000e+000 0.000000e+000 1.000000e+000
      outer loop
         vertex 5.650000e+000 5.050000e+000 1.200000e+001
         vertex 5.000000e+000 6.000000e+000 1.200000e+001
         vertex -5.000000e+000 6.000000e+000 1.200000e+001
      endloop
   endfacet
   facet normal 0.000000e+000 -0.000000e+000 1.000000e+000
      outer loop
         vertex -7.000000e+000 -4.000000e+000 1.200000e+001
         vertex -6.050000e+000 -4.650000e+000 1.200000e+001
         vertex -6.050000e+000 4.650000e+000 1.200000e+001
      endloop
   endfacet
   facet normal 0.000000e+000 -0.000000e+000 1.000000e+000
      outer loop
         vertex 6.050000e+000 -4.650000e+000 1.200000e+001
         vertex 7.000000e+000 -4.000000e+000 1.200000e+001
         vertex 7.000000e+000 4.000000e+000 1.200000e+001
      endloop
   endfacet
   facet normal -0.000000e+000 0.000000e+000 1.000000e+000
      outer loop
         vertex 6.000000e+000 5.732051e+000 1.200000e+001
         vertex 5.850000e+000 4.996410e+000 1.200000e+001
         vertex 5.996410e+000 4.850000e+000 1.200000e+001
      endloop
   endfacet
   facet normal 0.000000e+000 -0.000000e+000 1.000000e+000
      outer loop
         vertex 5.850000e+000 -4.996410e+000 1.200000e+001
         vertex 6.000000e+000 -5.732051e+000 1.200000e+001
         vertex 6.732051e+000 -5.000000e+000 1.200000e+001
      endloop
   endfacet
   facet normal 0.000000e+000 -0.000000e+000 1.000000e+000
      outer loop
         vertex -6.732051e+000 5.000000e+000 1.200000e+001
         vertex -5.996410e+000 4.850000e+000 1.200000e+001
         vertex -5.850000e+000 4.996410e+000 1.200000e+001
      endloop
   endfacet
   facet normal 0.000000e+000 0.000000e+000 1.000000e+000
      outer loop
         vertex 6.050000e+000 -4.650000e+000 1.200000e+001
         vertex 7.000000e+000 4.000000e+000 1.200000e+001
         vertex 6.050000e+000 4.650000e+000 1.200000e+001
      endloop
   endfacet
   facet normal -0.000000e+000 0.000000e+000 1.000000e+000
      outer loop
         vertex -6.000000e+000 5.732051e+000 1.200000e+001
         vertex -6.732051e+000 5.000000e+000 1.200000e+001
         vertex -5.850000e+000 4.996410e+000 1.200000e+001
      endloop
   endfacet
   facet normal 0.000000e+000 -0.000000e+000 1.000000e+000
      outer loop
         vertex -6.732051e+000 -5.000000e+000 1.200000e+001
         vertex -6.000000e+000 -5.732051e+000 1.200000e+001
         vertex -5.996410e+000 -4.850000e+000 1.200000e+001
      endloop
   endfacet
   facet normal 0.000000e+000 0.000000e+000 1.000000e+000
      outer loop
         vertex 6.732051e+000 5.000000e+000 1.200000e+001
         vertex 6.000000e+000 5.732051e+000 1.200000e+001
         vertex 5.996410e+000 4.850000e+000 1.200000e+001
      endloop
   endfacet
   facet normal -0.000000e+000 0.000000e+000 1.000000e+000
      outer loop
         vertex 5.996410e+000 -4.850000e+000 1.200000e+001
         vertex 5.850000e+000 -4.996410e+000 1.200000e+001
         vertex 6.732051e+000 -5.000000e+000 1.200000e+001
      endloop
   endfacet
   facet normal 0.000000e+000 0.000000e+000 1.000000e+000
      outer loop
         vertex -5.850000e+000 -4.996410e+000 1.200000e+001
         vertex -5.996410e+000 -4.850000e+000 1.200000e+001
         vertex -6.000000e+000 -5.732051e+000 1.200000e+001
      endloop
   endfacet
   facet normal -0.000000e+000 0.000000e+000 1.000000e+000
      outer loop
         vertex -6.050000e+000 4.650000e+000 1.200000e+001
         vertex -7.000000e+000 4.000000e+000 1.200000e+001
         vertex -7.000000e+000 -4.000000e+000 1.200000e+001
      endloop
   endfacet
   facet normal 0.000000e+000 0.000000e+000 1.000000e+000
      outer loop
         vertex 5.650000e+000 5.050000e+000 1.200000e+001
         vertex -5.000000e+000 6.000000e+000 1.200000e+001
         vertex -5.650000e+000 5.050000e+000 1.200000e+001
      endloop
   endfacet
   facet normal 0.000000e+000 0.000000e+000 1.000000e+000
      outer loop
         vertex -5.000000e+000 -6.000000e+000 1.200000e+001
         vertex 5.000000e+000 -6.000000e+000 1.200000e+001
         vertex -5.650000e+000 -5.050000e+000 1.200000e+001
      endloop
   endfacet
   facet normal 0.000000e+000 0.000000e+000 1.000000e+000
      outer loop
         vertex 5.000000e+000 -6.000000e+000 1.200000e+001
         vertex 5.650000e+000 -5.050000e+000 1.200000e+001
         vertex -5.650000e+000 -5.050000e+000 1.200000e+001
      endloop
   endfacet
   facet normal 9.659258e-001 -2.588192e-001 0.000000e+000
      outer loop
         vertex -5.996410e+000 4.850000e+000 1.200000e+001
         vertex -6.050000e+000 4.650000e+000 1.200000e+001
         vertex -6.050000e+000 4.650000e+000 2.000000e+000
      endloop
   endfacet
   facet normal 2.588192e-001 -9.659258e-001 0.000000e+000
      outer loop
         vertex -5.650000e+000 5.050000e+000 2.000000e+000
         vertex -5.650000e+000 5.050000e+000 1.200000e+001
         vertex -5.850000e+000 4.996410e+000 1.200000e+001
      endloop
   endfacet
   facet normal 7.071068e-001 -7.071068e-001 0.000000e+000
      outer loop
         vertex -5.996410e+000 4.850000e+000 1.200000e+001
         vertex -5.996410e+000 4.850000e+000 2.000000e+000
         vertex -5.850000e+000 4.996410e+000 2.000000e+000
      endloop
   endfacet
   facet normal 9.659258e-001 -2.588192e-001 0.000000e+000
      outer loop
         vertex -5.996410e+000 4.850000e+000 2.000000e+000
         vertex -5.996410e+000 4.850000e+000 1.200000e+001
         vertex -6.050000e+000 4.650000e+000 2.000000e+000
      endloop
   endfacet
   facet normal 7.071068e-001 -7.071068e-001 0.000000e+000
      outer loop
         vertex -5.850000e+000 4.996410e+000 2.000000e+000
         vertex -5.850000e+000 4.996410e+000 1.200000e+001
         vertex -5.996410e+000 4.850000e+000 1.200000e+001
      endloop
   endfacet
   facet normal 2.588192e-001 -9.659258e-001 0.000000e+000
      outer loop
         vertex -5.850000e+000 4.996410e+000 2.000000e+000
         vertex -5.650000e+000 5.050000e+000 2.000000e+000
         vertex -5.850000e+000 4.996410e+000 1.200000e+001
      endloop
   endfacet
   facet normal 0.000000e+000 0.000000e+000 -1.000000e+000
      outer loop
         vertex -2.100000e+000 2.100000e+000 0.000000e+000
         vertex -5.000000e+000 6.000000e+000 0.000000e+000
         vertex 5.000000e+000 6.000000e+000 0.000000e+000
      endloop
   endfacet
   facet normal 0.000000e+000 0.000000e+000 -1.000000e+000
      outer loop
         vertex -5.000000e+000 6.000000e+000 0.000000e+000
         vertex -7.000000e+000 4.000000e+000 0.000000e+000
         vertex -6.414214e+000 5.414214e+000 0.000000e+000
      endloop
   endfacet
   facet normal 0.000000e+000 0.000000e+000 -1.000000e+000
      outer loop
         vertex -5.000000e+000 -6.000000e+000 0.000000e+000
         vertex -6.000000e+000 -5.732051e+000 0.000000e+000
         vertex -6.732051e+000 -5.000000e+000 0.000000e+000
      endloop
   endfacet
   facet normal -0.000000e+000 0.000000e+000 -1.000000e+000
      outer loop
         vertex 7.000000e+000 -4.000000e+000 0.000000e+000
         vertex 6.000000e+000 -5.732051e+000 0.000000e+000
         vertex 5.000000e+000 -6.000000e+000 0.000000e+000
      endloop
   endfacet
   facet normal 0.000000e+000 0.000000e+000 -1.000000e+000
      outer loop
         vertex 6.000000e+000 -5.732051e+000 0.000000e+000
         vertex 7.000000e+000 -4.000000e+000 0.000000e+000
         vertex 6.732051e+000 -5.000000e+000 0.000000e+000
      endloop
   endfacet
   facet normal 0.000000e+000 0.000000e+000 -1.000000e+000
      outer loop
         vertex 7.000000e+000 4.000000e+000 0.000000e+000
         vertex 6.000000e+000 5.732051e+000 0.000000e+000
         vertex 6.732051e+000 5.000000e+000 0.000000e+000
      endloop
   endfacet
   facet normal 0.000000e+000 0.000000e+000 -1.000000e+000
      outer loop
         vertex 2.100000e+000 -2.100000e+000 0.000000e+000
         vertex 6.489357e-001 -1.997219e+000 0.000000e+000
         vertex 1.698936e+000 -1.234349e+000 0.000000e+000
      endloop
   endfacet
   facet normal 0.000000e+000 -0.000000e+000 -1.000000e+000
      outer loop
         vertex -2.100000e+000 -2.100000e+000 0.000000e+000
         vertex -1.698936e+000 -1.234349e+000 0.000000e+000
         vertex -6.489357e-001 -1.997219e+000 0.000000e+000
      endloop
   endfacet
   facet normal -0.000000e+000 0.000000e+000 -1.000000e+000
      outer loop
         vertex -2.100000e+000 2.100000e+000 0.000000e+000
         vertex -1.698936e+000 1.234349e+000 0.000000e+000
         vertex -2.100000e+000 2.571758e-016 0.000000e+000
      endloop
   endfacet
   facet normal 0.000000e+000 0.000000e+000 -1.000000e+000
      outer loop
         vertex 2.100000e+000 2.100000e+000 0.000000e+000
         vertex 1.698936e+000 1.234349e+000 0.000000e+000
         vertex 6.489357e-001 1.997219e+000 0.000000e+000
      endloop
   endfacet
   facet normal 0.000000e+000 0.000000e+000 -1.000000e+000
      outer loop
         vertex 6.489357e-001 -1.997219e+000 0.000000e+000
         vertex 2.100000e+000 -2.100000e+000 0.000000e+000
         vertex -2.100000e+000 -2.100000e+000 0.000000e+000
      endloop
   endfacet
   facet normal 0.000000e+000 0.000000e+000 -1.000000e+000
      outer loop
         vertex 2.100000e+000 2.100000e+000 0.000000e+000
         vertex -2.100000e+000 2.100000e+000 0.000000e+000
         vertex 5.000000e+000 6.000000e+000 0.000000e+000
      endloop
   endfacet
   facet normal 0.000000e+000 0.000000e+000 -1.000000e+000
      outer loop
         vertex -7.000000e+000 -4.000000e+000 0.000000e+000
         vertex -5.000000e+000 -6.000000e+000 0.000000e+000
         vertex -6.732051e+000 -5.000000e+000 0.000000e+000
      endloop
   endfacet
   facet normal 0.000000e+000 0.000000e+000 -1.000000e+000
      outer loop
         vertex 2.100000e+000 0.000000e+000 0.000000e+000
         vertex 2.100000e+000 -2.100000e+000 0.000000e+000
         vertex 1.698936e+000 -1.234349e+000 0.000000e+000
      endloop
   endfacet
   facet normal -0.000000e+000 -0.000000e+000 -1.000000e+000
      outer loop
         vertex -7.000000e+000 4.000000e+000 0.000000e+000
         vertex -2.100000e+000 2.100000e+000 0.000000e+000
         vertex -2.100000e+000 2.571758e-016 0.000000e+000
      endloop
   endfacet
   facet normal 0.000000e+000 0.000000e+000 -1.000000e+000
      outer loop
         vertex 2.100000e+000 0.000000e+000 0.000000e+000
         vertex 1.698936e+000 1.234349e+000 0.000000e+000
         vertex 2.100000e+000 2.100000e+000 0.000000e+000
      endloop
   endfacet
   facet normal 0.000000e+000 0.000000e+000 -1.000000e+000
      outer loop
         vertex -2.100000e+000 -2.100000e+000 0.000000e+000
         vertex -5.000000e+000 -6.000000e+000 0.000000e+000
         vertex -7.000000e+000 -4.000000e+000 0.000000e+000
      endloop
   endfacet
   facet normal 0.000000e+000 0.000000e+000 -1.000000e+000
      outer loop
         vertex -7.000000e+000 -4.000000e+000 0.000000e+000
         vertex -7.000000e+000 4.000000e+000 0.000000e+000
         vertex -2.100000e+000 2.571758e-016 0.000000e+000
      endloop
   endfacet
   facet normal -0.000000e+000 0.000000e+000 -1.000000e+000
      outer loop
         vertex -2.100000e+000 2.571758e-016 0.000000e+000
         vertex -2.100000e+000 -2.100000e+000 0.000000e+000
         vertex -7.000000e+000 -4.000000e+000 0.000000e+000
      endloop
   endfacet
   facet normal 0.000000e+000 0.000000e+000 -1.000000e+000
      outer loop
         vertex -1.698936e+000 -1.234349e+000 0.000000e+000
         vertex -2.100000e+000 -2.100000e+000 0.000000e+000
         vertex -2.100000e+000 2.571758e-016 0.000000e+000
      endloop
   endfacet
   facet normal 0.000000e+000 0.000000e+000 -1.000000e+000
      outer loop
         vertex -2.100000e+000 -2.100000e+000 0.000000e+000
         vertex 5.000000e+000 -6.000000e+000 0.000000e+000
         vertex -5.000000e+000 -6.000000e+000 0.000000e+000
      endloop
   endfacet
   facet normal 0.000000e+000 0.000000e+000 -1.000000e+000
      outer loop
         vertex 7.000000e+000 4.000000e+000 0.000000e+000
         vertex 5.000000e+000 6.000000e+000 0.000000e+000
         vertex 6.000000e+000 5.732051e+000 0.000000e+000
      endloop
   endfacet
   facet normal -0.000000e+000 0.000000e+000 -1.000000e+000
      outer loop
         vertex -2.100000e+000 2.100000e+000 0.000000e+000
         vertex -6.489357e-001 1.997219e+000 0.000000e+000
         vertex -1.698936e+000 1.234349e+000 0.000000e+000
      endloop
   endfacet
   facet normal 0.000000e+000 0.000000e+000 -1.000000e+000
      outer loop
         vertex -6.489357e-001 1.997219e+000 0.000000e+000
         vertex -2.100000e+000 2.100000e+000 0.000000e+000
         vertex 2.100000e+000 2.100000e+000 0.000000e+000
      endloop
   endfacet
   facet normal 0.000000e+000 0.000000e+000 -1.000000e+000
      outer loop
         vertex -2.100000e+000 2.100000e+000 0.000000e+000
         vertex -7.000000e+000 4.000000e+000 0.000000e+000
         vertex -5.000000e+000 6.000000e+000 0.000000e+000
      endloop
   endfacet
   facet normal 0.000000e+000 0.000000e+000 -1.000000e+000
      outer loop
         vertex -6.489357e-001 1.997219e+000 0.000000e+000
         vertex 2.100000e+000 2.100000e+000 0.000000e+000
         vertex 6.489357e-001 1.997219e+000 0.000000e+000
      endloop
   endfacet
   facet normal 0.000000e+000 0.000000e+000 -1.000000e+000
      outer loop
         vertex 7.000000e+000 -4.000000e+000 0.000000e+000
         vertex 2.100000e+000 -2.100000e+000 0.000000e+000
         vertex 2.100000e+000 0.000000e+000 0.000000e+000
      endloop
   endfacet
   facet normal 0.000000e+000 0.000000e+000 -1.000000e+000
      outer loop
         vertex 2.100000e+000 -2.100000e+000 0.000000e+000
         vertex 5.000000e+000 -6.000000e+000 0.000000e+000
         vertex -2.100000e+000 -2.100000e+000 0.000000e+000
      endloop
   endfacet
   facet normal 0.000000e+000 0.000000e+000 -1.000000e+000
      outer loop
         vertex 5.000000e+000 -6.000000e+000 0.000000e+000
         vertex 2.100000e+000 -2.100000e+000 0.000000e+000
         vertex 7.000000e+000 -4.000000e+000 0.000000e+000
      endloop
   endfacet
   facet normal 0.000000e+000 -0.000000e+000 -1.000000e+000
      outer loop
         vertex 2.100000e+000 0.000000e+000 0.000000e+000
         vertex 7.000000e+000 4.000000e+000 0.000000e+000
         vertex 7.000000e+000 -4.000000e+000 0.000000e+000
      endloop
   endfacet
   facet normal 0.000000e+000 0.000000e+000 -1.000000e+000
      outer loop
         vertex 6.489357e-001 -1.997219e+000 0.000000e+000
         vertex -2.100000e+000 -2.100000e+000 0.000000e+000
         vertex -6.489357e-001 -1.997219e+000 0.000000e+000
      endloop
   endfacet
   facet normal 0.000000e+000 -0.000000e+000 -1.000000e+000
      outer loop
         vertex 2.100000e+000 2.100000e+000 0.000000e+000
         vertex 5.000000e+000 6.000000e+000 0.000000e+000
         vertex 7.000000e+000 4.000000e+000 0.000000e+000
      endloop
   endfacet
   facet normal 0.000000e+000 0.000000e+000 -1.000000e+000
      outer loop
         vertex 7.000000e+000 4.000000e+000 0.000000e+000
         vertex 2.100000e+000 0.000000e+000 0.000000e+000
         vertex 2.100000e+000 2.100000e+000 0.000000e+000
      endloop
   endfacet
   facet normal -2.588190e-001 9.659258e-001 0.000000e+000
      outer loop
         vertex -5.000000e+000 6.000000e+000 1.200000e+001
         vertex -5.000000e+000 6.000000e+000 0.000000e+000
         vertex -6.000000e+000 5.732051e+000 1.200000e+001
      endloop
   endfacet
   facet normal -9.238210e-001 3.826591e-001 -1.126017e-002
      outer loop
         vertex -6.414214e+000 5.414214e+000 0.000000e+000
         vertex -7.000000e+000 4.000000e+000 0.000000e+000
         vertex -6.732051e+000 5.000000e+000 1.200000e+001
      endloop
   endfacet
   facet normal -9.659258e-001 2.588190e-001 0.000000e+000
      outer loop
         vertex -7.000000e+000 4.000000e+000 1.200000e+001
         vertex -6.732051e+000 5.000000e+000 1.200000e+001
         vertex -7.000000e+000 4.000000e+000 0.000000e+000
      endloop
   endfacet
   facet normal -7.070954e-001 7.070954e-001 5.678943e-003
      outer loop
         vertex -6.414214e+000 5.414214e+000 0.000000e+000
         vertex -6.732051e+000 5.000000e+000 1.200000e+001
         vertex -6.000000e+000 5.732051e+000 1.200000e+001
      endloop
   endfacet
   facet normal -3.826591e-001 9.238210e-001 -1.126017e-002
      outer loop
         vertex -5.000000e+000 6.000000e+000 0.000000e+000
         vertex -6.414214e+000 5.414214e+000 0.000000e+000
         vertex -6.000000e+000 5.732051e+000 1.200000e+001
      endloop
   endfacet
   facet normal 9.659258e-001 2.588190e-001 -0.000000e+000
      outer loop
         vertex 7.000000e+000 4.000000e+000 1.200000e+001
         vertex 7.000000e+000 4.000000e+000 0.000000e+000
         vertex 6.732051e+000 5.000000e+000 0.000000e+000
      endloop
   endfacet
   facet normal 2.588190e-001 9.659258e-001 -0.000000e+000
      outer loop
         vertex 6.000000e+000 5.732051e+000 0.000000e+000
         vertex 5.000000e+000 6.000000e+000 0.000000e+000
         vertex 5.000000e+000 6.000000e+000 1.200000e+001
      endloop
   endfacet
   facet normal 7.071068e-001 7.071068e-001 0.000000e+000
      outer loop
         vertex 6.000000e+000 5.732051e+000 1.200000e+001
         vertex 6.732051e+000 5.000000e+000 1.200000e+001
         vertex 6.732051e+000 5.000000e+000 0.000000e+000
      endloop
   endfacet
   facet normal 9.659258e-001 2.588190e-001 -0.000000e+000
      outer loop
         vertex 7.000000e+000 4.000000e+000 1.200000e+001
         vertex 6.732051e+000 5.000000e+000 0.000000e+000
         vertex 6.732051e+000 5.000000e+000 1.200000e+001
      endloop
   endfacet
   facet normal 7.071068e-001 7.071068e-001 -0.000000e+000
      outer loop
         vertex 6.732051e+000 5.000000e+000 0.000000e+000
         vertex 6.000000e+000 5.732051e+000 0.000000e+000
         vertex 6.000000e+000 5.732051e+000 1.200000e+001
      endloop
   endfacet
   facet normal 2.588190e-001 9.659258e-001 0.000000e+000
      outer loop
         vertex 6.000000e+000 5.732051e+000 0.000000e+000
         vertex 5.000000e+000 6.000000e+000 1.200000e+001
         vertex 6.000000e+000 5.732051e+000 1.200000e+001
      endloop
   endfacet
   facet normal 1.000000e+000 0.000000e+000 0.000000e+000
      outer loop
         vertex -6.050000e+000 4.650000e+000 2.000000e+000
         vertex -6.050000e+000 -4.650000e+000 1.200000e+001
         vertex -6.050000e+000 -4.650000e+000 2.000000e+000
      endloop
   endfacet
   facet normal 1.000000e+000 0.000000e+000 -0.000000e+000
      outer loop
         vertex -6.050000e+000 -4.650000e+000 1.200000e+001
         vertex -6.050000e+000 4.650000e+000 2.000000e+000
         vertex -6.050000e+000 4.650000e+000 1.200000e+001
      endloop
   endfacet
   facet normal 2.588192e-001 9.659258e-001 0.000000e+000
      outer loop
         vertex -5.850000e+000 -4.996410e+000 1.200000e+001
         vertex -5.650000e+000 -5.050000e+000 1.200000e+001
         vertex -5.650000e+000 -5.050000e+000 2.000000e+000
      endloop
   endfacet
   facet normal 9.659258e-001 2.588192e-001 0.000000e+000
      outer loop
         vertex -6.050000e+000 -4.650000e+000 2.000000e+000
         vertex -6.050000e+000 -4.650000e+000 1.200000e+001
         vertex -5.996410e+000 -4.850000e+000 1.200000e+001
      endloop
   endfacet
   facet normal 7.071068e-001 7.071068e-001 -0.000000e+000
      outer loop
         vertex -5.850000e+000 -4.996410e+000 1.200000e+001
         vertex -5.850000e+000 -4.996410e+000 2.000000e+000
         vertex -5.996410e+000 -4.850000e+000 2.000000e+000
      endloop
   endfacet
   facet normal 2.588192e-001 9.659258e-001 0.000000e+000
      outer loop
         vertex -5.850000e+000 -4.996410e+000 2.000000e+000
         vertex -5.850000e+000 -4.996410e+000 1.200000e+001
         vertex -5.650000e+000 -5.050000e+000 2.000000e+000
      endloop
   endfacet
   facet normal 7.071068e-001 7.071068e-001 0.000000e+000
      outer loop
         vertex -5.996410e+000 -4.850000e+000 2.000000e+000
         vertex -5.996410e+000 -4.850000e+000 1.200000e+001
         vertex -5.850000e+000 -4.996410e+000 1.200000e+001
      endloop
   endfacet
   facet normal 9.659258e-001 2.588192e-001 0.000000e+000
      outer loop
         vertex -5.996410e+000 -4.850000e+000 2.000000e+000
         vertex -6.050000e+000 -4.650000e+000 2.000000e+000
         vertex -5.996410e+000 -4.850000e+000 1.200000e+001
      endloop
   endfacet
   facet normal 0.000000e+000 1.000000e+000 0.000000e+000
      outer loop
         vertex -5.650000e+000 -5.050000e+000 2.000000e+000
         vertex 5.650000e+000 -5.050000e+000 1.200000e+001
         vertex 5.650000e+000 -5.050000e+000 2.000000e+000
      endloop
   endfacet
   facet normal 0.000000e+000 1.000000e+000 0.000000e+000
      outer loop
         vertex 5.650000e+000 -5.050000e+000 1.200000e+001
         vertex -5.650000e+000 -5.050000e+000 2.000000e+000
         vertex -5.650000e+000 -5.050000e+000 1.200000e+001
      endloop
   endfacet
   facet normal -9.659258e-001 2.588192e-001 0.000000e+000
      outer loop
         vertex 5.996410e+000 -4.850000e+000 1.200000e+001
         vertex 6.050000e+000 -4.650000e+000 1.200000e+001
         vertex 6.050000e+000 -4.650000e+000 2.000000e+000
      endloop
   endfacet
   facet normal -2.588192e-001 9.659258e-001 0.000000e+000
      outer loop
         vertex 5.650000e+000 -5.050000e+000 2.000000e+000
         vertex 5.650000e+000 -5.050000e+000 1.200000e+001
         vertex 5.850000e+000 -4.996410e+000 1.200000e+001
      endloop
   endfacet
   facet normal -7.071068e-001 7.071068e-001 0.000000e+000
      outer loop
         vertex 5.996410e+000 -4.850000e+000 1.200000e+001
         vertex 5.996410e+000 -4.850000e+000 2.000000e+000
         vertex 5.850000e+000 -4.996410e+000 2.000000e+000
      endloop
   endfacet
   facet normal -9.659258e-001 2.588192e-001 0.000000e+000
      outer loop
         vertex 5.996410e+000 -4.850000e+000 2.000000e+000
         vertex 5.996410e+000 -4.850000e+000 1.200000e+001
         vertex 6.050000e+000 -4.650000e+000 2.000000e+000
      endloop
   endfacet
   facet normal -7.071068e-001 7.071068e-001 0.000000e+000
      outer loop
         vertex 5.850000e+000 -4.996410e+000 2.000000e+000
         vertex 5.850000e+000 -4.996410e+000 1.200000e+001
         vertex 5.996410e+000 -4.850000e+000 1.200000e+001
      endloop
   endfacet
   facet normal -2.588192e-001 9.659258e-001 0.000000e+000
      outer loop
         vertex 5.850000e+000 -4.996410e+000 2.000000e+000
         vertex 5.650000e+000 -5.050000e+000 2.000000e+000
         vertex 5.850000e+000 -4.996410e+000 1.200000e+001
      endloop
   endfacet
   facet normal -1.000000e+000 0.000000e+000 -0.000000e+000
      outer loop
         vertex 6.050000e+000 -4.650000e+000 2.000000e+000
         vertex 6.050000e+000 4.650000e+000 1.200000e+001
         vertex 6.050000e+000 4.650000e+000 2.000000e+000
      endloop
   endfacet
   facet normal -1.000000e+000 0.000000e+000 0.000000e+000
      outer loop
         vertex 6.050000e+000 4.650000e+000 1.200000e+001
         vertex 6.050000e+000 -4.650000e+000 2.000000e+000
         vertex 6.050000e+000 -4.650000e+000 1.200000e+001
      endloop
   endfacet
   facet normal -9.510565e-001 -3.090169e-001 0.000000e+000
      outer loop
         vertex 1.698936e+000 1.234349e+000 0.000000e+000
         vertex 2.100000e+000 0.000000e+000 0.000000e+000
         vertex 2.100000e+000 0.000000e+000 2.000000e+000
      endloop
   endfacet
   facet normal 0.000000e+000 -1.000000e+000 0.000000e+000
      outer loop
         vertex -6.489357e-001 1.997219e+000 2.000000e+000
         vertex -6.489357e-001 1.997219e+000 0.000000e+000
         vertex 6.489357e-001 1.997219e+000 0.000000e+000
      endloop
   endfacet
   facet normal 9.510565e-001 -3.090169e-001 0.000000e+000
      outer loop
         vertex -2.100000e+000 2.571758e-016 2.000000e+000
         vertex -2.100000e+000 2.571758e-016 0.000000e+000
         vertex -1.698936e+000 1.234349e+000 0.000000e+000
      endloop
   endfacet
   facet normal 5.877853e-001 8.090170e-001 -0.000000e+000
      outer loop
         vertex -6.489357e-001 -1.997219e+000 2.000000e+000
         vertex -6.489357e-001 -1.997219e+000 0.000000e+000
         vertex -1.698936e+000 -1.234349e+000 0.000000e+000
      endloop
   endfacet
   facet normal -5.877853e-001 8.090170e-001 0.000000e+000
      outer loop
         vertex 1.698936e+000 -1.234349e+000 2.000000e+000
         vertex 1.698936e+000 -1.234349e+000 0.000000e+000
         vertex 6.489357e-001 -1.997219e+000 0.000000e+000
      endloop
   endfacet
   facet normal -9.510565e-001 3.090169e-001 0.000000e+000
      outer loop
         vertex 1.698936e+000 -1.234349e+000 0.000000e+000
         vertex 2.100000e+000 0.000000e+000 2.000000e+000
         vertex 2.100000e+000 0.000000e+000 0.000000e+000
      endloop
   endfacet
   facet normal -0.000000e+000 1.000000e+000 0.000000e+000
      outer loop
         vertex -6.489357e-001 -1.997219e+000 0.000000e+000
         vertex -6.489357e-001 -1.997219e+000 2.000000e+000
         vertex 6.489357e-001 -1.997219e+000 2.000000e+000
      endloop
   endfacet
   facet normal 9.510565e-001 3.090169e-001 0.000000e+000
      outer loop
         vertex -2.100000e+000 2.571758e-016 0.000000e+000
         vertex -2.100000e+000 2.571758e-016 2.000000e+000
         vertex -1.698936e+000 -1.234349e+000 2.000000e+000
      endloop
   endfacet
   facet normal 5.877853e-001 -8.090170e-001 0.000000e+000
      outer loop
         vertex -6.489357e-001 1.997219e+000 0.000000e+000
         vertex -6.489357e-001 1.997219e+000 2.000000e+000
         vertex -1.698936e+000 1.234349e+000 2.000000e+000
      endloop
   endfacet
   facet normal -5.877853e-001 -8.090170e-001 -0.000000e+000
      outer loop
         vertex 1.698936e+000 1.234349e+000 0.000000e+000
         vertex 1.698936e+000 1.234349e+000 2.000000e+000
         vertex 6.489357e-001 1.997219e+000 2.000000e+000
      endloop
   endfacet
   facet normal -9.510565e-001 -3.090169e-001 0.000000e+000
      outer loop
         vertex 1.698936e+000 1.234349e+000 2.000000e+000
         vertex 1.698936e+000 1.234349e+000 0.000000e+000
         vertex 2.100000e+000 0.000000e+000 2.000000e+000
      endloop
   endfacet
   facet normal 5.877853e-001 8.090170e-001 0.000000e+000
      outer loop
         vertex -1.698936e+000 -1.234349e+000 2.000000e+000
         vertex -6.489357e-001 -1.997219e+000 2.000000e+000
         vertex -1.698936e+000 -1.234349e+000 0.000000e+000
      endloop
   endfacet
   facet normal -9.510565e-001 3.090169e-001 0.000000e+000
      outer loop
         vertex 1.698936e+000 -1.234349e+000 2.000000e+000
         vertex 2.100000e+000 0.000000e+000 2.000000e+000
         vertex 1.698936e+000 -1.234349e+000 0.000000e+000
      endloop
   endfacet
   facet normal -5.877853e-001 -8.090170e-001 0.000000e+000
      outer loop
         vertex 6.489357e-001 1.997219e+000 0.000000e+000
         vertex 1.698936e+000 1.234349e+000 0.000000e+000
         vertex 6.489357e-001 1.997219e+000 2.000000e+000
      endloop
   endfacet
   facet normal 5.877853e-001 -8.090170e-001 0.000000e+000
      outer loop
         vertex -1.698936e+000 1.234349e+000 2.000000e+000
         vertex -1.698936e+000 1.234349e+000 0.000000e+000
         vertex -6.489357e-001 1.997219e+000 0.000000e+000
      endloop
   endfacet
   facet normal 0.000000e+000 1.000000e+000 -0.000000e+000
      outer loop
         vertex 6.489357e-001 -1.997219e+000 2.000000e+000
         vertex 6.489357e-001 -1.997219e+000 0.000000e+000
         vertex -6.489357e-001 -1.997219e+000 0.000000e+000
      endloop
   endfacet
   facet normal 9.510565e-001 -3.090169e-001 0.000000e+000
      outer loop
         vertex -1.698936e+000 1.234349e+000 0.000000e+000
         vertex -1.698936e+000 1.234349e+000 2.000000e+000
         vertex -2.100000e+000 2.571758e-016 2.000000e+000
      endloop
   endfacet
   facet normal 0.000000e+000 -1.000000e+000 0.000000e+000
      outer loop
         vertex 6.489357e-001 1.997219e+000 2.000000e+000
         vertex -6.489357e-001 1.997219e+000 2.000000e+000
         vertex 6.489357e-001 1.997219e+000 0.000000e+000
      endloop
   endfacet
   facet normal 9.510565e-001 3.090169e-001 0.000000e+000
      outer loop
         vertex -2.100000e+000 2.571758e-016 0.000000e+000
         vertex -1.698936e+000 -1.234349e+000 2.000000e+000
         vertex -1.698936e+000 -1.234349e+000 0.000000e+000
      endloop
   endfacet
   facet normal -5.877853e-001 8.090170e-001 0.000000e+000
      outer loop
         vertex 6.489357e-001 -1.997219e+000 0.000000e+000
         vertex 6.489357e-001 -1.997219e+000 2.000000e+000
         vertex 1.698936e+000 -1.234349e+000 2.000000e+000
      endloop
   endfacet
   facet normal -1.000000e+000 0.000000e+000 0.000000e+000
      outer loop
         vertex -7.000000e+000 4.000000e+000 1.200000e+001
         vertex -7.000000e+000 4.000000e+000 0.000000e+000
         vertex -7.000000e+000 -4.000000e+000 0.000000e+000
      endloop
   endfacet
   facet normal -1.000000e+000 -0.000000e+000 0.000000e+000
      outer loop
         vertex -7.000000e+000 -4.000000e+000 1.200000e+001
         vertex -7.000000e+000 4.000000e+000 1.200000e+001
         vertex -7.000000e+000 -4.000000e+000 0.000000e+000
      endloop
   endfacet
   facet normal -9.659258e-001 -2.588190e-001 0.000000e+000
      outer loop
         vertex -7.000000e+000 -4.000000e+000 1.200000e+001
         vertex -7.000000e+000 -4.000000e+000 0.000000e+000
         vertex -6.732051e+000 -5.000000e+000 0.000000e+000
      endloop
   endfacet
   facet normal -2.588190e-001 -9.659258e-001 0.000000e+000
      outer loop
         vertex -6.000000e+000 -5.732051e+000 0.000000e+000
         vertex -5.000000e+000 -6.000000e+000 0.000000e+000
         vertex -5.000000e+000 -6.000000e+000 1.200000e+001
      endloop
   endfacet
   facet normal -7.071068e-001 -7.071068e-001 -0.000000e+000
      outer loop
         vertex -6.000000e+000 -5.732051e+000 1.200000e+001
         vertex -6.732051e+000 -5.000000e+000 1.200000e+001
         vertex -6.732051e+000 -5.000000e+000 0.000000e+000
      endloop
   endfacet
   facet normal -9.659258e-001 -2.588190e-001 0.000000e+000
      outer loop
         vertex -7.000000e+000 -4.000000e+000 1.200000e+001
         vertex -6.732051e+000 -5.000000e+000 0.000000e+000
         vertex -6.732051e+000 -5.000000e+000 1.200000e+001
      endloop
   endfacet
   facet normal -7.071068e-001 -7.071068e-001 0.000000e+000
      outer loop
         vertex -6.732051e+000 -5.000000e+000 0.000000e+000
         vertex -6.000000e+000 -5.732051e+000 0.000000e+000
         vertex -6.000000e+000 -5.732051e+000 1.200000e+001
      endloop
   endfacet
   facet normal -2.588190e-001 -9.659258e-001 0.000000e+000
      outer loop
         vertex -6.000000e+000 -5.732051e+000 0.000000e+000
         vertex -5.000000e+000 -6.000000e+000 1.200000e+001
         vertex -6.000000e+000 -5.732051e+000 1.200000e+001
      endloop
   endfacet
   facet normal 0.000000e+000 -1.000000e+000 0.000000e+000
      outer loop
         vertex -5.000000e+000 -6.000000e+000 1.200000e+001
         vertex -5.000000e+000 -6.000000e+000 0.000000e+000
         vertex 5.000000e+000 -6.000000e+000 0.000000e+000
      endloop
   endfacet
   facet normal 0.000000e+000 -1.000000e+000 0.000000e+000
      outer loop
         vertex 5.000000e+000 -6.000000e+000 1.200000e+001
         vertex -5.000000e+000 -6.000000e+000 1.200000e+001
         vertex 5.000000e+000 -6.000000e+000 0.000000e+000
      endloop
   endfacet
   facet normal 2.588190e-001 -9.659258e-001 0.000000e+000
      outer loop
         vertex 5.000000e+000 -6.000000e+000 1.200000e+001
         vertex 5.000000e+000 -6.000000e+000 0.000000e+000
         vertex 6.000000e+000 -5.732051e+000 0.000000e+000
      endloop
   endfacet
   facet normal 9.659258e-001 -2.588190e-001 0.000000e+000
      outer loop
         vertex 6.732051e+000 -5.000000e+000 0.000000e+000
         vertex 7.000000e+000 -4.000000e+000 0.000000e+000
         vertex 7.000000e+000 -4.000000e+000 1.200000e+001
      endloop
   endfacet
   facet normal 7.071068e-001 -7.071068e-001 0.000000e+000
      outer loop
         vertex 6.732051e+000 -5.000000e+000 1.200000e+001
         vertex 6.000000e+000 -5.732051e+000 1.200000e+001
         vertex 6.000000e+000 -5.732051e+000 0.000000e+000
      endloop
   endfacet
   facet normal 2.588190e-001 -9.659258e-001 0.000000e+000
      outer loop
         vertex 5.000000e+000 -6.000000e+000 1.200000e+001
         vertex 6.000000e+000 -5.732051e+000 0.000000e+000
         vertex 6.000000e+000 -5.732051e+000 1.200000e+001
      endloop
   endfacet
   facet normal 7.071068e-001 -7.071068e-001 0.000000e+000
      outer loop
         vertex 6.000000e+000 -5.732051e+000 0.000000e+000
         vertex 6.732051e+000 -5.000000e+000 0.000000e+000
         vertex 6.732051e+000 -5.000000e+000 1.200000e+001
      endloop
   endfacet
   facet normal 9.659258e-001 -2.588190e-001 0.000000e+000
      outer loop
         vertex 6.732051e+000 -5.000000e+000 0.000000e+000
         vertex 7.000000e+000 -4.000000e+000 1.200000e+001
         vertex 6.732051e+000 -5.000000e+000 1.200000e+001
      endloop
   endfacet
   facet normal 1.000000e+000 0.000000e+000 0.000000e+000
      outer loop
         vertex 7.000000e+000 -4.000000e+000 1.200000e+001
         vertex 7.000000e+000 -4.000000e+000 0.000000e+000
         vertex 7.000000e+000 4.000000e+000 0.000000e+000
      endloop
   endfacet
   facet normal 1.000000e+000 -0.000000e+000 0.000000e+000
      outer loop
         vertex 7.000000e+000 4.000000e+000 1.200000e+001
         vertex 7.000000e+000 -4.000000e+000 1.200000e+001
         vertex 7.000000e+000 4.000000e+000 0.000000e+000
      endloop
   endfacet
endsolid
