solid 
   facet normal 0.000000e+000 -1.000000e+000 0.000000e+000
      outer loop
         vertex -5.000000e+001 0.000000e+000 3.000000e+000
         vertex -5.000000e+001 0.000000e+000 0.000000e+000
         vertex -4.500000e+001 0.000000e+000 -8.881784e-016
      endloop
   endfacet
   facet normal 0.000000e+000 -1.000000e+000 0.000000e+000
      outer loop
         vertex -4.308658e+001 0.000000e+000 -3.806023e-001
         vertex -4.146447e+001 0.000000e+000 -1.464466e+000
         vertex -3.600000e+001 0.000000e+000 3.000000e+000
      endloop
   endfacet
   facet normal 0.000000e+000 -1.000000e+000 0.000000e+000
      outer loop
         vertex -4.038060e+001 0.000000e+000 -3.086583e+000
         vertex -4.000000e+001 0.000000e+000 -5.000000e+000
         vertex -3.600000e+001 0.000000e+000 3.000000e+000
      endloop
   endfacet
   facet normal 0.000000e+000 -1.000000e+000 0.000000e+000
      outer loop
         vertex -4.000000e+001 0.000000e+000 -3.400000e+001
         vertex -3.961940e+001 0.000000e+000 -3.591342e+001
         vertex -3.453553e+001 0.000000e+000 -3.353553e+001
      endloop
   endfacet
   facet normal 0.000000e+000 -1.000000e+000 0.000000e+000
      outer loop
         vertex -3.853553e+001 0.000000e+000 -3.753553e+001
         vertex -3.691342e+001 0.000000e+000 -3.861940e+001
         vertex -3.453553e+001 0.000000e+000 -3.353553e+001
      endloop
   endfacet
   facet normal 0.000000e+000 -1.000000e+000 0.000000e+000
      outer loop
         vertex -3.500000e+001 0.000000e+000 -3.900000e+001
         vertex 3.500000e+001 0.000000e+000 -3.900000e+001
         vertex 3.100000e+001 0.000000e+000 -3.500000e+001
      endloop
   endfacet
   facet normal -0.000000e+000 -1.000000e+000 0.000000e+000
      outer loop
         vertex 3.691342e+001 0.000000e+000 -3.861940e+001
         vertex 3.853553e+001 0.000000e+000 -3.753553e+001
         vertex 3.453553e+001 0.000000e+000 -3.353553e+001
      endloop
   endfacet
   facet normal -0.000000e+000 -1.000000e+000 0.000000e+000
      outer loop
         vertex 3.961940e+001 0.000000e+000 -3.591342e+001
         vertex 4.000000e+001 0.000000e+000 -3.400000e+001
         vertex 3.453553e+001 0.000000e+000 -3.353553e+001
      endloop
   endfacet
   facet normal -7.942497e-016 -1.000000e+000 1.579867e-016
      outer loop
         vertex 4.000000e+001 0.000000e+000 -5.000000e+000
         vertex 4.038060e+001 0.000000e+000 -3.086583e+000
         vertex 3.600000e+001 4.440892e-015 3.000000e+000
      endloop
   endfacet
   facet normal -3.656256e-016 -1.000000e+000 5.471972e-016
      outer loop
         vertex 4.146447e+001 0.000000e+000 -1.464466e+000
         vertex 4.308658e+001 0.000000e+000 -3.806023e-001
         vertex 3.600000e+001 4.440892e-015 3.000000e+000
      endloop
   endfacet
   facet normal 2.833712e-016 -1.000000e+000 0.000000e+000
      outer loop
         vertex 4.500000e+001 3.595008e-016 0.000000e+000
         vertex 5.000000e+001 1.776357e-015 0.000000e+000
         vertex 5.000000e+001 1.776357e-015 3.000000e+000
      endloop
   endfacet
   facet normal -8.410780e-016 -1.000000e+000 1.345725e-016
      outer loop
         vertex 3.600000e+001 4.440892e-015 3.000000e+000
         vertex 3.600000e+001 0.000000e+000 -3.000000e+001
         vertex 4.000000e+001 0.000000e+000 -5.000000e+000
      endloop
   endfacet
   facet normal 0.000000e+000 -1.000000e+000 0.000000e+000
      outer loop
         vertex 3.561940e+001 0.000000e+000 -3.191342e+001
         vertex 3.453553e+001 0.000000e+000 -3.353553e+001
         vertex 4.000000e+001 0.000000e+000 -3.400000e+001
      endloop
   endfacet
   facet normal 0.000000e+000 -1.000000e+000 0.000000e+000
      outer loop
         vertex 3.291342e+001 0.000000e+000 -3.461940e+001
         vertex 3.100000e+001 0.000000e+000 -3.500000e+001
         vertex 3.500000e+001 0.000000e+000 -3.900000e+001
      endloop
   endfacet
   facet normal 0.000000e+000 -1.000000e+000 -0.000000e+000
      outer loop
         vertex -3.100000e+001 0.000000e+000 -3.500000e+001
         vertex -3.291342e+001 0.000000e+000 -3.461940e+001
         vertex -3.500000e+001 0.000000e+000 -3.900000e+001
      endloop
   endfacet
   facet normal 0.000000e+000 -1.000000e+000 -0.000000e+000
      outer loop
         vertex -3.453553e+001 0.000000e+000 -3.353553e+001
         vertex -3.561940e+001 0.000000e+000 -3.191342e+001
         vertex -4.000000e+001 0.000000e+000 -3.400000e+001
      endloop
   endfacet
   facet normal 0.000000e+000 -1.000000e+000 -0.000000e+000
      outer loop
         vertex -3.600000e+001 0.000000e+000 -3.000000e+001
         vertex -3.600000e+001 0.000000e+000 3.000000e+000
         vertex -4.000000e+001 0.000000e+000 -5.000000e+000
      endloop
   endfacet
   facet normal 0.000000e+000 -1.000000e+000 0.000000e+000
      outer loop
         vertex -5.000000e+001 0.000000e+000 3.000000e+000
         vertex -4.500000e+001 0.000000e+000 -8.881784e-016
         vertex -3.600000e+001 0.000000e+000 3.000000e+000
      endloop
   endfacet
   facet normal 0.000000e+000 -1.000000e+000 0.000000e+000
      outer loop
         vertex -4.038060e+001 0.000000e+000 -3.086583e+000
         vertex -3.600000e+001 0.000000e+000 3.000000e+000
         vertex -4.146447e+001 0.000000e+000 -1.464466e+000
      endloop
   endfacet
   facet normal -0.000000e+000 -1.000000e+000 0.000000e+000
      outer loop
         vertex -3.500000e+001 0.000000e+000 -3.900000e+001
         vertex 3.100000e+001 0.000000e+000 -3.500000e+001
         vertex -3.100000e+001 0.000000e+000 -3.500000e+001
      endloop
   endfacet
   facet normal 0.000000e+000 -1.000000e+000 0.000000e+000
      outer loop
         vertex 3.961940e+001 0.000000e+000 -3.591342e+001
         vertex 3.453553e+001 0.000000e+000 -3.353553e+001
         vertex 3.853553e+001 0.000000e+000 -3.753553e+001
      endloop
   endfacet
   facet normal -1.903239e-016 -1.000000e+000 7.894919e-016
      outer loop
         vertex 4.500000e+001 3.595008e-016 0.000000e+000
         vertex 5.000000e+001 1.776357e-015 3.000000e+000
         vertex 3.600000e+001 4.440892e-015 3.000000e+000
      endloop
   endfacet
   facet normal 0.000000e+000 -1.000000e+000 0.000000e+000
      outer loop
         vertex 3.291342e+001 0.000000e+000 -3.461940e+001
         vertex 3.500000e+001 0.000000e+000 -3.900000e+001
         vertex 3.453553e+001 0.000000e+000 -3.353553e+001
      endloop
   endfacet
   facet normal 0.000000e+000 -1.000000e+000 0.000000e+000
      outer loop
         vertex -3.600000e+001 0.000000e+000 -3.000000e+001
         vertex -4.000000e+001 0.000000e+000 -5.000000e+000
         vertex -4.000000e+001 0.000000e+000 -3.400000e+001
      endloop
   endfacet
   facet normal 0.000000e+000 -1.000000e+000 0.000000e+000
      outer loop
         vertex 3.453553e+001 0.000000e+000 -3.353553e+001
         vertex 3.500000e+001 0.000000e+000 -3.900000e+001
         vertex 3.691342e+001 0.000000e+000 -3.861940e+001
      endloop
   endfacet
   facet normal 0.000000e+000 -1.000000e+000 0.000000e+000
      outer loop
         vertex -4.500000e+001 0.000000e+000 -8.881784e-016
         vertex -4.308658e+001 0.000000e+000 -3.806023e-001
         vertex -3.600000e+001 0.000000e+000 3.000000e+000
      endloop
   endfacet
   facet normal 0.000000e+000 -1.000000e+000 0.000000e+000
      outer loop
         vertex -3.691342e+001 0.000000e+000 -3.861940e+001
         vertex -3.500000e+001 0.000000e+000 -3.900000e+001
         vertex -3.453553e+001 0.000000e+000 -3.353553e+001
      endloop
   endfacet
   facet normal -5.257035e-016 -1.000000e+000 3.512633e-016
      outer loop
         vertex 4.038060e+001 0.000000e+000 -3.086583e+000
         vertex 4.146447e+001 0.000000e+000 -1.464466e+000
         vertex 3.600000e+001 4.440892e-015 3.000000e+000
      endloop
   endfacet
   facet normal 0.000000e+000 -1.000000e+000 0.000000e+000
      outer loop
         vertex 3.600000e+001 0.000000e+000 -3.000000e+001
         vertex 3.561940e+001 0.000000e+000 -3.191342e+001
         vertex 4.000000e+001 0.000000e+000 -3.400000e+001
      endloop
   endfacet
   facet normal 0.000000e+000 -1.000000e+000 -0.000000e+000
      outer loop
         vertex -3.561940e+001 0.000000e+000 -3.191342e+001
         vertex -3.600000e+001 0.000000e+000 -3.000000e+001
         vertex -4.000000e+001 0.000000e+000 -3.400000e+001
      endloop
   endfacet
   facet normal 0.000000e+000 -1.000000e+000 0.000000e+000
      outer loop
         vertex -3.853553e+001 0.000000e+000 -3.753553e+001
         vertex -3.453553e+001 0.000000e+000 -3.353553e+001
         vertex -3.961940e+001 0.000000e+000 -3.591342e+001
      endloop
   endfacet
   facet normal -5.181121e-017 -1.000000e+000 1.205030e-015
      outer loop
         vertex 4.500000e+001 3.595008e-016 0.000000e+000
         vertex 3.600000e+001 4.440892e-015 3.000000e+000
         vertex 4.308658e+001 0.000000e+000 -3.806023e-001
      endloop
   endfacet
   facet normal 0.000000e+000 -1.000000e+000 -0.000000e+000
      outer loop
         vertex 4.000000e+001 0.000000e+000 -3.400000e+001
         vertex 4.000000e+001 0.000000e+000 -5.000000e+000
         vertex 3.600000e+001 0.000000e+000 -3.000000e+001
      endloop
   endfacet
   facet normal -0.000000e+000 -1.000000e+000 0.000000e+000
      outer loop
         vertex -3.500000e+001 0.000000e+000 -3.900000e+001
         vertex -3.291342e+001 0.000000e+000 -3.461940e+001
         vertex -3.453553e+001 0.000000e+000 -3.353553e+001
      endloop
   endfacet
   facet normal -0.000000e+000 1.000000e+000 0.000000e+000
      outer loop
         vertex -4.308658e+001 2.000000e+001 -3.806023e-001
         vertex -4.500000e+001 2.000000e+001 -8.881784e-016
         vertex -3.600000e+001 2.000000e+001 3.000000e+000
      endloop
   endfacet
   facet normal 0.000000e+000 1.000000e+000 0.000000e+000
      outer loop
         vertex -5.000000e+001 2.000000e+001 0.000000e+000
         vertex -5.000000e+001 2.000000e+001 3.000000e+000
         vertex -4.500000e+001 2.000000e+001 -8.881784e-016
      endloop
   endfacet
   facet normal 0.000000e+000 1.000000e+000 0.000000e+000
      outer loop
         vertex -3.600000e+001 2.000000e+001 -3.000000e+001
         vertex -3.561940e+001 2.000000e+001 -3.191342e+001
         vertex -4.000000e+001 2.000000e+001 -3.400000e+001
      endloop
   endfacet
   facet normal 0.000000e+000 1.000000e+000 0.000000e+000
      outer loop
         vertex -3.453553e+001 2.000000e+001 -3.353553e+001
         vertex -3.291342e+001 2.000000e+001 -3.461940e+001
         vertex -3.500000e+001 2.000000e+001 -3.900000e+001
      endloop
   endfacet
   facet normal 0.000000e+000 1.000000e+000 0.000000e+000
      outer loop
         vertex -3.100000e+001 2.000000e+001 -3.500000e+001
         vertex 3.100000e+001 2.000000e+001 -3.500000e+001
         vertex 3.500000e+001 2.000000e+001 -3.900000e+001
      endloop
   endfacet
   facet normal 0.000000e+000 1.000000e+000 0.000000e+000
      outer loop
         vertex 3.291342e+001 2.000000e+001 -3.461940e+001
         vertex 3.453553e+001 2.000000e+001 -3.353553e+001
         vertex 3.500000e+001 2.000000e+001 -3.900000e+001
      endloop
   endfacet
   facet normal 0.000000e+000 1.000000e+000 0.000000e+000
      outer loop
         vertex 3.561940e+001 2.000000e+001 -3.191342e+001
         vertex 3.600000e+001 2.000000e+001 -3.000000e+001
         vertex 4.000000e+001 2.000000e+001 -3.400000e+001
      endloop
   endfacet
   facet normal 0.000000e+000 1.000000e+000 0.000000e+000
      outer loop
         vertex 3.600000e+001 2.000000e+001 3.000000e+000
         vertex 5.000000e+001 2.000000e+001 3.000000e+000
         vertex 4.500000e+001 2.000000e+001 0.000000e+000
      endloop
   endfacet
   facet normal 0.000000e+000 1.000000e+000 0.000000e+000
      outer loop
         vertex 5.000000e+001 2.000000e+001 0.000000e+000
         vertex 4.500000e+001 2.000000e+001 0.000000e+000
         vertex 5.000000e+001 2.000000e+001 3.000000e+000
      endloop
   endfacet
   facet normal 0.000000e+000 1.000000e+000 -0.000000e+000
      outer loop
         vertex 4.146447e+001 2.000000e+001 -1.464466e+000
         vertex 4.038060e+001 2.000000e+001 -3.086583e+000
         vertex 3.600000e+001 2.000000e+001 3.000000e+000
      endloop
   endfacet
   facet normal 0.000000e+000 1.000000e+000 -0.000000e+000
      outer loop
         vertex 4.000000e+001 2.000000e+001 -5.000000e+000
         vertex 4.000000e+001 2.000000e+001 -3.400000e+001
         vertex 3.600000e+001 2.000000e+001 -3.000000e+001
      endloop
   endfacet
   facet normal 0.000000e+000 1.000000e+000 -0.000000e+000
      outer loop
         vertex 3.961940e+001 2.000000e+001 -3.591342e+001
         vertex 3.853553e+001 2.000000e+001 -3.753553e+001
         vertex 3.453553e+001 2.000000e+001 -3.353553e+001
      endloop
   endfacet
   facet normal 0.000000e+000 1.000000e+000 -0.000000e+000
      outer loop
         vertex 3.691342e+001 2.000000e+001 -3.861940e+001
         vertex 3.500000e+001 2.000000e+001 -3.900000e+001
         vertex 3.453553e+001 2.000000e+001 -3.353553e+001
      endloop
   endfacet
   facet normal -0.000000e+000 1.000000e+000 0.000000e+000
      outer loop
         vertex -3.500000e+001 2.000000e+001 -3.900000e+001
         vertex -3.691342e+001 2.000000e+001 -3.861940e+001
         vertex -3.453553e+001 2.000000e+001 -3.353553e+001
      endloop
   endfacet
   facet normal -0.000000e+000 1.000000e+000 0.000000e+000
      outer loop
         vertex -3.853553e+001 2.000000e+001 -3.753553e+001
         vertex -3.961940e+001 2.000000e+001 -3.591342e+001
         vertex -3.453553e+001 2.000000e+001 -3.353553e+001
      endloop
   endfacet
   facet normal 0.000000e+000 1.000000e+000 0.000000e+000
      outer loop
         vertex -4.000000e+001 2.000000e+001 -3.400000e+001
         vertex -4.000000e+001 2.000000e+001 -5.000000e+000
         vertex -3.600000e+001 2.000000e+001 -3.000000e+001
      endloop
   endfacet
   facet normal -0.000000e+000 1.000000e+000 0.000000e+000
      outer loop
         vertex -4.038060e+001 2.000000e+001 -3.086583e+000
         vertex -4.146447e+001 2.000000e+001 -1.464466e+000
         vertex -3.600000e+001 2.000000e+001 3.000000e+000
      endloop
   endfacet
   facet normal 0.000000e+000 1.000000e+000 0.000000e+000
      outer loop
         vertex -4.308658e+001 2.000000e+001 -3.806023e-001
         vertex -3.600000e+001 2.000000e+001 3.000000e+000
         vertex -4.146447e+001 2.000000e+001 -1.464466e+000
      endloop
   endfacet
   facet normal 0.000000e+000 1.000000e+000 0.000000e+000
      outer loop
         vertex -4.000000e+001 2.000000e+001 -3.400000e+001
         vertex -3.561940e+001 2.000000e+001 -3.191342e+001
         vertex -3.453553e+001 2.000000e+001 -3.353553e+001
      endloop
   endfacet
   facet normal -0.000000e+000 1.000000e+000 0.000000e+000
      outer loop
         vertex 3.500000e+001 2.000000e+001 -3.900000e+001
         vertex 3.100000e+001 2.000000e+001 -3.500000e+001
         vertex 3.291342e+001 2.000000e+001 -3.461940e+001
      endloop
   endfacet
   facet normal 0.000000e+000 1.000000e+000 0.000000e+000
      outer loop
         vertex 4.146447e+001 2.000000e+001 -1.464466e+000
         vertex 3.600000e+001 2.000000e+001 3.000000e+000
         vertex 4.308658e+001 2.000000e+001 -3.806023e-001
      endloop
   endfacet
   facet normal 0.000000e+000 1.000000e+000 0.000000e+000
      outer loop
         vertex 3.961940e+001 2.000000e+001 -3.591342e+001
         vertex 3.453553e+001 2.000000e+001 -3.353553e+001
         vertex 4.000000e+001 2.000000e+001 -3.400000e+001
      endloop
   endfacet
   facet normal 0.000000e+000 1.000000e+000 -0.000000e+000
      outer loop
         vertex -3.453553e+001 2.000000e+001 -3.353553e+001
         vertex -3.691342e+001 2.000000e+001 -3.861940e+001
         vertex -3.853553e+001 2.000000e+001 -3.753553e+001
      endloop
   endfacet
   facet normal 0.000000e+000 1.000000e+000 0.000000e+000
      outer loop
         vertex -4.038060e+001 2.000000e+001 -3.086583e+000
         vertex -3.600000e+001 2.000000e+001 3.000000e+000
         vertex -4.000000e+001 2.000000e+001 -5.000000e+000
      endloop
   endfacet
   facet normal -0.000000e+000 1.000000e+000 0.000000e+000
      outer loop
         vertex 4.000000e+001 2.000000e+001 -3.400000e+001
         vertex 3.453553e+001 2.000000e+001 -3.353553e+001
         vertex 3.561940e+001 2.000000e+001 -3.191342e+001
      endloop
   endfacet
   facet normal 0.000000e+000 1.000000e+000 0.000000e+000
      outer loop
         vertex -5.000000e+001 2.000000e+001 3.000000e+000
         vertex -3.600000e+001 2.000000e+001 3.000000e+000
         vertex -4.500000e+001 2.000000e+001 -8.881784e-016
      endloop
   endfacet
   facet normal 0.000000e+000 1.000000e+000 0.000000e+000
      outer loop
         vertex -3.291342e+001 2.000000e+001 -3.461940e+001
         vertex -3.100000e+001 2.000000e+001 -3.500000e+001
         vertex -3.500000e+001 2.000000e+001 -3.900000e+001
      endloop
   endfacet
   facet normal 0.000000e+000 1.000000e+000 -0.000000e+000
      outer loop
         vertex 4.500000e+001 2.000000e+001 0.000000e+000
         vertex 4.308658e+001 2.000000e+001 -3.806023e-001
         vertex 3.600000e+001 2.000000e+001 3.000000e+000
      endloop
   endfacet
   facet normal 0.000000e+000 1.000000e+000 -0.000000e+000
      outer loop
         vertex 3.853553e+001 2.000000e+001 -3.753553e+001
         vertex 3.691342e+001 2.000000e+001 -3.861940e+001
         vertex 3.453553e+001 2.000000e+001 -3.353553e+001
      endloop
   endfacet
   facet normal -0.000000e+000 1.000000e+000 0.000000e+000
      outer loop
         vertex -3.961940e+001 2.000000e+001 -3.591342e+001
         vertex -4.000000e+001 2.000000e+001 -3.400000e+001
         vertex -3.453553e+001 2.000000e+001 -3.353553e+001
      endloop
   endfacet
   facet normal 0.000000e+000 1.000000e+000 0.000000e+000
      outer loop
         vertex 3.600000e+001 2.000000e+001 3.000000e+000
         vertex 4.038060e+001 2.000000e+001 -3.086583e+000
         vertex 4.000000e+001 2.000000e+001 -5.000000e+000
      endloop
   endfacet
   facet normal 0.000000e+000 1.000000e+000 0.000000e+000
      outer loop
         vertex -4.000000e+001 2.000000e+001 -5.000000e+000
         vertex -3.600000e+001 2.000000e+001 3.000000e+000
         vertex -3.600000e+001 2.000000e+001 -3.000000e+001
      endloop
   endfacet
   facet normal 0.000000e+000 1.000000e+000 0.000000e+000
      outer loop
         vertex 3.600000e+001 2.000000e+001 -3.000000e+001
         vertex 3.600000e+001 2.000000e+001 3.000000e+000
         vertex 4.000000e+001 2.000000e+001 -5.000000e+000
      endloop
   endfacet
   facet normal 0.000000e+000 1.000000e+000 0.000000e+000
      outer loop
         vertex -3.100000e+001 2.000000e+001 -3.500000e+001
         vertex 3.500000e+001 2.000000e+001 -3.900000e+001
         vertex -3.500000e+001 2.000000e+001 -3.900000e+001
      endloop
   endfacet
   facet normal 1.000000e+000 0.000000e+000 0.000000e+000
      outer loop
         vertex -3.600000e+001 2.000000e+001 -3.000000e+001
         vertex -3.600000e+001 2.000000e+001 3.000000e+000
         vertex -3.600000e+001 0.000000e+000 3.000000e+000
      endloop
   endfacet
   facet normal 1.000000e+000 0.000000e+000 0.000000e+000
      outer loop
         vertex -3.600000e+001 0.000000e+000 -3.000000e+001
         vertex -3.600000e+001 2.000000e+001 -3.000000e+001
         vertex -3.600000e+001 0.000000e+000 3.000000e+000
      endloop
   endfacet
   facet normal -1.000000e+000 0.000000e+000 -0.000000e+000
      outer loop
         vertex 3.600000e+001 0.000000e+000 -3.000000e+001
         vertex 3.600000e+001 4.440892e-015 3.000000e+000
         vertex 3.600000e+001 2.000000e+001 -3.000000e+001
      endloop
   endfacet
   facet normal -1.000000e+000 0.000000e+000 0.000000e+000
      outer loop
         vertex 3.600000e+001 2.000000e+001 3.000000e+000
         vertex 3.600000e+001 2.000000e+001 -3.000000e+001
         vertex 3.600000e+001 4.440892e-015 3.000000e+000
      endloop
   endfacet
   facet normal -0.000000e+000 0.000000e+000 -1.000000e+000
      outer loop
         vertex 4.800000e+001 8.000000e+000 0.000000e+000
         vertex 5.000000e+001 1.776357e-015 0.000000e+000
         vertex 4.500000e+001 3.595008e-016 0.000000e+000
      endloop
   endfacet
   facet normal -0.000000e+000 0.000000e+000 -1.000000e+000
      outer loop
         vertex 5.200000e+001 8.000000e+000 0.000000e+000
         vertex 5.540641e+001 1.587465e+000 0.000000e+000
         vertex 5.281733e+001 4.050703e-001 0.000000e+000
      endloop
   endfacet
   facet normal -0.000000e+000 0.000000e+000 -1.000000e+000
      outer loop
         vertex 5.200000e+001 8.000000e+000 0.000000e+000
         vertex 5.909632e+001 5.845850e+000 0.000000e+000
         vertex 5.755750e+001 3.451393e+000 0.000000e+000
      endloop
   endfacet
   facet normal 0.000000e+000 -0.000000e+000 -1.000000e+000
      outer loop
         vertex 5.200000e+001 1.000000e+001 0.000000e+000
         vertex 5.989822e+001 1.142315e+001 0.000000e+000
         vertex 5.989822e+001 8.576852e+000 0.000000e+000
      endloop
   endfacet
   facet normal 0.000000e+000 -0.000000e+000 -1.000000e+000
      outer loop
         vertex 5.200000e+001 1.200000e+001 0.000000e+000
         vertex 5.755750e+001 1.654861e+001 0.000000e+000
         vertex 5.909632e+001 1.415415e+001 0.000000e+000
      endloop
   endfacet
   facet normal 0.000000e+000 -0.000000e+000 -1.000000e+000
      outer loop
         vertex 5.200000e+001 1.200000e+001 0.000000e+000
         vertex 5.281733e+001 1.959493e+001 0.000000e+000
         vertex 5.540641e+001 1.841253e+001 0.000000e+000
      endloop
   endfacet
   facet normal 0.000000e+000 0.000000e+000 -1.000000e+000
      outer loop
         vertex 4.800000e+001 1.200000e+001 0.000000e+000
         vertex 4.500000e+001 2.000000e+001 0.000000e+000
         vertex 5.000000e+001 2.000000e+001 0.000000e+000
      endloop
   endfacet
   facet normal 0.000000e+000 0.000000e+000 -1.000000e+000
      outer loop
         vertex 4.800000e+001 1.000000e+001 0.000000e+000
         vertex 4.500000e+001 8.000000e+000 0.000000e+000
         vertex 4.500000e+001 1.200000e+001 0.000000e+000
      endloop
   endfacet
   facet normal 0.000000e+000 0.000000e+000 -1.000000e+000
      outer loop
         vertex 5.200000e+001 8.000000e+000 0.000000e+000
         vertex 5.161803e+001 8.824430e+000 0.000000e+000
         vertex 5.200000e+001 1.000000e+001 0.000000e+000
      endloop
   endfacet
   facet normal 0.000000e+000 0.000000e+000 -1.000000e+000
      outer loop
         vertex 5.200000e+001 8.000000e+000 0.000000e+000
         vertex 4.938197e+001 8.097887e+000 0.000000e+000
         vertex 5.061803e+001 8.097887e+000 0.000000e+000
      endloop
   endfacet
   facet normal 0.000000e+000 0.000000e+000 -1.000000e+000
      outer loop
         vertex 4.800000e+001 8.000000e+000 0.000000e+000
         vertex 4.800000e+001 1.000000e+001 0.000000e+000
         vertex 4.838197e+001 8.824430e+000 0.000000e+000
      endloop
   endfacet
   facet normal -0.000000e+000 0.000000e+000 -1.000000e+000
      outer loop
         vertex 4.800000e+001 1.200000e+001 0.000000e+000
         vertex 4.938197e+001 1.190211e+001 0.000000e+000
         vertex 4.838197e+001 1.117557e+001 0.000000e+000
      endloop
   endfacet
   facet normal 0.000000e+000 0.000000e+000 -1.000000e+000
      outer loop
         vertex 5.200000e+001 1.200000e+001 0.000000e+000
         vertex 5.161803e+001 1.117557e+001 0.000000e+000
         vertex 5.061803e+001 1.190211e+001 0.000000e+000
      endloop
   endfacet
   facet normal 0.000000e+000 0.000000e+000 -1.000000e+000
      outer loop
         vertex 5.000000e+001 1.776357e-015 0.000000e+000
         vertex 4.800000e+001 8.000000e+000 0.000000e+000
         vertex 5.200000e+001 8.000000e+000 0.000000e+000
      endloop
   endfacet
   facet normal 0.000000e+000 0.000000e+000 -1.000000e+000
      outer loop
         vertex 4.938197e+001 1.190211e+001 0.000000e+000
         vertex 4.800000e+001 1.200000e+001 0.000000e+000
         vertex 5.200000e+001 1.200000e+001 0.000000e+000
      endloop
   endfacet
   facet normal -0.000000e+000 0.000000e+000 -1.000000e+000
      outer loop
         vertex 4.500000e+001 8.000000e+000 0.000000e+000
         vertex 4.800000e+001 8.000000e+000 0.000000e+000
         vertex 4.500000e+001 3.595008e-016 0.000000e+000
      endloop
   endfacet
   facet normal 0.000000e+000 0.000000e+000 -1.000000e+000
      outer loop
         vertex 5.540641e+001 1.587465e+000 0.000000e+000
         vertex 5.200000e+001 8.000000e+000 0.000000e+000
         vertex 5.755750e+001 3.451393e+000 0.000000e+000
      endloop
   endfacet
   facet normal 0.000000e+000 0.000000e+000 -1.000000e+000
      outer loop
         vertex 5.989822e+001 1.142315e+001 0.000000e+000
         vertex 5.200000e+001 1.200000e+001 0.000000e+000
         vertex 5.909632e+001 1.415415e+001 0.000000e+000
      endloop
   endfacet
   facet normal -0.000000e+000 0.000000e+000 -1.000000e+000
      outer loop
         vertex 5.000000e+001 2.000000e+001 0.000000e+000
         vertex 5.281733e+001 1.959493e+001 0.000000e+000
         vertex 5.200000e+001 1.200000e+001 0.000000e+000
      endloop
   endfacet
   facet normal 0.000000e+000 0.000000e+000 -1.000000e+000
      outer loop
         vertex 4.800000e+001 1.200000e+001 0.000000e+000
         vertex 4.800000e+001 1.000000e+001 0.000000e+000
         vertex 4.500000e+001 1.200000e+001 0.000000e+000
      endloop
   endfacet
   facet normal 0.000000e+000 0.000000e+000 -1.000000e+000
      outer loop
         vertex 5.989822e+001 8.576852e+000 0.000000e+000
         vertex 5.200000e+001 8.000000e+000 0.000000e+000
         vertex 5.200000e+001 1.000000e+001 0.000000e+000
      endloop
   endfacet
   facet normal 0.000000e+000 -0.000000e+000 -1.000000e+000
      outer loop
         vertex 4.800000e+001 8.000000e+000 0.000000e+000
         vertex 4.938197e+001 8.097887e+000 0.000000e+000
         vertex 5.200000e+001 8.000000e+000 0.000000e+000
      endloop
   endfacet
   facet normal 0.000000e+000 0.000000e+000 -1.000000e+000
      outer loop
         vertex 4.800000e+001 1.000000e+001 0.000000e+000
         vertex 4.800000e+001 1.200000e+001 0.000000e+000
         vertex 4.838197e+001 1.117557e+001 0.000000e+000
      endloop
   endfacet
   facet normal 0.000000e+000 0.000000e+000 -1.000000e+000
      outer loop
         vertex 5.281733e+001 4.050703e-001 0.000000e+000
         vertex 5.000000e+001 1.776357e-015 0.000000e+000
         vertex 5.200000e+001 8.000000e+000 0.000000e+000
      endloop
   endfacet
   facet normal 0.000000e+000 -0.000000e+000 -1.000000e+000
      outer loop
         vertex 4.800000e+001 1.200000e+001 0.000000e+000
         vertex 5.000000e+001 2.000000e+001 0.000000e+000
         vertex 5.200000e+001 1.200000e+001 0.000000e+000
      endloop
   endfacet
   facet normal 0.000000e+000 0.000000e+000 -1.000000e+000
      outer loop
         vertex 5.200000e+001 8.000000e+000 0.000000e+000
         vertex 5.989822e+001 8.576852e+000 0.000000e+000
         vertex 5.909632e+001 5.845850e+000 0.000000e+000
      endloop
   endfacet
   facet normal 0.000000e+000 0.000000e+000 -1.000000e+000
      outer loop
         vertex 4.800000e+001 1.200000e+001 0.000000e+000
         vertex 4.500000e+001 1.200000e+001 0.000000e+000
         vertex 4.500000e+001 2.000000e+001 0.000000e+000
      endloop
   endfacet
   facet normal 0.000000e+000 -0.000000e+000 -1.000000e+000
      outer loop
         vertex 4.800000e+001 8.000000e+000 0.000000e+000
         vertex 4.838197e+001 8.824430e+000 0.000000e+000
         vertex 4.938197e+001 8.097887e+000 0.000000e+000
      endloop
   endfacet
   facet normal 0.000000e+000 0.000000e+000 -1.000000e+000
      outer loop
         vertex 5.200000e+001 1.200000e+001 0.000000e+000
         vertex 5.200000e+001 1.000000e+001 0.000000e+000
         vertex 5.161803e+001 1.117557e+001 0.000000e+000
      endloop
   endfacet
   facet normal -0.000000e+000 0.000000e+000 -1.000000e+000
      outer loop
         vertex 5.540641e+001 1.841253e+001 0.000000e+000
         vertex 5.755750e+001 1.654861e+001 0.000000e+000
         vertex 5.200000e+001 1.200000e+001 0.000000e+000
      endloop
   endfacet
   facet normal 0.000000e+000 0.000000e+000 -1.000000e+000
      outer loop
         vertex 5.161803e+001 8.824430e+000 0.000000e+000
         vertex 5.200000e+001 8.000000e+000 0.000000e+000
         vertex 5.061803e+001 8.097887e+000 0.000000e+000
      endloop
   endfacet
   facet normal 0.000000e+000 0.000000e+000 -1.000000e+000
      outer loop
         vertex 4.800000e+001 1.000000e+001 0.000000e+000
         vertex 4.800000e+001 8.000000e+000 0.000000e+000
         vertex 4.500000e+001 8.000000e+000 0.000000e+000
      endloop
   endfacet
   facet normal 0.000000e+000 0.000000e+000 -1.000000e+000
      outer loop
         vertex 5.200000e+001 1.200000e+001 0.000000e+000
         vertex 5.061803e+001 1.190211e+001 0.000000e+000
         vertex 4.938197e+001 1.190211e+001 0.000000e+000
      endloop
   endfacet
   facet normal 0.000000e+000 0.000000e+000 -1.000000e+000
      outer loop
         vertex 5.200000e+001 1.000000e+001 0.000000e+000
         vertex 5.200000e+001 1.200000e+001 0.000000e+000
         vertex 5.989822e+001 1.142315e+001 0.000000e+000
      endloop
   endfacet
   facet normal -1.776357e-016 -4.440892e-017 -1.000000e+000
      outer loop
         vertex -4.800000e+001 1.200000e+001 0.000000e+000
         vertex -5.000000e+001 2.000000e+001 0.000000e+000
         vertex -4.500000e+001 2.000000e+001 -8.881784e-016
      endloop
   endfacet
   facet normal 0.000000e+000 0.000000e+000 -1.000000e+000
      outer loop
         vertex -5.200000e+001 1.200000e+001 0.000000e+000
         vertex -5.540641e+001 1.841253e+001 0.000000e+000
         vertex -5.281733e+001 1.959493e+001 0.000000e+000
      endloop
   endfacet
   facet normal 0.000000e+000 0.000000e+000 -1.000000e+000
      outer loop
         vertex -5.200000e+001 1.200000e+001 0.000000e+000
         vertex -5.909632e+001 1.415415e+001 0.000000e+000
         vertex -5.755750e+001 1.654861e+001 0.000000e+000
      endloop
   endfacet
   facet normal 0.000000e+000 0.000000e+000 -1.000000e+000
      outer loop
         vertex -5.200000e+001 1.000000e+001 0.000000e+000
         vertex -5.989822e+001 8.576852e+000 0.000000e+000
         vertex -5.989822e+001 1.142315e+001 0.000000e+000
      endloop
   endfacet
   facet normal 0.000000e+000 0.000000e+000 -1.000000e+000
      outer loop
         vertex -5.200000e+001 8.000000e+000 0.000000e+000
         vertex -5.755750e+001 3.451393e+000 0.000000e+000
         vertex -5.909632e+001 5.845850e+000 0.000000e+000
      endloop
   endfacet
   facet normal 0.000000e+000 0.000000e+000 -1.000000e+000
      outer loop
         vertex -5.200000e+001 8.000000e+000 0.000000e+000
         vertex -5.281733e+001 4.050703e-001 0.000000e+000
         vertex -5.540641e+001 1.587465e+000 0.000000e+000
      endloop
   endfacet
   facet normal -1.776357e-016 4.440892e-017 -1.000000e+000
      outer loop
         vertex -4.800000e+001 8.000000e+000 0.000000e+000
         vertex -4.500000e+001 0.000000e+000 -8.881784e-016
         vertex -5.000000e+001 0.000000e+000 0.000000e+000
      endloop
   endfacet
   facet normal -2.960595e-016 -0.000000e+000 -1.000000e+000
      outer loop
         vertex -4.800000e+001 1.000000e+001 0.000000e+000
         vertex -4.500000e+001 1.200000e+001 -8.881784e-016
         vertex -4.500000e+001 8.000000e+000 -8.881784e-016
      endloop
   endfacet
   facet normal 0.000000e+000 0.000000e+000 -1.000000e+000
      outer loop
         vertex -4.800000e+001 8.000000e+000 0.000000e+000
         vertex -4.838197e+001 8.824430e+000 0.000000e+000
         vertex -4.800000e+001 1.000000e+001 0.000000e+000
      endloop
   endfacet
   facet normal 0.000000e+000 0.000000e+000 -1.000000e+000
      outer loop
         vertex -4.800000e+001 8.000000e+000 0.000000e+000
         vertex -5.061803e+001 8.097887e+000 0.000000e+000
         vertex -4.938197e+001 8.097887e+000 0.000000e+000
      endloop
   endfacet
   facet normal 0.000000e+000 0.000000e+000 -1.000000e+000
      outer loop
         vertex -5.200000e+001 8.000000e+000 0.000000e+000
         vertex -5.200000e+001 1.000000e+001 0.000000e+000
         vertex -5.161803e+001 8.824430e+000 0.000000e+000
      endloop
   endfacet
   facet normal -0.000000e+000 0.000000e+000 -1.000000e+000
      outer loop
         vertex -5.200000e+001 1.200000e+001 0.000000e+000
         vertex -5.061803e+001 1.190211e+001 0.000000e+000
         vertex -5.161803e+001 1.117557e+001 0.000000e+000
      endloop
   endfacet
   facet normal 0.000000e+000 0.000000e+000 -1.000000e+000
      outer loop
         vertex -4.800000e+001 1.200000e+001 0.000000e+000
         vertex -4.838197e+001 1.117557e+001 0.000000e+000
         vertex -4.938197e+001 1.190211e+001 0.000000e+000
      endloop
   endfacet
   facet normal 0.000000e+000 0.000000e+000 -1.000000e+000
      outer loop
         vertex -5.000000e+001 0.000000e+000 0.000000e+000
         vertex -5.200000e+001 8.000000e+000 0.000000e+000
         vertex -4.800000e+001 8.000000e+000 0.000000e+000
      endloop
   endfacet
   facet normal 0.000000e+000 0.000000e+000 -1.000000e+000
      outer loop
         vertex -5.061803e+001 1.190211e+001 0.000000e+000
         vertex -5.200000e+001 1.200000e+001 0.000000e+000
         vertex -4.800000e+001 1.200000e+001 0.000000e+000
      endloop
   endfacet
   facet normal -2.960595e-016 0.000000e+000 -1.000000e+000
      outer loop
         vertex -4.500000e+001 1.200000e+001 -8.881784e-016
         vertex -4.800000e+001 1.200000e+001 0.000000e+000
         vertex -4.500000e+001 2.000000e+001 -8.881784e-016
      endloop
   endfacet
   facet normal 0.000000e+000 -0.000000e+000 -1.000000e+000
      outer loop
         vertex -5.755750e+001 1.654861e+001 0.000000e+000
         vertex -5.540641e+001 1.841253e+001 0.000000e+000
         vertex -5.200000e+001 1.200000e+001 0.000000e+000
      endloop
   endfacet
   facet normal 0.000000e+000 0.000000e+000 -1.000000e+000
      outer loop
         vertex -5.200000e+001 8.000000e+000 0.000000e+000
         vertex -5.989822e+001 8.576852e+000 0.000000e+000
         vertex -5.200000e+001 1.000000e+001 0.000000e+000
      endloop
   endfacet
   facet normal 0.000000e+000 0.000000e+000 -1.000000e+000
      outer loop
         vertex -5.540641e+001 1.587465e+000 0.000000e+000
         vertex -5.755750e+001 3.451393e+000 0.000000e+000
         vertex -5.200000e+001 8.000000e+000 0.000000e+000
      endloop
   endfacet
   facet normal -2.960595e-016 -0.000000e+000 -1.000000e+000
      outer loop
         vertex -4.800000e+001 8.000000e+000 0.000000e+000
         vertex -4.800000e+001 1.000000e+001 0.000000e+000
         vertex -4.500000e+001 8.000000e+000 -8.881784e-016
      endloop
   endfacet
   facet normal 0.000000e+000 -0.000000e+000 -1.000000e+000
      outer loop
         vertex -4.938197e+001 8.097887e+000 0.000000e+000
         vertex -4.838197e+001 8.824430e+000 0.000000e+000
         vertex -4.800000e+001 8.000000e+000 0.000000e+000
      endloop
   endfacet
   facet normal 0.000000e+000 0.000000e+000 -1.000000e+000
      outer loop
         vertex -5.200000e+001 1.000000e+001 0.000000e+000
         vertex -5.200000e+001 1.200000e+001 0.000000e+000
         vertex -5.161803e+001 1.117557e+001 0.000000e+000
      endloop
   endfacet
   facet normal 0.000000e+000 -0.000000e+000 -1.000000e+000
      outer loop
         vertex -5.281733e+001 4.050703e-001 0.000000e+000
         vertex -5.200000e+001 8.000000e+000 0.000000e+000
         vertex -5.000000e+001 0.000000e+000 0.000000e+000
      endloop
   endfacet
   facet normal -2.960595e-016 0.000000e+000 -1.000000e+000
      outer loop
         vertex -4.500000e+001 0.000000e+000 -8.881784e-016
         vertex -4.800000e+001 8.000000e+000 0.000000e+000
         vertex -4.500000e+001 8.000000e+000 -8.881784e-016
      endloop
   endfacet
   facet normal 0.000000e+000 0.000000e+000 -1.000000e+000
      outer loop
         vertex -5.200000e+001 1.200000e+001 0.000000e+000
         vertex -5.281733e+001 1.959493e+001 0.000000e+000
         vertex -5.000000e+001 2.000000e+001 0.000000e+000
      endloop
   endfacet
   facet normal 0.000000e+000 0.000000e+000 -1.000000e+000
      outer loop
         vertex -5.200000e+001 8.000000e+000 0.000000e+000
         vertex -5.909632e+001 5.845850e+000 0.000000e+000
         vertex -5.989822e+001 8.576852e+000 0.000000e+000
      endloop
   endfacet
   facet normal 0.000000e+000 0.000000e+000 -1.000000e+000
      outer loop
         vertex -4.800000e+001 1.200000e+001 0.000000e+000
         vertex -4.938197e+001 1.190211e+001 0.000000e+000
         vertex -5.061803e+001 1.190211e+001 0.000000e+000
      endloop
   endfacet
   facet normal 0.000000e+000 0.000000e+000 -1.000000e+000
      outer loop
         vertex -5.061803e+001 8.097887e+000 0.000000e+000
         vertex -4.800000e+001 8.000000e+000 0.000000e+000
         vertex -5.200000e+001 8.000000e+000 0.000000e+000
      endloop
   endfacet
   facet normal 0.000000e+000 -0.000000e+000 -1.000000e+000
      outer loop
         vertex -5.200000e+001 1.200000e+001 0.000000e+000
         vertex -5.000000e+001 2.000000e+001 0.000000e+000
         vertex -4.800000e+001 1.200000e+001 0.000000e+000
      endloop
   endfacet
   facet normal -2.960595e-016 0.000000e+000 -1.000000e+000
      outer loop
         vertex -4.800000e+001 1.200000e+001 0.000000e+000
         vertex -4.500000e+001 1.200000e+001 -8.881784e-016
         vertex -4.800000e+001 1.000000e+001 0.000000e+000
      endloop
   endfacet
   facet normal 0.000000e+000 0.000000e+000 -1.000000e+000
      outer loop
         vertex -4.800000e+001 1.000000e+001 0.000000e+000
         vertex -4.838197e+001 1.117557e+001 0.000000e+000
         vertex -4.800000e+001 1.200000e+001 0.000000e+000
      endloop
   endfacet
   facet normal 0.000000e+000 0.000000e+000 -1.000000e+000
      outer loop
         vertex -5.200000e+001 1.200000e+001 0.000000e+000
         vertex -5.989822e+001 1.142315e+001 0.000000e+000
         vertex -5.909632e+001 1.415415e+001 0.000000e+000
      endloop
   endfacet
   facet normal 0.000000e+000 0.000000e+000 -1.000000e+000
      outer loop
         vertex -5.200000e+001 1.200000e+001 0.000000e+000
         vertex -5.200000e+001 1.000000e+001 0.000000e+000
         vertex -5.989822e+001 1.142315e+001 0.000000e+000
      endloop
   endfacet
   facet normal -0.000000e+000 0.000000e+000 -1.000000e+000
      outer loop
         vertex -5.161803e+001 8.824430e+000 0.000000e+000
         vertex -5.061803e+001 8.097887e+000 0.000000e+000
         vertex -5.200000e+001 8.000000e+000 0.000000e+000
      endloop
   endfacet
   facet normal -1.950903e-001 0.000000e+000 -9.807853e-001
      outer loop
         vertex -4.308658e+001 0.000000e+000 -3.806023e-001
         vertex -4.500000e+001 0.000000e+000 -8.881784e-016
         vertex -4.500000e+001 2.000000e+001 -8.881784e-016
      endloop
   endfacet
   facet normal -5.555704e-001 0.000000e+000 -8.314695e-001
      outer loop
         vertex -4.308658e+001 2.000000e+001 -3.806023e-001
         vertex -4.146447e+001 2.000000e+001 -1.464466e+000
         vertex -4.308658e+001 0.000000e+000 -3.806023e-001
      endloop
   endfacet
   facet normal -9.807851e-001 -0.000000e+000 -1.950910e-001
      outer loop
         vertex -4.038060e+001 2.000000e+001 -3.086583e+000
         vertex -4.000000e+001 2.000000e+001 -5.000000e+000
         vertex -4.000000e+001 0.000000e+000 -5.000000e+000
      endloop
   endfacet
   facet normal -8.314700e-001 0.000000e+000 -5.555697e-001
      outer loop
         vertex -4.038060e+001 0.000000e+000 -3.086583e+000
         vertex -4.146447e+001 0.000000e+000 -1.464466e+000
         vertex -4.146447e+001 2.000000e+001 -1.464466e+000
      endloop
   endfacet
   facet normal -1.950903e-001 0.000000e+000 -9.807853e-001
      outer loop
         vertex -4.308658e+001 0.000000e+000 -3.806023e-001
         vertex -4.500000e+001 2.000000e+001 -8.881784e-016
         vertex -4.308658e+001 2.000000e+001 -3.806023e-001
      endloop
   endfacet
   facet normal -8.314700e-001 0.000000e+000 -5.555697e-001
      outer loop
         vertex -4.038060e+001 0.000000e+000 -3.086583e+000
         vertex -4.146447e+001 2.000000e+001 -1.464466e+000
         vertex -4.038060e+001 2.000000e+001 -3.086583e+000
      endloop
   endfacet
   facet normal -9.807851e-001 0.000000e+000 -1.950910e-001
      outer loop
         vertex -4.000000e+001 0.000000e+000 -5.000000e+000
         vertex -4.038060e+001 0.000000e+000 -3.086583e+000
         vertex -4.038060e+001 2.000000e+001 -3.086583e+000
      endloop
   endfacet
   facet normal -5.555704e-001 -0.000000e+000 -8.314695e-001
      outer loop
         vertex -4.308658e+001 0.000000e+000 -3.806023e-001
         vertex -4.146447e+001 2.000000e+001 -1.464466e+000
         vertex -4.146447e+001 0.000000e+000 -1.464466e+000
      endloop
   endfacet
   facet normal 1.950903e-001 0.000000e+000 -9.807853e-001
      outer loop
         vertex 4.308658e+001 2.000000e+001 -3.806023e-001
         vertex 4.500000e+001 2.000000e+001 0.000000e+000
         vertex 4.500000e+001 3.595008e-016 0.000000e+000
      endloop
   endfacet
   facet normal 5.555704e-001 0.000000e+000 -8.314695e-001
      outer loop
         vertex 4.308658e+001 0.000000e+000 -3.806023e-001
         vertex 4.146447e+001 0.000000e+000 -1.464466e+000
         vertex 4.308658e+001 2.000000e+001 -3.806023e-001
      endloop
   endfacet
   facet normal 9.807851e-001 0.000000e+000 -1.950910e-001
      outer loop
         vertex 4.038060e+001 0.000000e+000 -3.086583e+000
         vertex 4.000000e+001 0.000000e+000 -5.000000e+000
         vertex 4.000000e+001 2.000000e+001 -5.000000e+000
      endloop
   endfacet
   facet normal 8.314700e-001 0.000000e+000 -5.555697e-001
      outer loop
         vertex 4.038060e+001 2.000000e+001 -3.086583e+000
         vertex 4.146447e+001 2.000000e+001 -1.464466e+000
         vertex 4.146447e+001 0.000000e+000 -1.464466e+000
      endloop
   endfacet
   facet normal 1.950903e-001 0.000000e+000 -9.807853e-001
      outer loop
         vertex 4.308658e+001 2.000000e+001 -3.806023e-001
         vertex 4.500000e+001 3.595008e-016 0.000000e+000
         vertex 4.308658e+001 0.000000e+000 -3.806023e-001
      endloop
   endfacet
   facet normal 8.314700e-001 0.000000e+000 -5.555697e-001
      outer loop
         vertex 4.038060e+001 2.000000e+001 -3.086583e+000
         vertex 4.146447e+001 0.000000e+000 -1.464466e+000
         vertex 4.038060e+001 0.000000e+000 -3.086583e+000
      endloop
   endfacet
   facet normal 9.807851e-001 0.000000e+000 -1.950910e-001
      outer loop
         vertex 4.000000e+001 2.000000e+001 -5.000000e+000
         vertex 4.038060e+001 2.000000e+001 -3.086583e+000
         vertex 4.038060e+001 0.000000e+000 -3.086583e+000
      endloop
   endfacet
   facet normal 5.555704e-001 0.000000e+000 -8.314695e-001
      outer loop
         vertex 4.308658e+001 2.000000e+001 -3.806023e-001
         vertex 4.146447e+001 0.000000e+000 -1.464466e+000
         vertex 4.146447e+001 2.000000e+001 -1.464466e+000
      endloop
   endfacet
   facet normal -1.000000e+000 0.000000e+000 0.000000e+000
      outer loop
         vertex -4.000000e+001 2.000000e+001 -3.400000e+001
         vertex -4.000000e+001 0.000000e+000 -3.400000e+001
         vertex -4.000000e+001 0.000000e+000 -5.000000e+000
      endloop
   endfacet
   facet normal -1.000000e+000 0.000000e+000 0.000000e+000
      outer loop
         vertex -4.000000e+001 2.000000e+001 -5.000000e+000
         vertex -4.000000e+001 2.000000e+001 -3.400000e+001
         vertex -4.000000e+001 0.000000e+000 -5.000000e+000
      endloop
   endfacet
   facet normal -1.950910e-001 0.000000e+000 -9.807852e-001
      outer loop
         vertex -3.500000e+001 2.000000e+001 -3.900000e+001
         vertex -3.500000e+001 0.000000e+000 -3.900000e+001
         vertex -3.691342e+001 0.000000e+000 -3.861940e+001
      endloop
   endfacet
   facet normal -8.314699e-001 0.000000e+000 -5.555699e-001
      outer loop
         vertex -3.853553e+001 0.000000e+000 -3.753553e+001
         vertex -3.961940e+001 0.000000e+000 -3.591342e+001
         vertex -3.961940e+001 2.000000e+001 -3.591342e+001
      endloop
   endfacet
   facet normal -9.807852e-001 -0.000000e+000 -1.950910e-001
      outer loop
         vertex -4.000000e+001 0.000000e+000 -3.400000e+001
         vertex -4.000000e+001 2.000000e+001 -3.400000e+001
         vertex -3.961940e+001 0.000000e+000 -3.591342e+001
      endloop
   endfacet
   facet normal -5.555699e-001 -0.000000e+000 -8.314699e-001
      outer loop
         vertex -3.853553e+001 2.000000e+001 -3.753553e+001
         vertex -3.691342e+001 2.000000e+001 -3.861940e+001
         vertex -3.691342e+001 0.000000e+000 -3.861940e+001
      endloop
   endfacet
   facet normal -1.950910e-001 0.000000e+000 -9.807852e-001
      outer loop
         vertex -3.500000e+001 2.000000e+001 -3.900000e+001
         vertex -3.691342e+001 0.000000e+000 -3.861940e+001
         vertex -3.691342e+001 2.000000e+001 -3.861940e+001
      endloop
   endfacet
   facet normal -9.807852e-001 0.000000e+000 -1.950910e-001
      outer loop
         vertex -3.961940e+001 0.000000e+000 -3.591342e+001
         vertex -4.000000e+001 2.000000e+001 -3.400000e+001
         vertex -3.961940e+001 2.000000e+001 -3.591342e+001
      endloop
   endfacet
   facet normal -5.555699e-001 0.000000e+000 -8.314699e-001
      outer loop
         vertex -3.691342e+001 0.000000e+000 -3.861940e+001
         vertex -3.853553e+001 0.000000e+000 -3.753553e+001
         vertex -3.853553e+001 2.000000e+001 -3.753553e+001
      endloop
   endfacet
   facet normal -8.314699e-001 0.000000e+000 -5.555699e-001
      outer loop
         vertex -3.853553e+001 0.000000e+000 -3.753553e+001
         vertex -3.961940e+001 2.000000e+001 -3.591342e+001
         vertex -3.853553e+001 2.000000e+001 -3.753553e+001
      endloop
   endfacet
   facet normal 0.000000e+000 0.000000e+000 -1.000000e+000
      outer loop
         vertex 3.500000e+001 2.000000e+001 -3.900000e+001
         vertex 3.500000e+001 0.000000e+000 -3.900000e+001
         vertex -3.500000e+001 0.000000e+000 -3.900000e+001
      endloop
   endfacet
   facet normal -0.000000e+000 0.000000e+000 -1.000000e+000
      outer loop
         vertex -3.500000e+001 2.000000e+001 -3.900000e+001
         vertex 3.500000e+001 2.000000e+001 -3.900000e+001
         vertex -3.500000e+001 0.000000e+000 -3.900000e+001
      endloop
   endfacet
   facet normal 9.807852e-001 0.000000e+000 -1.950910e-001
      outer loop
         vertex 4.000000e+001 2.000000e+001 -3.400000e+001
         vertex 4.000000e+001 0.000000e+000 -3.400000e+001
         vertex 3.961940e+001 0.000000e+000 -3.591342e+001
      endloop
   endfacet
   facet normal 5.555699e-001 0.000000e+000 -8.314699e-001
      outer loop
         vertex 3.853553e+001 0.000000e+000 -3.753553e+001
         vertex 3.691342e+001 0.000000e+000 -3.861940e+001
         vertex 3.691342e+001 2.000000e+001 -3.861940e+001
      endloop
   endfacet
   facet normal 1.950910e-001 0.000000e+000 -9.807852e-001
      outer loop
         vertex 3.500000e+001 0.000000e+000 -3.900000e+001
         vertex 3.500000e+001 2.000000e+001 -3.900000e+001
         vertex 3.691342e+001 0.000000e+000 -3.861940e+001
      endloop
   endfacet
   facet normal 8.314699e-001 0.000000e+000 -5.555699e-001
      outer loop
         vertex 3.853553e+001 2.000000e+001 -3.753553e+001
         vertex 3.961940e+001 2.000000e+001 -3.591342e+001
         vertex 3.961940e+001 0.000000e+000 -3.591342e+001
      endloop
   endfacet
   facet normal 9.807852e-001 0.000000e+000 -1.950910e-001
      outer loop
         vertex 4.000000e+001 2.000000e+001 -3.400000e+001
         vertex 3.961940e+001 0.000000e+000 -3.591342e+001
         vertex 3.961940e+001 2.000000e+001 -3.591342e+001
      endloop
   endfacet
   facet normal 1.950910e-001 0.000000e+000 -9.807852e-001
      outer loop
         vertex 3.691342e+001 0.000000e+000 -3.861940e+001
         vertex 3.500000e+001 2.000000e+001 -3.900000e+001
         vertex 3.691342e+001 2.000000e+001 -3.861940e+001
      endloop
   endfacet
   facet normal 8.314699e-001 0.000000e+000 -5.555699e-001
      outer loop
         vertex 3.961940e+001 0.000000e+000 -3.591342e+001
         vertex 3.853553e+001 0.000000e+000 -3.753553e+001
         vertex 3.853553e+001 2.000000e+001 -3.753553e+001
      endloop
   endfacet
   facet normal 5.555699e-001 0.000000e+000 -8.314699e-001
      outer loop
         vertex 3.853553e+001 0.000000e+000 -3.753553e+001
         vertex 3.691342e+001 2.000000e+001 -3.861940e+001
         vertex 3.853553e+001 2.000000e+001 -3.753553e+001
      endloop
   endfacet
   facet normal 1.000000e+000 -0.000000e+000 0.000000e+000
      outer loop
         vertex 4.000000e+001 2.000000e+001 -5.000000e+000
         vertex 4.000000e+001 0.000000e+000 -5.000000e+000
         vertex 4.000000e+001 0.000000e+000 -3.400000e+001
      endloop
   endfacet
   facet normal 1.000000e+000 0.000000e+000 0.000000e+000
      outer loop
         vertex 4.000000e+001 2.000000e+001 -3.400000e+001
         vertex 4.000000e+001 2.000000e+001 -5.000000e+000
         vertex 4.000000e+001 0.000000e+000 -3.400000e+001
      endloop
   endfacet
   facet normal 1.423148e-001 -9.898214e-001 0.000000e+000
      outer loop
         vertex 5.000000e+001 1.776357e-015 3.000000e+000
         vertex 5.000000e+001 1.776357e-015 0.000000e+000
         vertex 5.281733e+001 4.050703e-001 0.000000e+000
      endloop
   endfacet
   facet normal 6.548605e-001 -7.557498e-001 0.000000e+000
      outer loop
         vertex 5.540641e+001 1.587465e+000 0.000000e+000
         vertex 5.755750e+001 3.451393e+000 0.000000e+000
         vertex 5.755750e+001 3.451393e+000 3.000000e+000
      endloop
   endfacet
   facet normal 9.594929e-001 -2.817328e-001 0.000000e+000
      outer loop
         vertex 5.909632e+001 5.845850e+000 0.000000e+000
         vertex 5.989822e+001 8.576852e+000 0.000000e+000
         vertex 5.989822e+001 8.576852e+000 3.000000e+000
      endloop
   endfacet
   facet normal 9.594929e-001 2.817328e-001 -0.000000e+000
      outer loop
         vertex 5.989822e+001 1.142315e+001 0.000000e+000
         vertex 5.909632e+001 1.415415e+001 0.000000e+000
         vertex 5.909632e+001 1.415415e+001 3.000000e+000
      endloop
   endfacet
   facet normal 6.548605e-001 7.557498e-001 -0.000000e+000
      outer loop
         vertex 5.755750e+001 1.654861e+001 0.000000e+000
         vertex 5.540641e+001 1.841253e+001 0.000000e+000
         vertex 5.540641e+001 1.841253e+001 3.000000e+000
      endloop
   endfacet
   facet normal 1.423145e-001 9.898215e-001 -0.000000e+000
      outer loop
         vertex 5.281733e+001 1.959493e+001 0.000000e+000
         vertex 5.000000e+001 2.000000e+001 0.000000e+000
         vertex 5.000000e+001 2.000000e+001 3.000000e+000
      endloop
   endfacet
   facet normal 4.154157e-001 9.096317e-001 0.000000e+000
      outer loop
         vertex 5.281733e+001 1.959493e+001 3.000000e+000
         vertex 5.540641e+001 1.841253e+001 3.000000e+000
         vertex 5.540641e+001 1.841253e+001 0.000000e+000
      endloop
   endfacet
   facet normal 8.412532e-001 5.406413e-001 0.000000e+000
      outer loop
         vertex 5.755750e+001 1.654861e+001 3.000000e+000
         vertex 5.909632e+001 1.415415e+001 3.000000e+000
         vertex 5.909632e+001 1.415415e+001 0.000000e+000
      endloop
   endfacet
   facet normal 1.000000e+000 -0.000000e+000 0.000000e+000
      outer loop
         vertex 5.989822e+001 1.142315e+001 3.000000e+000
         vertex 5.989822e+001 8.576852e+000 3.000000e+000
         vertex 5.989822e+001 8.576852e+000 0.000000e+000
      endloop
   endfacet
   facet normal 8.412533e-001 -5.406412e-001 0.000000e+000
      outer loop
         vertex 5.909632e+001 5.845850e+000 3.000000e+000
         vertex 5.755750e+001 3.451393e+000 3.000000e+000
         vertex 5.755750e+001 3.451393e+000 0.000000e+000
      endloop
   endfacet
   facet normal 4.154153e-001 -9.096319e-001 0.000000e+000
      outer loop
         vertex 5.540641e+001 1.587465e+000 3.000000e+000
         vertex 5.281733e+001 4.050703e-001 3.000000e+000
         vertex 5.281733e+001 4.050703e-001 0.000000e+000
      endloop
   endfacet
   facet normal 1.423148e-001 -9.898214e-001 0.000000e+000
      outer loop
         vertex 5.000000e+001 1.776357e-015 3.000000e+000
         vertex 5.281733e+001 4.050703e-001 0.000000e+000
         vertex 5.281733e+001 4.050703e-001 3.000000e+000
      endloop
   endfacet
   facet normal 9.594929e-001 2.817328e-001 0.000000e+000
      outer loop
         vertex 5.989822e+001 1.142315e+001 0.000000e+000
         vertex 5.909632e+001 1.415415e+001 3.000000e+000
         vertex 5.989822e+001 1.142315e+001 3.000000e+000
      endloop
   endfacet
   facet normal 4.154157e-001 9.096317e-001 0.000000e+000
      outer loop
         vertex 5.281733e+001 1.959493e+001 3.000000e+000
         vertex 5.540641e+001 1.841253e+001 0.000000e+000
         vertex 5.281733e+001 1.959493e+001 0.000000e+000
      endloop
   endfacet
   facet normal 8.412533e-001 -5.406412e-001 0.000000e+000
      outer loop
         vertex 5.909632e+001 5.845850e+000 3.000000e+000
         vertex 5.755750e+001 3.451393e+000 0.000000e+000
         vertex 5.909632e+001 5.845850e+000 0.000000e+000
      endloop
   endfacet
   facet normal 1.423145e-001 9.898215e-001 -0.000000e+000
      outer loop
         vertex 5.281733e+001 1.959493e+001 3.000000e+000
         vertex 5.281733e+001 1.959493e+001 0.000000e+000
         vertex 5.000000e+001 2.000000e+001 3.000000e+000
      endloop
   endfacet
   facet normal 4.154153e-001 -9.096319e-001 0.000000e+000
      outer loop
         vertex 5.281733e+001 4.050703e-001 0.000000e+000
         vertex 5.540641e+001 1.587465e+000 0.000000e+000
         vertex 5.540641e+001 1.587465e+000 3.000000e+000
      endloop
   endfacet
   facet normal 8.412532e-001 5.406413e-001 -0.000000e+000
      outer loop
         vertex 5.909632e+001 1.415415e+001 0.000000e+000
         vertex 5.755750e+001 1.654861e+001 0.000000e+000
         vertex 5.755750e+001 1.654861e+001 3.000000e+000
      endloop
   endfacet
   facet normal 9.594929e-001 -2.817328e-001 0.000000e+000
      outer loop
         vertex 5.989822e+001 8.576852e+000 3.000000e+000
         vertex 5.909632e+001 5.845850e+000 3.000000e+000
         vertex 5.909632e+001 5.845850e+000 0.000000e+000
      endloop
   endfacet
   facet normal 6.548605e-001 -7.557498e-001 0.000000e+000
      outer loop
         vertex 5.540641e+001 1.587465e+000 0.000000e+000
         vertex 5.755750e+001 3.451393e+000 3.000000e+000
         vertex 5.540641e+001 1.587465e+000 3.000000e+000
      endloop
   endfacet
   facet normal 1.000000e+000 0.000000e+000 0.000000e+000
      outer loop
         vertex 5.989822e+001 1.142315e+001 0.000000e+000
         vertex 5.989822e+001 1.142315e+001 3.000000e+000
         vertex 5.989822e+001 8.576852e+000 0.000000e+000
      endloop
   endfacet
   facet normal 6.548605e-001 7.557498e-001 0.000000e+000
      outer loop
         vertex 5.540641e+001 1.841253e+001 3.000000e+000
         vertex 5.755750e+001 1.654861e+001 3.000000e+000
         vertex 5.755750e+001 1.654861e+001 0.000000e+000
      endloop
   endfacet
   facet normal -0.000000e+000 0.000000e+000 1.000000e+000
      outer loop
         vertex 5.000000e+001 2.000000e+001 3.000000e+000
         vertex 3.600000e+001 2.000000e+001 3.000000e+000
         vertex 4.800000e+001 1.200000e+001 3.000000e+000
      endloop
   endfacet
   facet normal 0.000000e+000 0.000000e+000 1.000000e+000
      outer loop
         vertex 3.600000e+001 4.440892e-015 3.000000e+000
         vertex 5.000000e+001 1.776357e-015 3.000000e+000
         vertex 4.800000e+001 8.000000e+000 3.000000e+000
      endloop
   endfacet
   facet normal 0.000000e+000 0.000000e+000 1.000000e+000
      outer loop
         vertex 5.281733e+001 4.050703e-001 3.000000e+000
         vertex 5.540641e+001 1.587465e+000 3.000000e+000
         vertex 5.200000e+001 8.000000e+000 3.000000e+000
      endloop
   endfacet
   facet normal 0.000000e+000 0.000000e+000 1.000000e+000
      outer loop
         vertex 5.755750e+001 3.451393e+000 3.000000e+000
         vertex 5.909632e+001 5.845850e+000 3.000000e+000
         vertex 5.200000e+001 8.000000e+000 3.000000e+000
      endloop
   endfacet
   facet normal 0.000000e+000 0.000000e+000 1.000000e+000
      outer loop
         vertex 5.989822e+001 8.576852e+000 3.000000e+000
         vertex 5.989822e+001 1.142315e+001 3.000000e+000
         vertex 5.200000e+001 1.000000e+001 3.000000e+000
      endloop
   endfacet
   facet normal 0.000000e+000 0.000000e+000 1.000000e+000
      outer loop
         vertex 5.909632e+001 1.415415e+001 3.000000e+000
         vertex 5.755750e+001 1.654861e+001 3.000000e+000
         vertex 5.200000e+001 1.200000e+001 3.000000e+000
      endloop
   endfacet
   facet normal 0.000000e+000 0.000000e+000 1.000000e+000
      outer loop
         vertex 5.540641e+001 1.841253e+001 3.000000e+000
         vertex 5.281733e+001 1.959493e+001 3.000000e+000
         vertex 5.200000e+001 1.200000e+001 3.000000e+000
      endloop
   endfacet
   facet normal 0.000000e+000 -0.000000e+000 1.000000e+000
      outer loop
         vertex 5.161803e+001 1.117557e+001 3.000000e+000
         vertex 5.200000e+001 1.000000e+001 3.000000e+000
         vertex 5.200000e+001 1.200000e+001 3.000000e+000
      endloop
   endfacet
   facet normal -0.000000e+000 0.000000e+000 1.000000e+000
      outer loop
         vertex 5.161803e+001 8.824430e+000 3.000000e+000
         vertex 5.061803e+001 8.097887e+000 3.000000e+000
         vertex 5.200000e+001 8.000000e+000 3.000000e+000
      endloop
   endfacet
   facet normal 0.000000e+000 0.000000e+000 1.000000e+000
      outer loop
         vertex 4.938197e+001 8.097887e+000 3.000000e+000
         vertex 4.838197e+001 8.824430e+000 3.000000e+000
         vertex 4.800000e+001 8.000000e+000 3.000000e+000
      endloop
   endfacet
   facet normal 0.000000e+000 0.000000e+000 1.000000e+000
      outer loop
         vertex 4.800000e+001 1.000000e+001 3.000000e+000
         vertex 4.838197e+001 1.117557e+001 3.000000e+000
         vertex 4.800000e+001 1.200000e+001 3.000000e+000
      endloop
   endfacet
   facet normal 0.000000e+000 -0.000000e+000 1.000000e+000
      outer loop
         vertex 4.938197e+001 1.190211e+001 3.000000e+000
         vertex 5.061803e+001 1.190211e+001 3.000000e+000
         vertex 5.200000e+001 1.200000e+001 3.000000e+000
      endloop
   endfacet
   facet normal -0.000000e+000 0.000000e+000 1.000000e+000
      outer loop
         vertex 5.200000e+001 8.000000e+000 3.000000e+000
         vertex 4.800000e+001 8.000000e+000 3.000000e+000
         vertex 5.000000e+001 1.776357e-015 3.000000e+000
      endloop
   endfacet
   facet normal -0.000000e+000 0.000000e+000 1.000000e+000
      outer loop
         vertex 5.200000e+001 1.200000e+001 3.000000e+000
         vertex 4.800000e+001 1.200000e+001 3.000000e+000
         vertex 4.938197e+001 1.190211e+001 3.000000e+000
      endloop
   endfacet
   facet normal 0.000000e+000 0.000000e+000 1.000000e+000
      outer loop
         vertex 5.000000e+001 2.000000e+001 3.000000e+000
         vertex 4.800000e+001 1.200000e+001 3.000000e+000
         vertex 5.200000e+001 1.200000e+001 3.000000e+000
      endloop
   endfacet
   facet normal 0.000000e+000 0.000000e+000 1.000000e+000
      outer loop
         vertex 5.281733e+001 4.050703e-001 3.000000e+000
         vertex 5.200000e+001 8.000000e+000 3.000000e+000
         vertex 5.000000e+001 1.776357e-015 3.000000e+000
      endloop
   endfacet
   facet normal 0.000000e+000 -0.000000e+000 1.000000e+000
      outer loop
         vertex 5.200000e+001 8.000000e+000 3.000000e+000
         vertex 5.909632e+001 5.845850e+000 3.000000e+000
         vertex 5.989822e+001 8.576852e+000 3.000000e+000
      endloop
   endfacet
   facet normal -0.000000e+000 0.000000e+000 1.000000e+000
      outer loop
         vertex 5.909632e+001 1.415415e+001 3.000000e+000
         vertex 5.200000e+001 1.200000e+001 3.000000e+000
         vertex 5.989822e+001 1.142315e+001 3.000000e+000
      endloop
   endfacet
   facet normal 0.000000e+000 0.000000e+000 1.000000e+000
      outer loop
         vertex 5.200000e+001 1.200000e+001 3.000000e+000
         vertex 5.281733e+001 1.959493e+001 3.000000e+000
         vertex 5.000000e+001 2.000000e+001 3.000000e+000
      endloop
   endfacet
   facet normal 0.000000e+000 -0.000000e+000 1.000000e+000
      outer loop
         vertex 5.161803e+001 8.824430e+000 3.000000e+000
         vertex 5.200000e+001 8.000000e+000 3.000000e+000
         vertex 5.200000e+001 1.000000e+001 3.000000e+000
      endloop
   endfacet
   facet normal 0.000000e+000 0.000000e+000 1.000000e+000
      outer loop
         vertex 4.800000e+001 8.000000e+000 3.000000e+000
         vertex 4.838197e+001 8.824430e+000 3.000000e+000
         vertex 4.800000e+001 1.000000e+001 3.000000e+000
      endloop
   endfacet
   facet normal -0.000000e+000 0.000000e+000 1.000000e+000
      outer loop
         vertex 5.200000e+001 1.200000e+001 3.000000e+000
         vertex 5.061803e+001 1.190211e+001 3.000000e+000
         vertex 5.161803e+001 1.117557e+001 3.000000e+000
      endloop
   endfacet
   facet normal 0.000000e+000 0.000000e+000 1.000000e+000
      outer loop
         vertex 5.200000e+001 1.000000e+001 3.000000e+000
         vertex 5.200000e+001 8.000000e+000 3.000000e+000
         vertex 5.989822e+001 8.576852e+000 3.000000e+000
      endloop
   endfacet
   facet normal 0.000000e+000 0.000000e+000 1.000000e+000
      outer loop
         vertex 3.600000e+001 2.000000e+001 3.000000e+000
         vertex 3.600000e+001 4.440892e-015 3.000000e+000
         vertex 4.800000e+001 1.000000e+001 3.000000e+000
      endloop
   endfacet
   facet normal 0.000000e+000 0.000000e+000 1.000000e+000
      outer loop
         vertex 5.755750e+001 1.654861e+001 3.000000e+000
         vertex 5.540641e+001 1.841253e+001 3.000000e+000
         vertex 5.200000e+001 1.200000e+001 3.000000e+000
      endloop
   endfacet
   facet normal 0.000000e+000 0.000000e+000 1.000000e+000
      outer loop
         vertex 4.838197e+001 1.117557e+001 3.000000e+000
         vertex 4.938197e+001 1.190211e+001 3.000000e+000
         vertex 4.800000e+001 1.200000e+001 3.000000e+000
      endloop
   endfacet
   facet normal 0.000000e+000 0.000000e+000 1.000000e+000
      outer loop
         vertex 4.800000e+001 1.200000e+001 3.000000e+000
         vertex 3.600000e+001 2.000000e+001 3.000000e+000
         vertex 4.800000e+001 1.000000e+001 3.000000e+000
      endloop
   endfacet
   facet normal 0.000000e+000 -0.000000e+000 1.000000e+000
      outer loop
         vertex 5.200000e+001 8.000000e+000 3.000000e+000
         vertex 5.540641e+001 1.587465e+000 3.000000e+000
         vertex 5.755750e+001 3.451393e+000 3.000000e+000
      endloop
   endfacet
   facet normal 0.000000e+000 0.000000e+000 1.000000e+000
      outer loop
         vertex 5.200000e+001 8.000000e+000 3.000000e+000
         vertex 5.061803e+001 8.097887e+000 3.000000e+000
         vertex 4.938197e+001 8.097887e+000 3.000000e+000
      endloop
   endfacet
   facet normal 0.000000e+000 0.000000e+000 1.000000e+000
      outer loop
         vertex 4.800000e+001 8.000000e+000 3.000000e+000
         vertex 4.800000e+001 1.000000e+001 3.000000e+000
         vertex 3.600000e+001 4.440892e-015 3.000000e+000
      endloop
   endfacet
   facet normal 0.000000e+000 0.000000e+000 1.000000e+000
      outer loop
         vertex 4.800000e+001 8.000000e+000 3.000000e+000
         vertex 5.200000e+001 8.000000e+000 3.000000e+000
         vertex 4.938197e+001 8.097887e+000 3.000000e+000
      endloop
   endfacet
   facet normal 0.000000e+000 0.000000e+000 1.000000e+000
      outer loop
         vertex 5.200000e+001 1.200000e+001 3.000000e+000
         vertex 5.200000e+001 1.000000e+001 3.000000e+000
         vertex 5.989822e+001 1.142315e+001 3.000000e+000
      endloop
   endfacet
   facet normal -1.950910e-001 0.000000e+000 9.807852e-001
      outer loop
         vertex 3.100000e+001 2.000000e+001 -3.500000e+001
         vertex 3.100000e+001 0.000000e+000 -3.500000e+001
         vertex 3.291342e+001 0.000000e+000 -3.461940e+001
      endloop
   endfacet
   facet normal -8.314699e-001 0.000000e+000 5.555699e-001
      outer loop
         vertex 3.453553e+001 0.000000e+000 -3.353553e+001
         vertex 3.561940e+001 0.000000e+000 -3.191342e+001
         vertex 3.561940e+001 2.000000e+001 -3.191342e+001
      endloop
   endfacet
   facet normal -9.807852e-001 0.000000e+000 1.950910e-001
      outer loop
         vertex 3.600000e+001 0.000000e+000 -3.000000e+001
         vertex 3.600000e+001 2.000000e+001 -3.000000e+001
         vertex 3.561940e+001 0.000000e+000 -3.191342e+001
      endloop
   endfacet
   facet normal -5.555699e-001 0.000000e+000 8.314699e-001
      outer loop
         vertex 3.453553e+001 2.000000e+001 -3.353553e+001
         vertex 3.291342e+001 2.000000e+001 -3.461940e+001
         vertex 3.291342e+001 0.000000e+000 -3.461940e+001
      endloop
   endfacet
   facet normal -1.950910e-001 0.000000e+000 9.807852e-001
      outer loop
         vertex 3.100000e+001 2.000000e+001 -3.500000e+001
         vertex 3.291342e+001 0.000000e+000 -3.461940e+001
         vertex 3.291342e+001 2.000000e+001 -3.461940e+001
      endloop
   endfacet
   facet normal -9.807852e-001 0.000000e+000 1.950910e-001
      outer loop
         vertex 3.561940e+001 0.000000e+000 -3.191342e+001
         vertex 3.600000e+001 2.000000e+001 -3.000000e+001
         vertex 3.561940e+001 2.000000e+001 -3.191342e+001
      endloop
   endfacet
   facet normal -5.555699e-001 0.000000e+000 8.314699e-001
      outer loop
         vertex 3.291342e+001 0.000000e+000 -3.461940e+001
         vertex 3.453553e+001 0.000000e+000 -3.353553e+001
         vertex 3.453553e+001 2.000000e+001 -3.353553e+001
      endloop
   endfacet
   facet normal -8.314699e-001 0.000000e+000 5.555699e-001
      outer loop
         vertex 3.453553e+001 0.000000e+000 -3.353553e+001
         vertex 3.561940e+001 2.000000e+001 -3.191342e+001
         vertex 3.453553e+001 2.000000e+001 -3.353553e+001
      endloop
   endfacet
   facet normal 0.000000e+000 0.000000e+000 1.000000e+000
      outer loop
         vertex -3.100000e+001 2.000000e+001 -3.500000e+001
         vertex -3.100000e+001 0.000000e+000 -3.500000e+001
         vertex 3.100000e+001 0.000000e+000 -3.500000e+001
      endloop
   endfacet
   facet normal -0.000000e+000 0.000000e+000 1.000000e+000
      outer loop
         vertex 3.100000e+001 2.000000e+001 -3.500000e+001
         vertex -3.100000e+001 2.000000e+001 -3.500000e+001
         vertex 3.100000e+001 0.000000e+000 -3.500000e+001
      endloop
   endfacet
   facet normal 9.807852e-001 -0.000000e+000 1.950910e-001
      outer loop
         vertex -3.600000e+001 2.000000e+001 -3.000000e+001
         vertex -3.600000e+001 0.000000e+000 -3.000000e+001
         vertex -3.561940e+001 0.000000e+000 -3.191342e+001
      endloop
   endfacet
   facet normal 5.555699e-001 -0.000000e+000 8.314699e-001
      outer loop
         vertex -3.453553e+001 0.000000e+000 -3.353553e+001
         vertex -3.291342e+001 0.000000e+000 -3.461940e+001
         vertex -3.291342e+001 2.000000e+001 -3.461940e+001
      endloop
   endfacet
   facet normal 1.950910e-001 0.000000e+000 9.807852e-001
      outer loop
         vertex -3.100000e+001 0.000000e+000 -3.500000e+001
         vertex -3.100000e+001 2.000000e+001 -3.500000e+001
         vertex -3.291342e+001 0.000000e+000 -3.461940e+001
      endloop
   endfacet
   facet normal 8.314699e-001 0.000000e+000 5.555699e-001
      outer loop
         vertex -3.453553e+001 2.000000e+001 -3.353553e+001
         vertex -3.561940e+001 2.000000e+001 -3.191342e+001
         vertex -3.561940e+001 0.000000e+000 -3.191342e+001
      endloop
   endfacet
   facet normal 9.807852e-001 -0.000000e+000 1.950910e-001
      outer loop
         vertex -3.600000e+001 2.000000e+001 -3.000000e+001
         vertex -3.561940e+001 0.000000e+000 -3.191342e+001
         vertex -3.561940e+001 2.000000e+001 -3.191342e+001
      endloop
   endfacet
   facet normal 1.950910e-001 0.000000e+000 9.807852e-001
      outer loop
         vertex -3.291342e+001 0.000000e+000 -3.461940e+001
         vertex -3.100000e+001 2.000000e+001 -3.500000e+001
         vertex -3.291342e+001 2.000000e+001 -3.461940e+001
      endloop
   endfacet
   facet normal 8.314699e-001 -0.000000e+000 5.555699e-001
      outer loop
         vertex -3.561940e+001 0.000000e+000 -3.191342e+001
         vertex -3.453553e+001 0.000000e+000 -3.353553e+001
         vertex -3.453553e+001 2.000000e+001 -3.353553e+001
      endloop
   endfacet
   facet normal 5.555699e-001 0.000000e+000 8.314699e-001
      outer loop
         vertex -3.453553e+001 0.000000e+000 -3.353553e+001
         vertex -3.291342e+001 2.000000e+001 -3.461940e+001
         vertex -3.453553e+001 2.000000e+001 -3.353553e+001
      endloop
   endfacet
   facet normal 0.000000e+000 0.000000e+000 1.000000e+000
      outer loop
         vertex -5.000000e+001 0.000000e+000 3.000000e+000
         vertex -3.600000e+001 0.000000e+000 3.000000e+000
         vertex -4.800000e+001 8.000000e+000 3.000000e+000
      endloop
   endfacet
   facet normal -0.000000e+000 0.000000e+000 1.000000e+000
      outer loop
         vertex -3.600000e+001 2.000000e+001 3.000000e+000
         vertex -5.000000e+001 2.000000e+001 3.000000e+000
         vertex -4.800000e+001 1.200000e+001 3.000000e+000
      endloop
   endfacet
   facet normal -0.000000e+000 0.000000e+000 1.000000e+000
      outer loop
         vertex -5.281733e+001 1.959493e+001 3.000000e+000
         vertex -5.540641e+001 1.841253e+001 3.000000e+000
         vertex -5.200000e+001 1.200000e+001 3.000000e+000
      endloop
   endfacet
   facet normal -0.000000e+000 0.000000e+000 1.000000e+000
      outer loop
         vertex -5.755750e+001 1.654861e+001 3.000000e+000
         vertex -5.909632e+001 1.415415e+001 3.000000e+000
         vertex -5.200000e+001 1.200000e+001 3.000000e+000
      endloop
   endfacet
   facet normal 0.000000e+000 0.000000e+000 1.000000e+000
      outer loop
         vertex -5.989822e+001 1.142315e+001 3.000000e+000
         vertex -5.989822e+001 8.576852e+000 3.000000e+000
         vertex -5.200000e+001 1.000000e+001 3.000000e+000
      endloop
   endfacet
   facet normal 0.000000e+000 -0.000000e+000 1.000000e+000
      outer loop
         vertex -5.909632e+001 5.845850e+000 3.000000e+000
         vertex -5.755750e+001 3.451393e+000 3.000000e+000
         vertex -5.200000e+001 8.000000e+000 3.000000e+000
      endloop
   endfacet
   facet normal 0.000000e+000 -0.000000e+000 1.000000e+000
      outer loop
         vertex -5.540641e+001 1.587465e+000 3.000000e+000
         vertex -5.281733e+001 4.050703e-001 3.000000e+000
         vertex -5.200000e+001 8.000000e+000 3.000000e+000
      endloop
   endfacet
   facet normal 0.000000e+000 -0.000000e+000 1.000000e+000
      outer loop
         vertex -4.838197e+001 1.117557e+001 3.000000e+000
         vertex -4.800000e+001 1.000000e+001 3.000000e+000
         vertex -4.800000e+001 1.200000e+001 3.000000e+000
      endloop
   endfacet
   facet normal -0.000000e+000 0.000000e+000 1.000000e+000
      outer loop
         vertex -4.838197e+001 8.824430e+000 3.000000e+000
         vertex -4.938197e+001 8.097887e+000 3.000000e+000
         vertex -4.800000e+001 8.000000e+000 3.000000e+000
      endloop
   endfacet
   facet normal 0.000000e+000 0.000000e+000 1.000000e+000
      outer loop
         vertex -5.061803e+001 8.097887e+000 3.000000e+000
         vertex -5.161803e+001 8.824430e+000 3.000000e+000
         vertex -5.200000e+001 8.000000e+000 3.000000e+000
      endloop
   endfacet
   facet normal 0.000000e+000 0.000000e+000 1.000000e+000
      outer loop
         vertex -5.200000e+001 1.000000e+001 3.000000e+000
         vertex -5.161803e+001 1.117557e+001 3.000000e+000
         vertex -5.200000e+001 1.200000e+001 3.000000e+000
      endloop
   endfacet
   facet normal 0.000000e+000 -0.000000e+000 1.000000e+000
      outer loop
         vertex -5.061803e+001 1.190211e+001 3.000000e+000
         vertex -4.938197e+001 1.190211e+001 3.000000e+000
         vertex -4.800000e+001 1.200000e+001 3.000000e+000
      endloop
   endfacet
   facet normal -0.000000e+000 0.000000e+000 1.000000e+000
      outer loop
         vertex -4.800000e+001 8.000000e+000 3.000000e+000
         vertex -5.200000e+001 8.000000e+000 3.000000e+000
         vertex -5.000000e+001 0.000000e+000 3.000000e+000
      endloop
   endfacet
   facet normal -0.000000e+000 0.000000e+000 1.000000e+000
      outer loop
         vertex -4.800000e+001 1.200000e+001 3.000000e+000
         vertex -5.200000e+001 1.200000e+001 3.000000e+000
         vertex -5.061803e+001 1.190211e+001 3.000000e+000
      endloop
   endfacet
   facet normal 0.000000e+000 0.000000e+000 1.000000e+000
      outer loop
         vertex -4.800000e+001 8.000000e+000 3.000000e+000
         vertex -3.600000e+001 0.000000e+000 3.000000e+000
         vertex -4.800000e+001 1.000000e+001 3.000000e+000
      endloop
   endfacet
   facet normal 0.000000e+000 0.000000e+000 1.000000e+000
      outer loop
         vertex -4.800000e+001 1.200000e+001 3.000000e+000
         vertex -5.000000e+001 2.000000e+001 3.000000e+000
         vertex -5.200000e+001 1.200000e+001 3.000000e+000
      endloop
   endfacet
   facet normal 0.000000e+000 0.000000e+000 1.000000e+000
      outer loop
         vertex -5.755750e+001 1.654861e+001 3.000000e+000
         vertex -5.200000e+001 1.200000e+001 3.000000e+000
         vertex -5.540641e+001 1.841253e+001 3.000000e+000
      endloop
   endfacet
   facet normal 0.000000e+000 0.000000e+000 1.000000e+000
      outer loop
         vertex -5.909632e+001 5.845850e+000 3.000000e+000
         vertex -5.200000e+001 8.000000e+000 3.000000e+000
         vertex -5.989822e+001 8.576852e+000 3.000000e+000
      endloop
   endfacet
   facet normal -0.000000e+000 0.000000e+000 1.000000e+000
      outer loop
         vertex -5.200000e+001 8.000000e+000 3.000000e+000
         vertex -5.281733e+001 4.050703e-001 3.000000e+000
         vertex -5.000000e+001 0.000000e+000 3.000000e+000
      endloop
   endfacet
   facet normal 0.000000e+000 -0.000000e+000 1.000000e+000
      outer loop
         vertex -4.838197e+001 8.824430e+000 3.000000e+000
         vertex -4.800000e+001 8.000000e+000 3.000000e+000
         vertex -4.800000e+001 1.000000e+001 3.000000e+000
      endloop
   endfacet
   facet normal 0.000000e+000 0.000000e+000 1.000000e+000
      outer loop
         vertex -5.200000e+001 8.000000e+000 3.000000e+000
         vertex -5.161803e+001 8.824430e+000 3.000000e+000
         vertex -5.200000e+001 1.000000e+001 3.000000e+000
      endloop
   endfacet
   facet normal -0.000000e+000 0.000000e+000 1.000000e+000
      outer loop
         vertex -4.800000e+001 1.200000e+001 3.000000e+000
         vertex -4.938197e+001 1.190211e+001 3.000000e+000
         vertex -4.838197e+001 1.117557e+001 3.000000e+000
      endloop
   endfacet
   facet normal 0.000000e+000 -0.000000e+000 1.000000e+000
      outer loop
         vertex -5.989822e+001 8.576852e+000 3.000000e+000
         vertex -5.200000e+001 8.000000e+000 3.000000e+000
         vertex -5.200000e+001 1.000000e+001 3.000000e+000
      endloop
   endfacet
   facet normal 0.000000e+000 0.000000e+000 1.000000e+000
      outer loop
         vertex -3.600000e+001 0.000000e+000 3.000000e+000
         vertex -3.600000e+001 2.000000e+001 3.000000e+000
         vertex -4.800000e+001 1.000000e+001 3.000000e+000
      endloop
   endfacet
   facet normal 0.000000e+000 0.000000e+000 1.000000e+000
      outer loop
         vertex -5.909632e+001 1.415415e+001 3.000000e+000
         vertex -5.989822e+001 1.142315e+001 3.000000e+000
         vertex -5.200000e+001 1.200000e+001 3.000000e+000
      endloop
   endfacet
   facet normal -0.000000e+000 0.000000e+000 1.000000e+000
      outer loop
         vertex -4.938197e+001 8.097887e+000 3.000000e+000
         vertex -5.061803e+001 8.097887e+000 3.000000e+000
         vertex -4.800000e+001 8.000000e+000 3.000000e+000
      endloop
   endfacet
   facet normal 0.000000e+000 0.000000e+000 1.000000e+000
      outer loop
         vertex -5.200000e+001 8.000000e+000 3.000000e+000
         vertex -4.800000e+001 8.000000e+000 3.000000e+000
         vertex -5.061803e+001 8.097887e+000 3.000000e+000
      endloop
   endfacet
   facet normal 0.000000e+000 -0.000000e+000 1.000000e+000
      outer loop
         vertex -5.281733e+001 1.959493e+001 3.000000e+000
         vertex -5.200000e+001 1.200000e+001 3.000000e+000
         vertex -5.000000e+001 2.000000e+001 3.000000e+000
      endloop
   endfacet
   facet normal 0.000000e+000 0.000000e+000 1.000000e+000
      outer loop
         vertex -5.540641e+001 1.587465e+000 3.000000e+000
         vertex -5.200000e+001 8.000000e+000 3.000000e+000
         vertex -5.755750e+001 3.451393e+000 3.000000e+000
      endloop
   endfacet
   facet normal 0.000000e+000 0.000000e+000 1.000000e+000
      outer loop
         vertex -5.061803e+001 1.190211e+001 3.000000e+000
         vertex -5.200000e+001 1.200000e+001 3.000000e+000
         vertex -5.161803e+001 1.117557e+001 3.000000e+000
      endloop
   endfacet
   facet normal -0.000000e+000 0.000000e+000 1.000000e+000
      outer loop
         vertex -3.600000e+001 2.000000e+001 3.000000e+000
         vertex -4.800000e+001 1.200000e+001 3.000000e+000
         vertex -4.800000e+001 1.000000e+001 3.000000e+000
      endloop
   endfacet
   facet normal 0.000000e+000 0.000000e+000 1.000000e+000
      outer loop
         vertex -5.200000e+001 1.000000e+001 3.000000e+000
         vertex -5.200000e+001 1.200000e+001 3.000000e+000
         vertex -5.989822e+001 1.142315e+001 3.000000e+000
      endloop
   endfacet
   facet normal -1.423145e-001 9.898215e-001 0.000000e+000
      outer loop
         vertex -5.000000e+001 2.000000e+001 3.000000e+000
         vertex -5.000000e+001 2.000000e+001 0.000000e+000
         vertex -5.281733e+001 1.959493e+001 0.000000e+000
      endloop
   endfacet
   facet normal -6.548605e-001 7.557498e-001 0.000000e+000
      outer loop
         vertex -5.540641e+001 1.841253e+001 0.000000e+000
         vertex -5.755750e+001 1.654861e+001 0.000000e+000
         vertex -5.755750e+001 1.654861e+001 3.000000e+000
      endloop
   endfacet
   facet normal -9.594929e-001 2.817328e-001 0.000000e+000
      outer loop
         vertex -5.909632e+001 1.415415e+001 0.000000e+000
         vertex -5.989822e+001 1.142315e+001 0.000000e+000
         vertex -5.989822e+001 1.142315e+001 3.000000e+000
      endloop
   endfacet
   facet normal -9.594929e-001 -2.817328e-001 0.000000e+000
      outer loop
         vertex -5.989822e+001 8.576852e+000 0.000000e+000
         vertex -5.909632e+001 5.845850e+000 0.000000e+000
         vertex -5.909632e+001 5.845850e+000 3.000000e+000
      endloop
   endfacet
   facet normal -6.548605e-001 -7.557498e-001 0.000000e+000
      outer loop
         vertex -5.755750e+001 3.451393e+000 0.000000e+000
         vertex -5.540641e+001 1.587465e+000 0.000000e+000
         vertex -5.540641e+001 1.587465e+000 3.000000e+000
      endloop
   endfacet
   facet normal -1.423148e-001 -9.898214e-001 0.000000e+000
      outer loop
         vertex -5.281733e+001 4.050703e-001 0.000000e+000
         vertex -5.000000e+001 0.000000e+000 0.000000e+000
         vertex -5.000000e+001 0.000000e+000 3.000000e+000
      endloop
   endfacet
   facet normal -4.154153e-001 -9.096319e-001 -0.000000e+000
      outer loop
         vertex -5.281733e+001 4.050703e-001 3.000000e+000
         vertex -5.540641e+001 1.587465e+000 3.000000e+000
         vertex -5.540641e+001 1.587465e+000 0.000000e+000
      endloop
   endfacet
   facet normal -8.412533e-001 -5.406412e-001 -0.000000e+000
      outer loop
         vertex -5.755750e+001 3.451393e+000 3.000000e+000
         vertex -5.909632e+001 5.845850e+000 3.000000e+000
         vertex -5.909632e+001 5.845850e+000 0.000000e+000
      endloop
   endfacet
   facet normal -1.000000e+000 -0.000000e+000 -0.000000e+000
      outer loop
         vertex -5.989822e+001 8.576852e+000 3.000000e+000
         vertex -5.989822e+001 1.142315e+001 3.000000e+000
         vertex -5.989822e+001 1.142315e+001 0.000000e+000
      endloop
   endfacet
   facet normal -8.412532e-001 5.406413e-001 0.000000e+000
      outer loop
         vertex -5.909632e+001 1.415415e+001 3.000000e+000
         vertex -5.755750e+001 1.654861e+001 3.000000e+000
         vertex -5.755750e+001 1.654861e+001 0.000000e+000
      endloop
   endfacet
   facet normal -4.154157e-001 9.096317e-001 0.000000e+000
      outer loop
         vertex -5.540641e+001 1.841253e+001 3.000000e+000
         vertex -5.281733e+001 1.959493e+001 3.000000e+000
         vertex -5.281733e+001 1.959493e+001 0.000000e+000
      endloop
   endfacet
   facet normal -1.423145e-001 9.898215e-001 0.000000e+000
      outer loop
         vertex -5.000000e+001 2.000000e+001 3.000000e+000
         vertex -5.281733e+001 1.959493e+001 0.000000e+000
         vertex -5.281733e+001 1.959493e+001 3.000000e+000
      endloop
   endfacet
   facet normal -9.594929e-001 -2.817328e-001 0.000000e+000
      outer loop
         vertex -5.989822e+001 8.576852e+000 0.000000e+000
         vertex -5.909632e+001 5.845850e+000 3.000000e+000
         vertex -5.989822e+001 8.576852e+000 3.000000e+000
      endloop
   endfacet
   facet normal -4.154153e-001 -9.096319e-001 0.000000e+000
      outer loop
         vertex -5.281733e+001 4.050703e-001 3.000000e+000
         vertex -5.540641e+001 1.587465e+000 0.000000e+000
         vertex -5.281733e+001 4.050703e-001 0.000000e+000
      endloop
   endfacet
   facet normal -8.412532e-001 5.406413e-001 0.000000e+000
      outer loop
         vertex -5.909632e+001 1.415415e+001 3.000000e+000
         vertex -5.755750e+001 1.654861e+001 0.000000e+000
         vertex -5.909632e+001 1.415415e+001 0.000000e+000
      endloop
   endfacet
   facet normal -1.423148e-001 -9.898214e-001 0.000000e+000
      outer loop
         vertex -5.281733e+001 4.050703e-001 3.000000e+000
         vertex -5.281733e+001 4.050703e-001 0.000000e+000
         vertex -5.000000e+001 0.000000e+000 3.000000e+000
      endloop
   endfacet
   facet normal -4.154157e-001 9.096317e-001 0.000000e+000
      outer loop
         vertex -5.281733e+001 1.959493e+001 0.000000e+000
         vertex -5.540641e+001 1.841253e+001 0.000000e+000
         vertex -5.540641e+001 1.841253e+001 3.000000e+000
      endloop
   endfacet
   facet normal -8.412533e-001 -5.406412e-001 0.000000e+000
      outer loop
         vertex -5.909632e+001 5.845850e+000 0.000000e+000
         vertex -5.755750e+001 3.451393e+000 0.000000e+000
         vertex -5.755750e+001 3.451393e+000 3.000000e+000
      endloop
   endfacet
   facet normal -9.594929e-001 2.817328e-001 0.000000e+000
      outer loop
         vertex -5.989822e+001 1.142315e+001 3.000000e+000
         vertex -5.909632e+001 1.415415e+001 3.000000e+000
         vertex -5.909632e+001 1.415415e+001 0.000000e+000
      endloop
   endfacet
   facet normal -6.548605e-001 7.557498e-001 0.000000e+000
      outer loop
         vertex -5.540641e+001 1.841253e+001 0.000000e+000
         vertex -5.755750e+001 1.654861e+001 3.000000e+000
         vertex -5.540641e+001 1.841253e+001 3.000000e+000
      endloop
   endfacet
   facet normal -1.000000e+000 0.000000e+000 0.000000e+000
      outer loop
         vertex -5.989822e+001 8.576852e+000 0.000000e+000
         vertex -5.989822e+001 8.576852e+000 3.000000e+000
         vertex -5.989822e+001 1.142315e+001 0.000000e+000
      endloop
   endfacet
   facet normal -6.548605e-001 -7.557498e-001 -0.000000e+000
      outer loop
         vertex -5.540641e+001 1.587465e+000 3.000000e+000
         vertex -5.755750e+001 3.451393e+000 3.000000e+000
         vertex -5.755750e+001 3.451393e+000 0.000000e+000
      endloop
   endfacet
   facet normal -9.510566e-001 -3.090167e-001 0.000000e+000
      outer loop
         vertex 5.161803e+001 1.117557e+001 0.000000e+000
         vertex 5.200000e+001 1.000000e+001 0.000000e+000
         vertex 5.200000e+001 1.000000e+001 3.000000e+000
      endloop
   endfacet
   facet normal 0.000000e+000 -1.000000e+000 0.000000e+000
      outer loop
         vertex 4.938197e+001 1.190211e+001 3.000000e+000
         vertex 4.938197e+001 1.190211e+001 0.000000e+000
         vertex 5.061803e+001 1.190211e+001 0.000000e+000
      endloop
   endfacet
   facet normal 9.510566e-001 -3.090167e-001 0.000000e+000
      outer loop
         vertex 4.800000e+001 1.000000e+001 3.000000e+000
         vertex 4.800000e+001 1.000000e+001 0.000000e+000
         vertex 4.838197e+001 1.117557e+001 0.000000e+000
      endloop
   endfacet
   facet normal 5.877852e-001 8.090170e-001 -0.000000e+000
      outer loop
         vertex 4.938197e+001 8.097887e+000 3.000000e+000
         vertex 4.938197e+001 8.097887e+000 0.000000e+000
         vertex 4.838197e+001 8.824430e+000 0.000000e+000
      endloop
   endfacet
   facet normal -5.877852e-001 8.090170e-001 0.000000e+000
      outer loop
         vertex 5.161803e+001 8.824430e+000 3.000000e+000
         vertex 5.161803e+001 8.824430e+000 0.000000e+000
         vertex 5.061803e+001 8.097887e+000 0.000000e+000
      endloop
   endfacet
   facet normal -9.510566e-001 3.090167e-001 0.000000e+000
      outer loop
         vertex 5.161803e+001 8.824430e+000 0.000000e+000
         vertex 5.200000e+001 1.000000e+001 3.000000e+000
         vertex 5.200000e+001 1.000000e+001 0.000000e+000
      endloop
   endfacet
   facet normal -0.000000e+000 1.000000e+000 0.000000e+000
      outer loop
         vertex 4.938197e+001 8.097887e+000 0.000000e+000
         vertex 4.938197e+001 8.097887e+000 3.000000e+000
         vertex 5.061803e+001 8.097887e+000 3.000000e+000
      endloop
   endfacet
   facet normal 9.510566e-001 3.090167e-001 0.000000e+000
      outer loop
         vertex 4.800000e+001 1.000000e+001 0.000000e+000
         vertex 4.800000e+001 1.000000e+001 3.000000e+000
         vertex 4.838197e+001 8.824430e+000 3.000000e+000
      endloop
   endfacet
   facet normal 5.877852e-001 -8.090170e-001 0.000000e+000
      outer loop
         vertex 4.938197e+001 1.190211e+001 0.000000e+000
         vertex 4.938197e+001 1.190211e+001 3.000000e+000
         vertex 4.838197e+001 1.117557e+001 3.000000e+000
      endloop
   endfacet
   facet normal -5.877852e-001 -8.090170e-001 -0.000000e+000
      outer loop
         vertex 5.161803e+001 1.117557e+001 0.000000e+000
         vertex 5.161803e+001 1.117557e+001 3.000000e+000
         vertex 5.061803e+001 1.190211e+001 3.000000e+000
      endloop
   endfacet
   facet normal -9.510566e-001 -3.090167e-001 0.000000e+000
      outer loop
         vertex 5.161803e+001 1.117557e+001 3.000000e+000
         vertex 5.161803e+001 1.117557e+001 0.000000e+000
         vertex 5.200000e+001 1.000000e+001 3.000000e+000
      endloop
   endfacet
   facet normal 5.877852e-001 8.090170e-001 0.000000e+000
      outer loop
         vertex 4.838197e+001 8.824430e+000 3.000000e+000
         vertex 4.938197e+001 8.097887e+000 3.000000e+000
         vertex 4.838197e+001 8.824430e+000 0.000000e+000
      endloop
   endfacet
   facet normal -9.510566e-001 3.090167e-001 0.000000e+000
      outer loop
         vertex 5.161803e+001 8.824430e+000 3.000000e+000
         vertex 5.200000e+001 1.000000e+001 3.000000e+000
         vertex 5.161803e+001 8.824430e+000 0.000000e+000
      endloop
   endfacet
   facet normal -5.877852e-001 -8.090170e-001 0.000000e+000
      outer loop
         vertex 5.061803e+001 1.190211e+001 0.000000e+000
         vertex 5.161803e+001 1.117557e+001 0.000000e+000
         vertex 5.061803e+001 1.190211e+001 3.000000e+000
      endloop
   endfacet
   facet normal 5.877852e-001 -8.090170e-001 0.000000e+000
      outer loop
         vertex 4.838197e+001 1.117557e+001 3.000000e+000
         vertex 4.838197e+001 1.117557e+001 0.000000e+000
         vertex 4.938197e+001 1.190211e+001 0.000000e+000
      endloop
   endfacet
   facet normal 0.000000e+000 1.000000e+000 -0.000000e+000
      outer loop
         vertex 5.061803e+001 8.097887e+000 3.000000e+000
         vertex 5.061803e+001 8.097887e+000 0.000000e+000
         vertex 4.938197e+001 8.097887e+000 0.000000e+000
      endloop
   endfacet
   facet normal 9.510566e-001 -3.090167e-001 0.000000e+000
      outer loop
         vertex 4.838197e+001 1.117557e+001 0.000000e+000
         vertex 4.838197e+001 1.117557e+001 3.000000e+000
         vertex 4.800000e+001 1.000000e+001 3.000000e+000
      endloop
   endfacet
   facet normal 0.000000e+000 -1.000000e+000 0.000000e+000
      outer loop
         vertex 5.061803e+001 1.190211e+001 3.000000e+000
         vertex 4.938197e+001 1.190211e+001 3.000000e+000
         vertex 5.061803e+001 1.190211e+001 0.000000e+000
      endloop
   endfacet
   facet normal 9.510566e-001 3.090167e-001 0.000000e+000
      outer loop
         vertex 4.800000e+001 1.000000e+001 0.000000e+000
         vertex 4.838197e+001 8.824430e+000 3.000000e+000
         vertex 4.838197e+001 8.824430e+000 0.000000e+000
      endloop
   endfacet
   facet normal -5.877852e-001 8.090170e-001 0.000000e+000
      outer loop
         vertex 5.061803e+001 8.097887e+000 0.000000e+000
         vertex 5.061803e+001 8.097887e+000 3.000000e+000
         vertex 5.161803e+001 8.824430e+000 3.000000e+000
      endloop
   endfacet
   facet normal -9.510566e-001 -3.090167e-001 0.000000e+000
      outer loop
         vertex -4.838197e+001 1.117557e+001 0.000000e+000
         vertex -4.800000e+001 1.000000e+001 0.000000e+000
         vertex -4.800000e+001 1.000000e+001 3.000000e+000
      endloop
   endfacet
   facet normal 0.000000e+000 -1.000000e+000 0.000000e+000
      outer loop
         vertex -5.061803e+001 1.190211e+001 3.000000e+000
         vertex -5.061803e+001 1.190211e+001 0.000000e+000
         vertex -4.938197e+001 1.190211e+001 0.000000e+000
      endloop
   endfacet
   facet normal 9.510566e-001 -3.090167e-001 0.000000e+000
      outer loop
         vertex -5.200000e+001 1.000000e+001 3.000000e+000
         vertex -5.200000e+001 1.000000e+001 0.000000e+000
         vertex -5.161803e+001 1.117557e+001 0.000000e+000
      endloop
   endfacet
   facet normal 5.877852e-001 8.090170e-001 -0.000000e+000
      outer loop
         vertex -5.061803e+001 8.097887e+000 3.000000e+000
         vertex -5.061803e+001 8.097887e+000 0.000000e+000
         vertex -5.161803e+001 8.824430e+000 0.000000e+000
      endloop
   endfacet
   facet normal -5.877852e-001 8.090170e-001 0.000000e+000
      outer loop
         vertex -4.838197e+001 8.824430e+000 3.000000e+000
         vertex -4.838197e+001 8.824430e+000 0.000000e+000
         vertex -4.938197e+001 8.097887e+000 0.000000e+000
      endloop
   endfacet
   facet normal -9.510566e-001 3.090167e-001 0.000000e+000
      outer loop
         vertex -4.838197e+001 8.824430e+000 0.000000e+000
         vertex -4.800000e+001 1.000000e+001 3.000000e+000
         vertex -4.800000e+001 1.000000e+001 0.000000e+000
      endloop
   endfacet
   facet normal -0.000000e+000 1.000000e+000 0.000000e+000
      outer loop
         vertex -5.061803e+001 8.097887e+000 0.000000e+000
         vertex -5.061803e+001 8.097887e+000 3.000000e+000
         vertex -4.938197e+001 8.097887e+000 3.000000e+000
      endloop
   endfacet
   facet normal 9.510566e-001 3.090167e-001 0.000000e+000
      outer loop
         vertex -5.200000e+001 1.000000e+001 0.000000e+000
         vertex -5.200000e+001 1.000000e+001 3.000000e+000
         vertex -5.161803e+001 8.824430e+000 3.000000e+000
      endloop
   endfacet
   facet normal 5.877852e-001 -8.090170e-001 0.000000e+000
      outer loop
         vertex -5.061803e+001 1.190211e+001 0.000000e+000
         vertex -5.061803e+001 1.190211e+001 3.000000e+000
         vertex -5.161803e+001 1.117557e+001 3.000000e+000
      endloop
   endfacet
   facet normal -5.877852e-001 -8.090170e-001 -0.000000e+000
      outer loop
         vertex -4.838197e+001 1.117557e+001 0.000000e+000
         vertex -4.838197e+001 1.117557e+001 3.000000e+000
         vertex -4.938197e+001 1.190211e+001 3.000000e+000
      endloop
   endfacet
   facet normal -9.510566e-001 -3.090167e-001 0.000000e+000
      outer loop
         vertex -4.838197e+001 1.117557e+001 3.000000e+000
         vertex -4.838197e+001 1.117557e+001 0.000000e+000
         vertex -4.800000e+001 1.000000e+001 3.000000e+000
      endloop
   endfacet
   facet normal 5.877852e-001 8.090170e-001 0.000000e+000
      outer loop
         vertex -5.161803e+001 8.824430e+000 3.000000e+000
         vertex -5.061803e+001 8.097887e+000 3.000000e+000
         vertex -5.161803e+001 8.824430e+000 0.000000e+000
      endloop
   endfacet
   facet normal -9.510566e-001 3.090167e-001 0.000000e+000
      outer loop
         vertex -4.838197e+001 8.824430e+000 3.000000e+000
         vertex -4.800000e+001 1.000000e+001 3.000000e+000
         vertex -4.838197e+001 8.824430e+000 0.000000e+000
      endloop
   endfacet
   facet normal -5.877852e-001 -8.090170e-001 0.000000e+000
      outer loop
         vertex -4.938197e+001 1.190211e+001 0.000000e+000
         vertex -4.838197e+001 1.117557e+001 0.000000e+000
         vertex -4.938197e+001 1.190211e+001 3.000000e+000
      endloop
   endfacet
   facet normal 5.877852e-001 -8.090170e-001 0.000000e+000
      outer loop
         vertex -5.161803e+001 1.117557e+001 3.000000e+000
         vertex -5.161803e+001 1.117557e+001 0.000000e+000
         vertex -5.061803e+001 1.190211e+001 0.000000e+000
      endloop
   endfacet
   facet normal 0.000000e+000 1.000000e+000 -0.000000e+000
      outer loop
         vertex -4.938197e+001 8.097887e+000 3.000000e+000
         vertex -4.938197e+001 8.097887e+000 0.000000e+000
         vertex -5.061803e+001 8.097887e+000 0.000000e+000
      endloop
   endfacet
   facet normal 9.510566e-001 -3.090167e-001 0.000000e+000
      outer loop
         vertex -5.161803e+001 1.117557e+001 0.000000e+000
         vertex -5.161803e+001 1.117557e+001 3.000000e+000
         vertex -5.200000e+001 1.000000e+001 3.000000e+000
      endloop
   endfacet
   facet normal 0.000000e+000 -1.000000e+000 0.000000e+000
      outer loop
         vertex -4.938197e+001 1.190211e+001 3.000000e+000
         vertex -5.061803e+001 1.190211e+001 3.000000e+000
         vertex -4.938197e+001 1.190211e+001 0.000000e+000
      endloop
   endfacet
   facet normal 9.510566e-001 3.090167e-001 0.000000e+000
      outer loop
         vertex -5.200000e+001 1.000000e+001 0.000000e+000
         vertex -5.161803e+001 8.824430e+000 3.000000e+000
         vertex -5.161803e+001 8.824430e+000 0.000000e+000
      endloop
   endfacet
   facet normal -5.877852e-001 8.090170e-001 0.000000e+000
      outer loop
         vertex -4.938197e+001 8.097887e+000 0.000000e+000
         vertex -4.938197e+001 8.097887e+000 3.000000e+000
         vertex -4.838197e+001 8.824430e+000 3.000000e+000
      endloop
   endfacet
endsolid
