solid 
   facet normal -9.510566e-001 -3.090168e-001 0.000000e+000
      outer loop
         vertex 1.618034e+000 2.317557e+001 -3.000000e+000
         vertex 2.000000e+000 2.200000e+001 -3.000000e+000
         vertex 2.000000e+000 2.200000e+001 -1.000000e+000
      endloop
   endfacet
   facet normal 0.000000e+000 -1.000000e+000 0.000000e+000
      outer loop
         vertex -6.180340e-001 2.390211e+001 -1.000000e+000
         vertex -6.180340e-001 2.390211e+001 -3.000000e+000
         vertex 6.180340e-001 2.390211e+001 -3.000000e+000
      endloop
   endfacet
   facet normal 9.510566e-001 -3.090168e-001 0.000000e+000
      outer loop
         vertex -2.000000e+000 2.200000e+001 -1.000000e+000
         vertex -2.000000e+000 2.200000e+001 -3.000000e+000
         vertex -1.618034e+000 2.317557e+001 -3.000000e+000
      endloop
   endfacet
   facet normal 5.877847e-001 8.090174e-001 -0.000000e+000
      outer loop
         vertex -6.180340e-001 2.009789e+001 -1.000000e+000
         vertex -6.180340e-001 2.009789e+001 -3.000000e+000
         vertex -1.618034e+000 2.082443e+001 -3.000000e+000
      endloop
   endfacet
   facet normal -5.877847e-001 8.090174e-001 0.000000e+000
      outer loop
         vertex 1.618034e+000 2.082443e+001 -1.000000e+000
         vertex 1.618034e+000 2.082443e+001 -3.000000e+000
         vertex 6.180340e-001 2.009789e+001 -3.000000e+000
      endloop
   endfacet
   facet normal -9.510566e-001 3.090168e-001 0.000000e+000
      outer loop
         vertex 1.618034e+000 2.082443e+001 -3.000000e+000
         vertex 2.000000e+000 2.200000e+001 -1.000000e+000
         vertex 2.000000e+000 2.200000e+001 -3.000000e+000
      endloop
   endfacet
   facet normal -0.000000e+000 1.000000e+000 0.000000e+000
      outer loop
         vertex -6.180340e-001 2.009789e+001 -3.000000e+000
         vertex -6.180340e-001 2.009789e+001 -1.000000e+000
         vertex 6.180340e-001 2.009789e+001 -1.000000e+000
      endloop
   endfacet
   facet normal 9.510566e-001 3.090168e-001 0.000000e+000
      outer loop
         vertex -2.000000e+000 2.200000e+001 -3.000000e+000
         vertex -2.000000e+000 2.200000e+001 -1.000000e+000
         vertex -1.618034e+000 2.082443e+001 -1.000000e+000
      endloop
   endfacet
   facet normal 5.877847e-001 -8.090174e-001 0.000000e+000
      outer loop
         vertex -6.180340e-001 2.390211e+001 -3.000000e+000
         vertex -6.180340e-001 2.390211e+001 -1.000000e+000
         vertex -1.618034e+000 2.317557e+001 -1.000000e+000
      endloop
   endfacet
   facet normal -5.877847e-001 -8.090174e-001 -0.000000e+000
      outer loop
         vertex 1.618034e+000 2.317557e+001 -3.000000e+000
         vertex 1.618034e+000 2.317557e+001 -1.000000e+000
         vertex 6.180340e-001 2.390211e+001 -1.000000e+000
      endloop
   endfacet
   facet normal -9.510566e-001 -3.090168e-001 0.000000e+000
      outer loop
         vertex 1.618034e+000 2.317557e+001 -1.000000e+000
         vertex 1.618034e+000 2.317557e+001 -3.000000e+000
         vertex 2.000000e+000 2.200000e+001 -1.000000e+000
      endloop
   endfacet
   facet normal 5.877847e-001 8.090174e-001 0.000000e+000
      outer loop
         vertex -1.618034e+000 2.082443e+001 -1.000000e+000
         vertex -6.180340e-001 2.009789e+001 -1.000000e+000
         vertex -1.618034e+000 2.082443e+001 -3.000000e+000
      endloop
   endfacet
   facet normal -9.510566e-001 3.090168e-001 0.000000e+000
      outer loop
         vertex 1.618034e+000 2.082443e+001 -1.000000e+000
         vertex 2.000000e+000 2.200000e+001 -1.000000e+000
         vertex 1.618034e+000 2.082443e+001 -3.000000e+000
      endloop
   endfacet
   facet normal -5.877847e-001 -8.090174e-001 0.000000e+000
      outer loop
         vertex 6.180340e-001 2.390211e+001 -3.000000e+000
         vertex 1.618034e+000 2.317557e+001 -3.000000e+000
         vertex 6.180340e-001 2.390211e+001 -1.000000e+000
      endloop
   endfacet
   facet normal 5.877847e-001 -8.090174e-001 0.000000e+000
      outer loop
         vertex -1.618034e+000 2.317557e+001 -1.000000e+000
         vertex -1.618034e+000 2.317557e+001 -3.000000e+000
         vertex -6.180340e-001 2.390211e+001 -3.000000e+000
      endloop
   endfacet
   facet normal 0.000000e+000 1.000000e+000 -0.000000e+000
      outer loop
         vertex 6.180340e-001 2.009789e+001 -1.000000e+000
         vertex 6.180340e-001 2.009789e+001 -3.000000e+000
         vertex -6.180340e-001 2.009789e+001 -3.000000e+000
      endloop
   endfacet
   facet normal 9.510566e-001 -3.090168e-001 0.000000e+000
      outer loop
         vertex -1.618034e+000 2.317557e+001 -3.000000e+000
         vertex -1.618034e+000 2.317557e+001 -1.000000e+000
         vertex -2.000000e+000 2.200000e+001 -1.000000e+000
      endloop
   endfacet
   facet normal 0.000000e+000 -1.000000e+000 0.000000e+000
      outer loop
         vertex 6.180340e-001 2.390211e+001 -1.000000e+000
         vertex -6.180340e-001 2.390211e+001 -1.000000e+000
         vertex 6.180340e-001 2.390211e+001 -3.000000e+000
      endloop
   endfacet
   facet normal 9.510566e-001 3.090168e-001 0.000000e+000
      outer loop
         vertex -2.000000e+000 2.200000e+001 -3.000000e+000
         vertex -1.618034e+000 2.082443e+001 -1.000000e+000
         vertex -1.618034e+000 2.082443e+001 -3.000000e+000
      endloop
   endfacet
   facet normal -5.877847e-001 8.090174e-001 0.000000e+000
      outer loop
         vertex 6.180340e-001 2.009789e+001 -3.000000e+000
         vertex 6.180340e-001 2.009789e+001 -1.000000e+000
         vertex 1.618034e+000 2.082443e+001 -1.000000e+000
      endloop
   endfacet
   facet normal -9.510565e-001 -3.090170e-001 -3.784367e-017
      outer loop
         vertex 1.618034e+000 1.175570e+000 -3.000000e+000
         vertex 2.000000e+000 0.000000e+000 -3.000000e+000
         vertex 2.000000e+000 -2.449294e-016 -1.000000e+000
      endloop
   endfacet
   facet normal 0.000000e+000 -1.000000e+000 0.000000e+000
      outer loop
         vertex -6.180340e-001 1.902113e+000 -1.000000e+000
         vertex -6.180340e-001 1.902113e+000 -3.000000e+000
         vertex 6.180340e-001 1.902113e+000 -3.000000e+000
      endloop
   endfacet
   facet normal 9.510565e-001 -3.090170e-001 0.000000e+000
      outer loop
         vertex -2.000000e+000 2.449294e-016 -1.000000e+000
         vertex -2.000000e+000 2.449294e-016 -3.000000e+000
         vertex -1.618034e+000 1.175570e+000 -3.000000e+000
      endloop
   endfacet
   facet normal 5.877853e-001 8.090170e-001 -0.000000e+000
      outer loop
         vertex -6.180340e-001 -1.902113e+000 -1.000000e+000
         vertex -6.180340e-001 -1.902113e+000 -3.000000e+000
         vertex -1.618034e+000 -1.175570e+000 -3.000000e+000
      endloop
   endfacet
   facet normal -5.877853e-001 8.090170e-001 0.000000e+000
      outer loop
         vertex 1.618034e+000 -1.175570e+000 -1.000000e+000
         vertex 1.618034e+000 -1.175570e+000 -3.000000e+000
         vertex 6.180340e-001 -1.902113e+000 -3.000000e+000
      endloop
   endfacet
   facet normal -9.510565e-001 3.090170e-001 3.784367e-017
      outer loop
         vertex 1.618034e+000 -1.175570e+000 -3.000000e+000
         vertex 2.000000e+000 -2.449294e-016 -1.000000e+000
         vertex 2.000000e+000 0.000000e+000 -3.000000e+000
      endloop
   endfacet
   facet normal -0.000000e+000 1.000000e+000 0.000000e+000
      outer loop
         vertex -6.180340e-001 -1.902113e+000 -3.000000e+000
         vertex -6.180340e-001 -1.902113e+000 -1.000000e+000
         vertex 6.180340e-001 -1.902113e+000 -1.000000e+000
      endloop
   endfacet
   facet normal 9.510565e-001 3.090170e-001 0.000000e+000
      outer loop
         vertex -2.000000e+000 2.449294e-016 -3.000000e+000
         vertex -2.000000e+000 2.449294e-016 -1.000000e+000
         vertex -1.618034e+000 -1.175570e+000 -1.000000e+000
      endloop
   endfacet
   facet normal 5.877853e-001 -8.090170e-001 0.000000e+000
      outer loop
         vertex -6.180340e-001 1.902113e+000 -3.000000e+000
         vertex -6.180340e-001 1.902113e+000 -1.000000e+000
         vertex -1.618034e+000 1.175570e+000 -1.000000e+000
      endloop
   endfacet
   facet normal -5.877853e-001 -8.090170e-001 -0.000000e+000
      outer loop
         vertex 1.618034e+000 1.175570e+000 -3.000000e+000
         vertex 1.618034e+000 1.175570e+000 -1.000000e+000
         vertex 6.180340e-001 1.902113e+000 -1.000000e+000
      endloop
   endfacet
   facet normal -9.510565e-001 -3.090170e-001 0.000000e+000
      outer loop
         vertex 1.618034e+000 1.175570e+000 -1.000000e+000
         vertex 1.618034e+000 1.175570e+000 -3.000000e+000
         vertex 2.000000e+000 -2.449294e-016 -1.000000e+000
      endloop
   endfacet
   facet normal 5.877853e-001 8.090170e-001 0.000000e+000
      outer loop
         vertex -1.618034e+000 -1.175570e+000 -1.000000e+000
         vertex -6.180340e-001 -1.902113e+000 -1.000000e+000
         vertex -1.618034e+000 -1.175570e+000 -3.000000e+000
      endloop
   endfacet
   facet normal -9.510565e-001 3.090170e-001 0.000000e+000
      outer loop
         vertex 1.618034e+000 -1.175570e+000 -1.000000e+000
         vertex 2.000000e+000 -2.449294e-016 -1.000000e+000
         vertex 1.618034e+000 -1.175570e+000 -3.000000e+000
      endloop
   endfacet
   facet normal -5.877853e-001 -8.090170e-001 0.000000e+000
      outer loop
         vertex 6.180340e-001 1.902113e+000 -3.000000e+000
         vertex 1.618034e+000 1.175570e+000 -3.000000e+000
         vertex 6.180340e-001 1.902113e+000 -1.000000e+000
      endloop
   endfacet
   facet normal 5.877853e-001 -8.090170e-001 0.000000e+000
      outer loop
         vertex -1.618034e+000 1.175570e+000 -1.000000e+000
         vertex -1.618034e+000 1.175570e+000 -3.000000e+000
         vertex -6.180340e-001 1.902113e+000 -3.000000e+000
      endloop
   endfacet
   facet normal 0.000000e+000 1.000000e+000 -0.000000e+000
      outer loop
         vertex 6.180340e-001 -1.902113e+000 -1.000000e+000
         vertex 6.180340e-001 -1.902113e+000 -3.000000e+000
         vertex -6.180340e-001 -1.902113e+000 -3.000000e+000
      endloop
   endfacet
   facet normal 9.510565e-001 -3.090170e-001 0.000000e+000
      outer loop
         vertex -1.618034e+000 1.175570e+000 -3.000000e+000
         vertex -1.618034e+000 1.175570e+000 -1.000000e+000
         vertex -2.000000e+000 2.449294e-016 -1.000000e+000
      endloop
   endfacet
   facet normal 0.000000e+000 -1.000000e+000 0.000000e+000
      outer loop
         vertex 6.180340e-001 1.902113e+000 -1.000000e+000
         vertex -6.180340e-001 1.902113e+000 -1.000000e+000
         vertex 6.180340e-001 1.902113e+000 -3.000000e+000
      endloop
   endfacet
   facet normal 9.510565e-001 3.090170e-001 0.000000e+000
      outer loop
         vertex -2.000000e+000 2.449294e-016 -3.000000e+000
         vertex -1.618034e+000 -1.175570e+000 -1.000000e+000
         vertex -1.618034e+000 -1.175570e+000 -3.000000e+000
      endloop
   endfacet
   facet normal -5.877853e-001 8.090170e-001 0.000000e+000
      outer loop
         vertex 6.180340e-001 -1.902113e+000 -3.000000e+000
         vertex 6.180340e-001 -1.902113e+000 -1.000000e+000
         vertex 1.618034e+000 -1.175570e+000 -1.000000e+000
      endloop
   endfacet
   facet normal 0.000000e+000 0.000000e+000 1.000000e+000
      outer loop
         vertex 9.000000e+000 -5.000000e+000 0.000000e+000
         vertex 9.000000e+000 2.700000e+001 0.000000e+000
         vertex 4.110955e+000 1.830315e+000 0.000000e+000
      endloop
   endfacet
   facet normal 0.000000e+000 0.000000e+000 1.000000e+000
      outer loop
         vertex -7.000000e+000 2.700000e+001 0.000000e+000
         vertex -7.000000e+000 -5.000000e+000 0.000000e+000
         vertex -4.401664e+000 9.356026e-001 0.000000e+000
      endloop
   endfacet
   facet normal 0.000000e+000 -0.000000e+000 1.000000e+000
      outer loop
         vertex 4.110955e+000 2.383031e+001 0.000000e+000
         vertex 4.500000e+000 2.200000e+001 0.000000e+000
         vertex 9.000000e+000 2.700000e+001 0.000000e+000
      endloop
   endfacet
   facet normal -0.000000e+000 0.000000e+000 1.000000e+000
      outer loop
         vertex 4.110955e+000 2.016969e+001 0.000000e+000
         vertex 3.011088e+000 1.865585e+001 0.000000e+000
         vertex 4.110955e+000 1.830315e+000 0.000000e+000
      endloop
   endfacet
   facet normal -0.000000e+000 0.000000e+000 1.000000e+000
      outer loop
         vertex 1.390576e+000 1.772025e+001 0.000000e+000
         vertex -4.703781e-001 1.752465e+001 0.000000e+000
         vertex -4.703781e-001 4.475348e+000 0.000000e+000
      endloop
   endfacet
   facet normal 0.000000e+000 0.000000e+000 1.000000e+000
      outer loop
         vertex -2.250000e+000 1.810289e+001 0.000000e+000
         vertex -3.640576e+000 1.935497e+001 0.000000e+000
         vertex -2.250000e+000 3.897114e+000 0.000000e+000
      endloop
   endfacet
   facet normal 0.000000e+000 0.000000e+000 1.000000e+000
      outer loop
         vertex -4.401664e+000 2.106440e+001 0.000000e+000
         vertex -4.401664e+000 2.293560e+001 0.000000e+000
         vertex -7.000000e+000 2.700000e+001 0.000000e+000
      endloop
   endfacet
   facet normal 0.000000e+000 0.000000e+000 1.000000e+000
      outer loop
         vertex -3.640576e+000 2.464503e+001 0.000000e+000
         vertex -2.250000e+000 2.589711e+001 0.000000e+000
         vertex -7.000000e+000 2.700000e+001 0.000000e+000
      endloop
   endfacet
   facet normal 0.000000e+000 -0.000000e+000 1.000000e+000
      outer loop
         vertex -4.703781e-001 2.647535e+001 0.000000e+000
         vertex 1.390576e+000 2.627975e+001 0.000000e+000
         vertex 9.000000e+000 2.700000e+001 0.000000e+000
      endloop
   endfacet
   facet normal 0.000000e+000 -0.000000e+000 1.000000e+000
      outer loop
         vertex 3.011088e+000 2.534415e+001 0.000000e+000
         vertex 4.110955e+000 2.383031e+001 0.000000e+000
         vertex 9.000000e+000 2.700000e+001 0.000000e+000
      endloop
   endfacet
   facet normal -0.000000e+000 0.000000e+000 1.000000e+000
      outer loop
         vertex 4.500000e+000 0.000000e+000 0.000000e+000
         vertex 4.110955e+000 -1.830315e+000 0.000000e+000
         vertex 9.000000e+000 -5.000000e+000 0.000000e+000
      endloop
   endfacet
   facet normal -0.000000e+000 0.000000e+000 1.000000e+000
      outer loop
         vertex 3.011088e+000 -3.344152e+000 0.000000e+000
         vertex 1.390576e+000 -4.279754e+000 0.000000e+000
         vertex 9.000000e+000 -5.000000e+000 0.000000e+000
      endloop
   endfacet
   facet normal 0.000000e+000 0.000000e+000 1.000000e+000
      outer loop
         vertex -4.703781e-001 -4.475348e+000 0.000000e+000
         vertex -2.250000e+000 -3.897114e+000 0.000000e+000
         vertex -7.000000e+000 -5.000000e+000 0.000000e+000
      endloop
   endfacet
   facet normal 0.000000e+000 0.000000e+000 1.000000e+000
      outer loop
         vertex -3.640576e+000 -2.645034e+000 0.000000e+000
         vertex -4.401664e+000 -9.356026e-001 0.000000e+000
         vertex -7.000000e+000 -5.000000e+000 0.000000e+000
      endloop
   endfacet
   facet normal 0.000000e+000 -0.000000e+000 1.000000e+000
      outer loop
         vertex -4.401664e+000 9.356026e-001 0.000000e+000
         vertex -3.640576e+000 2.645034e+000 0.000000e+000
         vertex -3.640576e+000 1.935497e+001 0.000000e+000
      endloop
   endfacet
   facet normal 0.000000e+000 -0.000000e+000 1.000000e+000
      outer loop
         vertex -2.250000e+000 3.897114e+000 0.000000e+000
         vertex -4.703781e-001 4.475348e+000 0.000000e+000
         vertex -4.703781e-001 1.752465e+001 0.000000e+000
      endloop
   endfacet
   facet normal 0.000000e+000 -0.000000e+000 1.000000e+000
      outer loop
         vertex 1.390576e+000 4.279754e+000 0.000000e+000
         vertex 3.011088e+000 3.344152e+000 0.000000e+000
         vertex 3.011088e+000 1.865585e+001 0.000000e+000
      endloop
   endfacet
   facet normal 0.000000e+000 0.000000e+000 1.000000e+000
      outer loop
         vertex 9.000000e+000 -5.000000e+000 0.000000e+000
         vertex 4.110955e+000 1.830315e+000 0.000000e+000
         vertex 4.500000e+000 0.000000e+000 0.000000e+000
      endloop
   endfacet
   facet normal 0.000000e+000 0.000000e+000 1.000000e+000
      outer loop
         vertex -4.401664e+000 9.356026e-001 0.000000e+000
         vertex -7.000000e+000 -5.000000e+000 0.000000e+000
         vertex -4.401664e+000 -9.356026e-001 0.000000e+000
      endloop
   endfacet
   facet normal 0.000000e+000 0.000000e+000 1.000000e+000
      outer loop
         vertex 4.110955e+000 1.830315e+000 0.000000e+000
         vertex 3.011088e+000 1.865585e+001 0.000000e+000
         vertex 3.011088e+000 3.344152e+000 0.000000e+000
      endloop
   endfacet
   facet normal 0.000000e+000 0.000000e+000 1.000000e+000
      outer loop
         vertex -2.250000e+000 3.897114e+000 0.000000e+000
         vertex -3.640576e+000 1.935497e+001 0.000000e+000
         vertex -3.640576e+000 2.645034e+000 0.000000e+000
      endloop
   endfacet
   facet normal 0.000000e+000 0.000000e+000 1.000000e+000
      outer loop
         vertex -3.640576e+000 2.464503e+001 0.000000e+000
         vertex -7.000000e+000 2.700000e+001 0.000000e+000
         vertex -4.401664e+000 2.293560e+001 0.000000e+000
      endloop
   endfacet
   facet normal 0.000000e+000 0.000000e+000 1.000000e+000
      outer loop
         vertex 3.011088e+000 2.534415e+001 0.000000e+000
         vertex 9.000000e+000 2.700000e+001 0.000000e+000
         vertex 1.390576e+000 2.627975e+001 0.000000e+000
      endloop
   endfacet
   facet normal 0.000000e+000 0.000000e+000 1.000000e+000
      outer loop
         vertex -4.703781e-001 -4.475348e+000 0.000000e+000
         vertex -7.000000e+000 -5.000000e+000 0.000000e+000
         vertex 9.000000e+000 -5.000000e+000 0.000000e+000
      endloop
   endfacet
   facet normal 0.000000e+000 0.000000e+000 1.000000e+000
      outer loop
         vertex -4.401664e+000 9.356026e-001 0.000000e+000
         vertex -3.640576e+000 1.935497e+001 0.000000e+000
         vertex -4.401664e+000 2.106440e+001 0.000000e+000
      endloop
   endfacet
   facet normal 0.000000e+000 0.000000e+000 1.000000e+000
      outer loop
         vertex -4.703781e-001 -4.475348e+000 0.000000e+000
         vertex 9.000000e+000 -5.000000e+000 0.000000e+000
         vertex 1.390576e+000 -4.279754e+000 0.000000e+000
      endloop
   endfacet
   facet normal -0.000000e+000 0.000000e+000 1.000000e+000
      outer loop
         vertex 9.000000e+000 2.700000e+001 0.000000e+000
         vertex -7.000000e+000 2.700000e+001 0.000000e+000
         vertex -4.703781e-001 2.647535e+001 0.000000e+000
      endloop
   endfacet
   facet normal -0.000000e+000 0.000000e+000 1.000000e+000
      outer loop
         vertex 3.011088e+000 1.865585e+001 0.000000e+000
         vertex 1.390576e+000 1.772025e+001 0.000000e+000
         vertex 1.390576e+000 4.279754e+000 0.000000e+000
      endloop
   endfacet
   facet normal 0.000000e+000 0.000000e+000 1.000000e+000
      outer loop
         vertex -2.250000e+000 2.589711e+001 0.000000e+000
         vertex -4.703781e-001 2.647535e+001 0.000000e+000
         vertex -7.000000e+000 2.700000e+001 0.000000e+000
      endloop
   endfacet
   facet normal 0.000000e+000 0.000000e+000 1.000000e+000
      outer loop
         vertex -2.250000e+000 -3.897114e+000 0.000000e+000
         vertex -3.640576e+000 -2.645034e+000 0.000000e+000
         vertex -7.000000e+000 -5.000000e+000 0.000000e+000
      endloop
   endfacet
   facet normal 0.000000e+000 0.000000e+000 1.000000e+000
      outer loop
         vertex 4.110955e+000 1.830315e+000 0.000000e+000
         vertex 9.000000e+000 2.700000e+001 0.000000e+000
         vertex 4.110955e+000 2.016969e+001 0.000000e+000
      endloop
   endfacet
   facet normal -0.000000e+000 0.000000e+000 1.000000e+000
      outer loop
         vertex 9.000000e+000 2.700000e+001 0.000000e+000
         vertex 4.500000e+000 2.200000e+001 0.000000e+000
         vertex 4.110955e+000 2.016969e+001 0.000000e+000
      endloop
   endfacet
   facet normal 0.000000e+000 0.000000e+000 1.000000e+000
      outer loop
         vertex -4.401664e+000 2.106440e+001 0.000000e+000
         vertex -7.000000e+000 2.700000e+001 0.000000e+000
         vertex -4.401664e+000 9.356026e-001 0.000000e+000
      endloop
   endfacet
   facet normal 0.000000e+000 0.000000e+000 1.000000e+000
      outer loop
         vertex -2.250000e+000 3.897114e+000 0.000000e+000
         vertex -4.703781e-001 1.752465e+001 0.000000e+000
         vertex -2.250000e+000 1.810289e+001 0.000000e+000
      endloop
   endfacet
   facet normal -0.000000e+000 0.000000e+000 1.000000e+000
      outer loop
         vertex 4.110955e+000 -1.830315e+000 0.000000e+000
         vertex 3.011088e+000 -3.344152e+000 0.000000e+000
         vertex 9.000000e+000 -5.000000e+000 0.000000e+000
      endloop
   endfacet
   facet normal -0.000000e+000 0.000000e+000 1.000000e+000
      outer loop
         vertex 1.390576e+000 1.772025e+001 0.000000e+000
         vertex -4.703781e-001 4.475348e+000 0.000000e+000
         vertex 1.390576e+000 4.279754e+000 0.000000e+000
      endloop
   endfacet
   facet normal 0.000000e+000 0.000000e+000 1.000000e+000
      outer loop
         vertex 4.110955e+000 -1.830315e+000 -1.000000e+000
         vertex 4.500000e+000 0.000000e+000 -1.000000e+000
         vertex 2.000000e+000 -2.449294e-016 -1.000000e+000
      endloop
   endfacet
   facet normal 0.000000e+000 0.000000e+000 1.000000e+000
      outer loop
         vertex 4.110955e+000 1.830315e+000 -1.000000e+000
         vertex 3.011088e+000 3.344152e+000 -1.000000e+000
         vertex 1.618034e+000 1.175570e+000 -1.000000e+000
      endloop
   endfacet
   facet normal 0.000000e+000 0.000000e+000 1.000000e+000
      outer loop
         vertex 1.390576e+000 4.279754e+000 -1.000000e+000
         vertex -4.703781e-001 4.475348e+000 -1.000000e+000
         vertex 6.180340e-001 1.902113e+000 -1.000000e+000
      endloop
   endfacet
   facet normal -0.000000e+000 0.000000e+000 1.000000e+000
      outer loop
         vertex -2.250000e+000 3.897114e+000 -1.000000e+000
         vertex -3.640576e+000 2.645034e+000 -1.000000e+000
         vertex -1.618034e+000 1.175570e+000 -1.000000e+000
      endloop
   endfacet
   facet normal 0.000000e+000 0.000000e+000 1.000000e+000
      outer loop
         vertex -4.401664e+000 9.356026e-001 -1.000000e+000
         vertex -4.401664e+000 -9.356026e-001 -1.000000e+000
         vertex -2.000000e+000 2.449294e-016 -1.000000e+000
      endloop
   endfacet
   facet normal 0.000000e+000 -0.000000e+000 1.000000e+000
      outer loop
         vertex -3.640576e+000 -2.645034e+000 -1.000000e+000
         vertex -2.250000e+000 -3.897114e+000 -1.000000e+000
         vertex -1.618034e+000 -1.175570e+000 -1.000000e+000
      endloop
   endfacet
   facet normal 0.000000e+000 0.000000e+000 1.000000e+000
      outer loop
         vertex -4.703781e-001 -4.475348e+000 -1.000000e+000
         vertex 1.390576e+000 -4.279754e+000 -1.000000e+000
         vertex 6.180340e-001 -1.902113e+000 -1.000000e+000
      endloop
   endfacet
   facet normal 0.000000e+000 0.000000e+000 1.000000e+000
      outer loop
         vertex 3.011088e+000 -3.344152e+000 -1.000000e+000
         vertex 4.110955e+000 -1.830315e+000 -1.000000e+000
         vertex 1.618034e+000 -1.175570e+000 -1.000000e+000
      endloop
   endfacet
   facet normal -0.000000e+000 0.000000e+000 1.000000e+000
      outer loop
         vertex 2.000000e+000 -2.449294e-016 -1.000000e+000
         vertex 1.618034e+000 -1.175570e+000 -1.000000e+000
         vertex 4.110955e+000 -1.830315e+000 -1.000000e+000
      endloop
   endfacet
   facet normal -0.000000e+000 0.000000e+000 1.000000e+000
      outer loop
         vertex 6.180340e-001 -1.902113e+000 -1.000000e+000
         vertex -6.180340e-001 -1.902113e+000 -1.000000e+000
         vertex -4.703781e-001 -4.475348e+000 -1.000000e+000
      endloop
   endfacet
   facet normal 0.000000e+000 0.000000e+000 1.000000e+000
      outer loop
         vertex -1.618034e+000 -1.175570e+000 -1.000000e+000
         vertex -2.000000e+000 2.449294e-016 -1.000000e+000
         vertex -4.401664e+000 -9.356026e-001 -1.000000e+000
      endloop
   endfacet
   facet normal 0.000000e+000 0.000000e+000 1.000000e+000
      outer loop
         vertex -1.618034e+000 1.175570e+000 -1.000000e+000
         vertex -6.180340e-001 1.902113e+000 -1.000000e+000
         vertex -2.250000e+000 3.897114e+000 -1.000000e+000
      endloop
   endfacet
   facet normal 0.000000e+000 -0.000000e+000 1.000000e+000
      outer loop
         vertex 6.180340e-001 1.902113e+000 -1.000000e+000
         vertex 1.618034e+000 1.175570e+000 -1.000000e+000
         vertex 3.011088e+000 3.344152e+000 -1.000000e+000
      endloop
   endfacet
   facet normal -0.000000e+000 0.000000e+000 1.000000e+000
      outer loop
         vertex 4.110955e+000 1.830315e+000 -1.000000e+000
         vertex 1.618034e+000 1.175570e+000 -1.000000e+000
         vertex 2.000000e+000 -2.449294e-016 -1.000000e+000
      endloop
   endfacet
   facet normal 0.000000e+000 0.000000e+000 1.000000e+000
      outer loop
         vertex -1.618034e+000 1.175570e+000 -1.000000e+000
         vertex -3.640576e+000 2.645034e+000 -1.000000e+000
         vertex -4.401664e+000 9.356026e-001 -1.000000e+000
      endloop
   endfacet
   facet normal 0.000000e+000 0.000000e+000 1.000000e+000
      outer loop
         vertex -1.618034e+000 -1.175570e+000 -1.000000e+000
         vertex -2.250000e+000 -3.897114e+000 -1.000000e+000
         vertex -6.180340e-001 -1.902113e+000 -1.000000e+000
      endloop
   endfacet
   facet normal 0.000000e+000 0.000000e+000 1.000000e+000
      outer loop
         vertex -4.703781e-001 -4.475348e+000 -1.000000e+000
         vertex -6.180340e-001 -1.902113e+000 -1.000000e+000
         vertex -2.250000e+000 -3.897114e+000 -1.000000e+000
      endloop
   endfacet
   facet normal 0.000000e+000 0.000000e+000 1.000000e+000
      outer loop
         vertex 6.180340e-001 1.902113e+000 -1.000000e+000
         vertex 3.011088e+000 3.344152e+000 -1.000000e+000
         vertex 1.390576e+000 4.279754e+000 -1.000000e+000
      endloop
   endfacet
   facet normal 0.000000e+000 0.000000e+000 1.000000e+000
      outer loop
         vertex 4.500000e+000 0.000000e+000 -1.000000e+000
         vertex 4.110955e+000 1.830315e+000 -1.000000e+000
         vertex 2.000000e+000 -2.449294e-016 -1.000000e+000
      endloop
   endfacet
   facet normal 0.000000e+000 -0.000000e+000 1.000000e+000
      outer loop
         vertex -4.401664e+000 -9.356026e-001 -1.000000e+000
         vertex -3.640576e+000 -2.645034e+000 -1.000000e+000
         vertex -1.618034e+000 -1.175570e+000 -1.000000e+000
      endloop
   endfacet
   facet normal -0.000000e+000 0.000000e+000 1.000000e+000
      outer loop
         vertex 1.618034e+000 -1.175570e+000 -1.000000e+000
         vertex 6.180340e-001 -1.902113e+000 -1.000000e+000
         vertex 3.011088e+000 -3.344152e+000 -1.000000e+000
      endloop
   endfacet
   facet normal 0.000000e+000 0.000000e+000 1.000000e+000
      outer loop
         vertex -6.180340e-001 1.902113e+000 -1.000000e+000
         vertex 6.180340e-001 1.902113e+000 -1.000000e+000
         vertex -4.703781e-001 4.475348e+000 -1.000000e+000
      endloop
   endfacet
   facet normal 0.000000e+000 -0.000000e+000 1.000000e+000
      outer loop
         vertex 6.180340e-001 -1.902113e+000 -1.000000e+000
         vertex 1.390576e+000 -4.279754e+000 -1.000000e+000
         vertex 3.011088e+000 -3.344152e+000 -1.000000e+000
      endloop
   endfacet
   facet normal 0.000000e+000 0.000000e+000 1.000000e+000
      outer loop
         vertex -6.180340e-001 1.902113e+000 -1.000000e+000
         vertex -4.703781e-001 4.475348e+000 -1.000000e+000
         vertex -2.250000e+000 3.897114e+000 -1.000000e+000
      endloop
   endfacet
   facet normal 0.000000e+000 0.000000e+000 1.000000e+000
      outer loop
         vertex -2.000000e+000 2.449294e-016 -1.000000e+000
         vertex -1.618034e+000 1.175570e+000 -1.000000e+000
         vertex -4.401664e+000 9.356026e-001 -1.000000e+000
      endloop
   endfacet
   facet normal -9.781476e-001 -2.079116e-001 0.000000e+000
      outer loop
         vertex 4.110955e+000 1.830315e+000 -1.000000e+000
         vertex 4.500000e+000 0.000000e+000 -1.000000e+000
         vertex 4.500000e+000 0.000000e+000 0.000000e+000
      endloop
   endfacet
   facet normal -4.999999e-001 -8.660254e-001 0.000000e+000
      outer loop
         vertex 1.390576e+000 4.279754e+000 0.000000e+000
         vertex 1.390576e+000 4.279754e+000 -1.000000e+000
         vertex 3.011088e+000 3.344152e+000 -1.000000e+000
      endloop
   endfacet
   facet normal 3.090170e-001 -9.510565e-001 0.000000e+000
      outer loop
         vertex -2.250000e+000 3.897114e+000 0.000000e+000
         vertex -2.250000e+000 3.897114e+000 -1.000000e+000
         vertex -4.703781e-001 4.475348e+000 -1.000000e+000
      endloop
   endfacet
   facet normal 9.135454e-001 -4.067367e-001 0.000000e+000
      outer loop
         vertex -4.401664e+000 9.356026e-001 0.000000e+000
         vertex -4.401664e+000 9.356026e-001 -1.000000e+000
         vertex -3.640576e+000 2.645034e+000 -1.000000e+000
      endloop
   endfacet
   facet normal 9.135454e-001 4.067367e-001 -0.000000e+000
      outer loop
         vertex -3.640576e+000 -2.645034e+000 0.000000e+000
         vertex -3.640576e+000 -2.645034e+000 -1.000000e+000
         vertex -4.401664e+000 -9.356026e-001 -1.000000e+000
      endloop
   endfacet
   facet normal 3.090170e-001 9.510565e-001 -0.000000e+000
      outer loop
         vertex -4.703781e-001 -4.475348e+000 0.000000e+000
         vertex -4.703781e-001 -4.475348e+000 -1.000000e+000
         vertex -2.250000e+000 -3.897114e+000 -1.000000e+000
      endloop
   endfacet
   facet normal -4.999999e-001 8.660254e-001 0.000000e+000
      outer loop
         vertex 3.011088e+000 -3.344152e+000 0.000000e+000
         vertex 3.011088e+000 -3.344152e+000 -1.000000e+000
         vertex 1.390576e+000 -4.279754e+000 -1.000000e+000
      endloop
   endfacet
   facet normal -9.781476e-001 2.079116e-001 0.000000e+000
      outer loop
         vertex 4.500000e+000 0.000000e+000 0.000000e+000
         vertex 4.500000e+000 0.000000e+000 -1.000000e+000
         vertex 4.110955e+000 -1.830315e+000 -1.000000e+000
      endloop
   endfacet
   facet normal -8.090169e-001 5.877853e-001 0.000000e+000
      outer loop
         vertex 3.011088e+000 -3.344152e+000 -1.000000e+000
         vertex 3.011088e+000 -3.344152e+000 0.000000e+000
         vertex 4.110955e+000 -1.830315e+000 0.000000e+000
      endloop
   endfacet
   facet normal -1.045285e-001 9.945219e-001 0.000000e+000
      outer loop
         vertex -4.703781e-001 -4.475348e+000 -1.000000e+000
         vertex -4.703781e-001 -4.475348e+000 0.000000e+000
         vertex 1.390576e+000 -4.279754e+000 0.000000e+000
      endloop
   endfacet
   facet normal 6.691306e-001 7.431448e-001 0.000000e+000
      outer loop
         vertex -3.640576e+000 -2.645034e+000 -1.000000e+000
         vertex -3.640576e+000 -2.645034e+000 0.000000e+000
         vertex -2.250000e+000 -3.897114e+000 0.000000e+000
      endloop
   endfacet
   facet normal 1.000000e+000 0.000000e+000 0.000000e+000
      outer loop
         vertex -4.401664e+000 9.356026e-001 -1.000000e+000
         vertex -4.401664e+000 9.356026e-001 0.000000e+000
         vertex -4.401664e+000 -9.356026e-001 0.000000e+000
      endloop
   endfacet
   facet normal 6.691306e-001 -7.431448e-001 0.000000e+000
      outer loop
         vertex -2.250000e+000 3.897114e+000 -1.000000e+000
         vertex -2.250000e+000 3.897114e+000 0.000000e+000
         vertex -3.640576e+000 2.645034e+000 0.000000e+000
      endloop
   endfacet
   facet normal -1.045285e-001 -9.945219e-001 -0.000000e+000
      outer loop
         vertex 1.390576e+000 4.279754e+000 -1.000000e+000
         vertex 1.390576e+000 4.279754e+000 0.000000e+000
         vertex -4.703781e-001 4.475348e+000 0.000000e+000
      endloop
   endfacet
   facet normal -8.090169e-001 -5.877853e-001 -0.000000e+000
      outer loop
         vertex 4.110955e+000 1.830315e+000 -1.000000e+000
         vertex 4.110955e+000 1.830315e+000 0.000000e+000
         vertex 3.011088e+000 3.344152e+000 0.000000e+000
      endloop
   endfacet
   facet normal -9.781476e-001 -2.079116e-001 0.000000e+000
      outer loop
         vertex 4.110955e+000 1.830315e+000 0.000000e+000
         vertex 4.110955e+000 1.830315e+000 -1.000000e+000
         vertex 4.500000e+000 0.000000e+000 0.000000e+000
      endloop
   endfacet
   facet normal 9.135454e-001 -4.067367e-001 0.000000e+000
      outer loop
         vertex -3.640576e+000 2.645034e+000 0.000000e+000
         vertex -4.401664e+000 9.356026e-001 0.000000e+000
         vertex -3.640576e+000 2.645034e+000 -1.000000e+000
      endloop
   endfacet
   facet normal -4.999999e-001 8.660254e-001 0.000000e+000
      outer loop
         vertex 1.390576e+000 -4.279754e+000 0.000000e+000
         vertex 3.011088e+000 -3.344152e+000 0.000000e+000
         vertex 1.390576e+000 -4.279754e+000 -1.000000e+000
      endloop
   endfacet
   facet normal -1.045285e-001 9.945219e-001 0.000000e+000
      outer loop
         vertex 1.390576e+000 -4.279754e+000 -1.000000e+000
         vertex -4.703781e-001 -4.475348e+000 -1.000000e+000
         vertex 1.390576e+000 -4.279754e+000 0.000000e+000
      endloop
   endfacet
   facet normal 6.691306e-001 -7.431448e-001 0.000000e+000
      outer loop
         vertex -3.640576e+000 2.645034e+000 -1.000000e+000
         vertex -2.250000e+000 3.897114e+000 -1.000000e+000
         vertex -3.640576e+000 2.645034e+000 0.000000e+000
      endloop
   endfacet
   facet normal -8.090169e-001 -5.877853e-001 0.000000e+000
      outer loop
         vertex 3.011088e+000 3.344152e+000 0.000000e+000
         vertex 3.011088e+000 3.344152e+000 -1.000000e+000
         vertex 4.110955e+000 1.830315e+000 -1.000000e+000
      endloop
   endfacet
   facet normal 1.000000e+000 0.000000e+000 0.000000e+000
      outer loop
         vertex -4.401664e+000 -9.356026e-001 0.000000e+000
         vertex -4.401664e+000 -9.356026e-001 -1.000000e+000
         vertex -4.401664e+000 9.356026e-001 -1.000000e+000
      endloop
   endfacet
   facet normal -8.090169e-001 5.877853e-001 0.000000e+000
      outer loop
         vertex 4.110955e+000 -1.830315e+000 0.000000e+000
         vertex 4.110955e+000 -1.830315e+000 -1.000000e+000
         vertex 3.011088e+000 -3.344152e+000 -1.000000e+000
      endloop
   endfacet
   facet normal 3.090170e-001 9.510565e-001 0.000000e+000
      outer loop
         vertex -2.250000e+000 -3.897114e+000 -1.000000e+000
         vertex -2.250000e+000 -3.897114e+000 0.000000e+000
         vertex -4.703781e-001 -4.475348e+000 0.000000e+000
      endloop
   endfacet
   facet normal 3.090170e-001 -9.510565e-001 0.000000e+000
      outer loop
         vertex -4.703781e-001 4.475348e+000 -1.000000e+000
         vertex -4.703781e-001 4.475348e+000 0.000000e+000
         vertex -2.250000e+000 3.897114e+000 0.000000e+000
      endloop
   endfacet
   facet normal -4.999999e-001 -8.660254e-001 0.000000e+000
      outer loop
         vertex 3.011088e+000 3.344152e+000 0.000000e+000
         vertex 1.390576e+000 4.279754e+000 0.000000e+000
         vertex 3.011088e+000 3.344152e+000 -1.000000e+000
      endloop
   endfacet
   facet normal 6.691306e-001 7.431448e-001 0.000000e+000
      outer loop
         vertex -2.250000e+000 -3.897114e+000 -1.000000e+000
         vertex -3.640576e+000 -2.645034e+000 -1.000000e+000
         vertex -2.250000e+000 -3.897114e+000 0.000000e+000
      endloop
   endfacet
   facet normal -9.781476e-001 2.079116e-001 0.000000e+000
      outer loop
         vertex 4.500000e+000 0.000000e+000 0.000000e+000
         vertex 4.110955e+000 -1.830315e+000 -1.000000e+000
         vertex 4.110955e+000 -1.830315e+000 0.000000e+000
      endloop
   endfacet
   facet normal -1.045285e-001 -9.945219e-001 0.000000e+000
      outer loop
         vertex -4.703781e-001 4.475348e+000 0.000000e+000
         vertex -4.703781e-001 4.475348e+000 -1.000000e+000
         vertex 1.390576e+000 4.279754e+000 -1.000000e+000
      endloop
   endfacet
   facet normal 9.135454e-001 4.067367e-001 0.000000e+000
      outer loop
         vertex -4.401664e+000 -9.356026e-001 0.000000e+000
         vertex -3.640576e+000 -2.645034e+000 0.000000e+000
         vertex -4.401664e+000 -9.356026e-001 -1.000000e+000
      endloop
   endfacet
   facet normal 0.000000e+000 0.000000e+000 1.000000e+000
      outer loop
         vertex 4.110955e+000 2.016969e+001 -1.000000e+000
         vertex 4.500000e+000 2.200000e+001 -1.000000e+000
         vertex 2.000000e+000 2.200000e+001 -1.000000e+000
      endloop
   endfacet
   facet normal 0.000000e+000 0.000000e+000 1.000000e+000
      outer loop
         vertex 4.110955e+000 2.383031e+001 -1.000000e+000
         vertex 3.011088e+000 2.534415e+001 -1.000000e+000
         vertex 1.618034e+000 2.317557e+001 -1.000000e+000
      endloop
   endfacet
   facet normal 0.000000e+000 0.000000e+000 1.000000e+000
      outer loop
         vertex 1.390576e+000 2.627975e+001 -1.000000e+000
         vertex -4.703781e-001 2.647535e+001 -1.000000e+000
         vertex 6.180340e-001 2.390211e+001 -1.000000e+000
      endloop
   endfacet
   facet normal -0.000000e+000 0.000000e+000 1.000000e+000
      outer loop
         vertex -2.250000e+000 2.589711e+001 -1.000000e+000
         vertex -3.640576e+000 2.464503e+001 -1.000000e+000
         vertex -1.618034e+000 2.317557e+001 -1.000000e+000
      endloop
   endfacet
   facet normal 0.000000e+000 0.000000e+000 1.000000e+000
      outer loop
         vertex -4.401664e+000 2.293560e+001 -1.000000e+000
         vertex -4.401664e+000 2.106440e+001 -1.000000e+000
         vertex -2.000000e+000 2.200000e+001 -1.000000e+000
      endloop
   endfacet
   facet normal 0.000000e+000 -0.000000e+000 1.000000e+000
      outer loop
         vertex -3.640576e+000 1.935497e+001 -1.000000e+000
         vertex -2.250000e+000 1.810289e+001 -1.000000e+000
         vertex -1.618034e+000 2.082443e+001 -1.000000e+000
      endloop
   endfacet
   facet normal 0.000000e+000 0.000000e+000 1.000000e+000
      outer loop
         vertex -4.703781e-001 1.752465e+001 -1.000000e+000
         vertex 1.390576e+000 1.772025e+001 -1.000000e+000
         vertex 6.180340e-001 2.009789e+001 -1.000000e+000
      endloop
   endfacet
   facet normal 0.000000e+000 0.000000e+000 1.000000e+000
      outer loop
         vertex 3.011088e+000 1.865585e+001 -1.000000e+000
         vertex 4.110955e+000 2.016969e+001 -1.000000e+000
         vertex 1.618034e+000 2.082443e+001 -1.000000e+000
      endloop
   endfacet
   facet normal -0.000000e+000 0.000000e+000 1.000000e+000
      outer loop
         vertex 2.000000e+000 2.200000e+001 -1.000000e+000
         vertex 1.618034e+000 2.082443e+001 -1.000000e+000
         vertex 4.110955e+000 2.016969e+001 -1.000000e+000
      endloop
   endfacet
   facet normal -0.000000e+000 0.000000e+000 1.000000e+000
      outer loop
         vertex 6.180340e-001 2.009789e+001 -1.000000e+000
         vertex -6.180340e-001 2.009789e+001 -1.000000e+000
         vertex -4.703781e-001 1.752465e+001 -1.000000e+000
      endloop
   endfacet
   facet normal 0.000000e+000 0.000000e+000 1.000000e+000
      outer loop
         vertex -1.618034e+000 2.082443e+001 -1.000000e+000
         vertex -2.000000e+000 2.200000e+001 -1.000000e+000
         vertex -4.401664e+000 2.106440e+001 -1.000000e+000
      endloop
   endfacet
   facet normal 0.000000e+000 0.000000e+000 1.000000e+000
      outer loop
         vertex -1.618034e+000 2.317557e+001 -1.000000e+000
         vertex -6.180340e-001 2.390211e+001 -1.000000e+000
         vertex -2.250000e+000 2.589711e+001 -1.000000e+000
      endloop
   endfacet
   facet normal 0.000000e+000 -0.000000e+000 1.000000e+000
      outer loop
         vertex 6.180340e-001 2.390211e+001 -1.000000e+000
         vertex 1.618034e+000 2.317557e+001 -1.000000e+000
         vertex 3.011088e+000 2.534415e+001 -1.000000e+000
      endloop
   endfacet
   facet normal -0.000000e+000 0.000000e+000 1.000000e+000
      outer loop
         vertex 4.110955e+000 2.383031e+001 -1.000000e+000
         vertex 1.618034e+000 2.317557e+001 -1.000000e+000
         vertex 2.000000e+000 2.200000e+001 -1.000000e+000
      endloop
   endfacet
   facet normal 0.000000e+000 0.000000e+000 1.000000e+000
      outer loop
         vertex -1.618034e+000 2.317557e+001 -1.000000e+000
         vertex -3.640576e+000 2.464503e+001 -1.000000e+000
         vertex -4.401664e+000 2.293560e+001 -1.000000e+000
      endloop
   endfacet
   facet normal 0.000000e+000 0.000000e+000 1.000000e+000
      outer loop
         vertex -1.618034e+000 2.082443e+001 -1.000000e+000
         vertex -2.250000e+000 1.810289e+001 -1.000000e+000
         vertex -6.180340e-001 2.009789e+001 -1.000000e+000
      endloop
   endfacet
   facet normal 0.000000e+000 0.000000e+000 1.000000e+000
      outer loop
         vertex -4.703781e-001 1.752465e+001 -1.000000e+000
         vertex -6.180340e-001 2.009789e+001 -1.000000e+000
         vertex -2.250000e+000 1.810289e+001 -1.000000e+000
      endloop
   endfacet
   facet normal 0.000000e+000 0.000000e+000 1.000000e+000
      outer loop
         vertex 6.180340e-001 2.390211e+001 -1.000000e+000
         vertex 3.011088e+000 2.534415e+001 -1.000000e+000
         vertex 1.390576e+000 2.627975e+001 -1.000000e+000
      endloop
   endfacet
   facet normal 0.000000e+000 0.000000e+000 1.000000e+000
      outer loop
         vertex 4.500000e+000 2.200000e+001 -1.000000e+000
         vertex 4.110955e+000 2.383031e+001 -1.000000e+000
         vertex 2.000000e+000 2.200000e+001 -1.000000e+000
      endloop
   endfacet
   facet normal 0.000000e+000 -0.000000e+000 1.000000e+000
      outer loop
         vertex -4.401664e+000 2.106440e+001 -1.000000e+000
         vertex -3.640576e+000 1.935497e+001 -1.000000e+000
         vertex -1.618034e+000 2.082443e+001 -1.000000e+000
      endloop
   endfacet
   facet normal -0.000000e+000 0.000000e+000 1.000000e+000
      outer loop
         vertex 1.618034e+000 2.082443e+001 -1.000000e+000
         vertex 6.180340e-001 2.009789e+001 -1.000000e+000
         vertex 3.011088e+000 1.865585e+001 -1.000000e+000
      endloop
   endfacet
   facet normal 0.000000e+000 0.000000e+000 1.000000e+000
      outer loop
         vertex -6.180340e-001 2.390211e+001 -1.000000e+000
         vertex 6.180340e-001 2.390211e+001 -1.000000e+000
         vertex -4.703781e-001 2.647535e+001 -1.000000e+000
      endloop
   endfacet
   facet normal 0.000000e+000 -0.000000e+000 1.000000e+000
      outer loop
         vertex 6.180340e-001 2.009789e+001 -1.000000e+000
         vertex 1.390576e+000 1.772025e+001 -1.000000e+000
         vertex 3.011088e+000 1.865585e+001 -1.000000e+000
      endloop
   endfacet
   facet normal 0.000000e+000 0.000000e+000 1.000000e+000
      outer loop
         vertex -6.180340e-001 2.390211e+001 -1.000000e+000
         vertex -4.703781e-001 2.647535e+001 -1.000000e+000
         vertex -2.250000e+000 2.589711e+001 -1.000000e+000
      endloop
   endfacet
   facet normal 0.000000e+000 0.000000e+000 1.000000e+000
      outer loop
         vertex -2.000000e+000 2.200000e+001 -1.000000e+000
         vertex -1.618034e+000 2.317557e+001 -1.000000e+000
         vertex -4.401664e+000 2.293560e+001 -1.000000e+000
      endloop
   endfacet
   facet normal -9.781476e-001 -2.079116e-001 0.000000e+000
      outer loop
         vertex 4.110955e+000 2.383031e+001 -1.000000e+000
         vertex 4.500000e+000 2.200000e+001 -1.000000e+000
         vertex 4.500000e+000 2.200000e+001 0.000000e+000
      endloop
   endfacet
   facet normal -4.999998e-001 -8.660255e-001 0.000000e+000
      outer loop
         vertex 1.390576e+000 2.627975e+001 0.000000e+000
         vertex 1.390576e+000 2.627975e+001 -1.000000e+000
         vertex 3.011088e+000 2.534415e+001 -1.000000e+000
      endloop
   endfacet
   facet normal 3.090177e-001 -9.510563e-001 0.000000e+000
      outer loop
         vertex -2.250000e+000 2.589711e+001 0.000000e+000
         vertex -2.250000e+000 2.589711e+001 -1.000000e+000
         vertex -4.703781e-001 2.647535e+001 -1.000000e+000
      endloop
   endfacet
   facet normal 9.135454e-001 -4.067368e-001 0.000000e+000
      outer loop
         vertex -4.401664e+000 2.293560e+001 0.000000e+000
         vertex -4.401664e+000 2.293560e+001 -1.000000e+000
         vertex -3.640576e+000 2.464503e+001 -1.000000e+000
      endloop
   endfacet
   facet normal 9.135454e-001 4.067368e-001 -0.000000e+000
      outer loop
         vertex -3.640576e+000 1.935497e+001 0.000000e+000
         vertex -3.640576e+000 1.935497e+001 -1.000000e+000
         vertex -4.401664e+000 2.106440e+001 -1.000000e+000
      endloop
   endfacet
   facet normal 3.090177e-001 9.510563e-001 -0.000000e+000
      outer loop
         vertex -4.703781e-001 1.752465e+001 0.000000e+000
         vertex -4.703781e-001 1.752465e+001 -1.000000e+000
         vertex -2.250000e+000 1.810289e+001 -1.000000e+000
      endloop
   endfacet
   facet normal -4.999998e-001 8.660255e-001 0.000000e+000
      outer loop
         vertex 3.011088e+000 1.865585e+001 0.000000e+000
         vertex 3.011088e+000 1.865585e+001 -1.000000e+000
         vertex 1.390576e+000 1.772025e+001 -1.000000e+000
      endloop
   endfacet
   facet normal -9.781476e-001 2.079116e-001 0.000000e+000
      outer loop
         vertex 4.500000e+000 2.200000e+001 0.000000e+000
         vertex 4.500000e+000 2.200000e+001 -1.000000e+000
         vertex 4.110955e+000 2.016969e+001 -1.000000e+000
      endloop
   endfacet
   facet normal -8.090171e-001 5.877851e-001 0.000000e+000
      outer loop
         vertex 3.011088e+000 1.865585e+001 -1.000000e+000
         vertex 3.011088e+000 1.865585e+001 0.000000e+000
         vertex 4.110955e+000 2.016969e+001 0.000000e+000
      endloop
   endfacet
   facet normal -1.045288e-001 9.945219e-001 0.000000e+000
      outer loop
         vertex -4.703781e-001 1.752465e+001 -1.000000e+000
         vertex -4.703781e-001 1.752465e+001 0.000000e+000
         vertex 1.390576e+000 1.772025e+001 0.000000e+000
      endloop
   endfacet
   facet normal 6.691307e-001 7.431447e-001 0.000000e+000
      outer loop
         vertex -3.640576e+000 1.935497e+001 -1.000000e+000
         vertex -3.640576e+000 1.935497e+001 0.000000e+000
         vertex -2.250000e+000 1.810289e+001 0.000000e+000
      endloop
   endfacet
   facet normal 1.000000e+000 0.000000e+000 0.000000e+000
      outer loop
         vertex -4.401664e+000 2.293560e+001 -1.000000e+000
         vertex -4.401664e+000 2.293560e+001 0.000000e+000
         vertex -4.401664e+000 2.106440e+001 0.000000e+000
      endloop
   endfacet
   facet normal 6.691307e-001 -7.431447e-001 0.000000e+000
      outer loop
         vertex -2.250000e+000 2.589711e+001 -1.000000e+000
         vertex -2.250000e+000 2.589711e+001 0.000000e+000
         vertex -3.640576e+000 2.464503e+001 0.000000e+000
      endloop
   endfacet
   facet normal -1.045288e-001 -9.945219e-001 -0.000000e+000
      outer loop
         vertex 1.390576e+000 2.627975e+001 -1.000000e+000
         vertex 1.390576e+000 2.627975e+001 0.000000e+000
         vertex -4.703781e-001 2.647535e+001 0.000000e+000
      endloop
   endfacet
   facet normal -8.090171e-001 -5.877851e-001 -0.000000e+000
      outer loop
         vertex 4.110955e+000 2.383031e+001 -1.000000e+000
         vertex 4.110955e+000 2.383031e+001 0.000000e+000
         vertex 3.011088e+000 2.534415e+001 0.000000e+000
      endloop
   endfacet
   facet normal -9.781476e-001 -2.079116e-001 0.000000e+000
      outer loop
         vertex 4.110955e+000 2.383031e+001 0.000000e+000
         vertex 4.110955e+000 2.383031e+001 -1.000000e+000
         vertex 4.500000e+000 2.200000e+001 0.000000e+000
      endloop
   endfacet
   facet normal 9.135454e-001 -4.067368e-001 0.000000e+000
      outer loop
         vertex -3.640576e+000 2.464503e+001 0.000000e+000
         vertex -4.401664e+000 2.293560e+001 0.000000e+000
         vertex -3.640576e+000 2.464503e+001 -1.000000e+000
      endloop
   endfacet
   facet normal -4.999998e-001 8.660255e-001 0.000000e+000
      outer loop
         vertex 1.390576e+000 1.772025e+001 0.000000e+000
         vertex 3.011088e+000 1.865585e+001 0.000000e+000
         vertex 1.390576e+000 1.772025e+001 -1.000000e+000
      endloop
   endfacet
   facet normal -1.045288e-001 9.945219e-001 0.000000e+000
      outer loop
         vertex 1.390576e+000 1.772025e+001 -1.000000e+000
         vertex -4.703781e-001 1.752465e+001 -1.000000e+000
         vertex 1.390576e+000 1.772025e+001 0.000000e+000
      endloop
   endfacet
   facet normal 6.691307e-001 -7.431447e-001 0.000000e+000
      outer loop
         vertex -3.640576e+000 2.464503e+001 -1.000000e+000
         vertex -2.250000e+000 2.589711e+001 -1.000000e+000
         vertex -3.640576e+000 2.464503e+001 0.000000e+000
      endloop
   endfacet
   facet normal -8.090171e-001 -5.877851e-001 0.000000e+000
      outer loop
         vertex 3.011088e+000 2.534415e+001 0.000000e+000
         vertex 3.011088e+000 2.534415e+001 -1.000000e+000
         vertex 4.110955e+000 2.383031e+001 -1.000000e+000
      endloop
   endfacet
   facet normal 1.000000e+000 0.000000e+000 0.000000e+000
      outer loop
         vertex -4.401664e+000 2.106440e+001 0.000000e+000
         vertex -4.401664e+000 2.106440e+001 -1.000000e+000
         vertex -4.401664e+000 2.293560e+001 -1.000000e+000
      endloop
   endfacet
   facet normal -8.090171e-001 5.877851e-001 0.000000e+000
      outer loop
         vertex 4.110955e+000 2.016969e+001 0.000000e+000
         vertex 4.110955e+000 2.016969e+001 -1.000000e+000
         vertex 3.011088e+000 1.865585e+001 -1.000000e+000
      endloop
   endfacet
   facet normal 3.090177e-001 9.510563e-001 0.000000e+000
      outer loop
         vertex -2.250000e+000 1.810289e+001 -1.000000e+000
         vertex -2.250000e+000 1.810289e+001 0.000000e+000
         vertex -4.703781e-001 1.752465e+001 0.000000e+000
      endloop
   endfacet
   facet normal 3.090177e-001 -9.510563e-001 0.000000e+000
      outer loop
         vertex -4.703781e-001 2.647535e+001 -1.000000e+000
         vertex -4.703781e-001 2.647535e+001 0.000000e+000
         vertex -2.250000e+000 2.589711e+001 0.000000e+000
      endloop
   endfacet
   facet normal -4.999998e-001 -8.660255e-001 0.000000e+000
      outer loop
         vertex 3.011088e+000 2.534415e+001 0.000000e+000
         vertex 1.390576e+000 2.627975e+001 0.000000e+000
         vertex 3.011088e+000 2.534415e+001 -1.000000e+000
      endloop
   endfacet
   facet normal 6.691307e-001 7.431447e-001 0.000000e+000
      outer loop
         vertex -2.250000e+000 1.810289e+001 -1.000000e+000
         vertex -3.640576e+000 1.935497e+001 -1.000000e+000
         vertex -2.250000e+000 1.810289e+001 0.000000e+000
      endloop
   endfacet
   facet normal -9.781476e-001 2.079116e-001 0.000000e+000
      outer loop
         vertex 4.500000e+000 2.200000e+001 0.000000e+000
         vertex 4.110955e+000 2.016969e+001 -1.000000e+000
         vertex 4.110955e+000 2.016969e+001 0.000000e+000
      endloop
   endfacet
   facet normal -1.045288e-001 -9.945219e-001 0.000000e+000
      outer loop
         vertex -4.703781e-001 2.647535e+001 0.000000e+000
         vertex -4.703781e-001 2.647535e+001 -1.000000e+000
         vertex 1.390576e+000 2.627975e+001 -1.000000e+000
      endloop
   endfacet
   facet normal 9.135454e-001 4.067368e-001 0.000000e+000
      outer loop
         vertex -4.401664e+000 2.106440e+001 0.000000e+000
         vertex -3.640576e+000 1.935497e+001 0.000000e+000
         vertex -4.401664e+000 2.106440e+001 -1.000000e+000
      endloop
   endfacet
   facet normal 0.000000e+000 0.000000e+000 -1.000000e+000
      outer loop
         vertex 6.180340e-001 2.390211e+001 -3.000000e+000
         vertex -7.000000e+000 2.700000e+001 -3.000000e+000
         vertex 9.000000e+000 2.700000e+001 -3.000000e+000
      endloop
   endfacet
   facet normal 0.000000e+000 0.000000e+000 -1.000000e+000
      outer loop
         vertex 6.180340e-001 -1.902113e+000 -3.000000e+000
         vertex 9.000000e+000 -5.000000e+000 -3.000000e+000
         vertex -7.000000e+000 -5.000000e+000 -3.000000e+000
      endloop
   endfacet
   facet normal 0.000000e+000 0.000000e+000 -1.000000e+000
      outer loop
         vertex 9.000000e+000 2.700000e+001 -3.000000e+000
         vertex 1.618034e+000 2.082443e+001 -3.000000e+000
         vertex 2.000000e+000 2.200000e+001 -3.000000e+000
      endloop
   endfacet
   facet normal 0.000000e+000 0.000000e+000 -1.000000e+000
      outer loop
         vertex -6.180340e-001 1.902113e+000 -3.000000e+000
         vertex -6.180340e-001 2.009789e+001 -3.000000e+000
         vertex 6.180340e-001 2.009789e+001 -3.000000e+000
      endloop
   endfacet
   facet normal -0.000000e+000 -0.000000e+000 -1.000000e+000
      outer loop
         vertex -7.000000e+000 2.700000e+001 -3.000000e+000
         vertex -2.000000e+000 2.200000e+001 -3.000000e+000
         vertex -1.618034e+000 2.082443e+001 -3.000000e+000
      endloop
   endfacet
   facet normal -0.000000e+000 0.000000e+000 -1.000000e+000
      outer loop
         vertex -7.000000e+000 2.700000e+001 -3.000000e+000
         vertex -6.180340e-001 2.390211e+001 -3.000000e+000
         vertex -1.618034e+000 2.317557e+001 -3.000000e+000
      endloop
   endfacet
   facet normal 0.000000e+000 0.000000e+000 -1.000000e+000
      outer loop
         vertex 9.000000e+000 2.700000e+001 -3.000000e+000
         vertex 1.618034e+000 2.317557e+001 -3.000000e+000
         vertex 6.180340e-001 2.390211e+001 -3.000000e+000
      endloop
   endfacet
   facet normal 0.000000e+000 0.000000e+000 -1.000000e+000
      outer loop
         vertex 9.000000e+000 -5.000000e+000 -3.000000e+000
         vertex 1.618034e+000 -1.175570e+000 -3.000000e+000
         vertex 2.000000e+000 0.000000e+000 -3.000000e+000
      endloop
   endfacet
   facet normal 0.000000e+000 -0.000000e+000 -1.000000e+000
      outer loop
         vertex -7.000000e+000 -5.000000e+000 -3.000000e+000
         vertex -6.180340e-001 -1.902113e+000 -3.000000e+000
         vertex 6.180340e-001 -1.902113e+000 -3.000000e+000
      endloop
   endfacet
   facet normal 0.000000e+000 -0.000000e+000 -1.000000e+000
      outer loop
         vertex -7.000000e+000 -5.000000e+000 -3.000000e+000
         vertex -2.000000e+000 2.449294e-016 -3.000000e+000
         vertex -1.618034e+000 -1.175570e+000 -3.000000e+000
      endloop
   endfacet
   facet normal -0.000000e+000 0.000000e+000 -1.000000e+000
      outer loop
         vertex -6.180340e-001 2.009789e+001 -3.000000e+000
         vertex -6.180340e-001 1.902113e+000 -3.000000e+000
         vertex -1.618034e+000 1.175570e+000 -3.000000e+000
      endloop
   endfacet
   facet normal 0.000000e+000 0.000000e+000 -1.000000e+000
      outer loop
         vertex 1.618034e+000 2.082443e+001 -3.000000e+000
         vertex 1.618034e+000 1.175570e+000 -3.000000e+000
         vertex 6.180340e-001 1.902113e+000 -3.000000e+000
      endloop
   endfacet
   facet normal 0.000000e+000 0.000000e+000 -1.000000e+000
      outer loop
         vertex -6.180340e-001 2.390211e+001 -3.000000e+000
         vertex -7.000000e+000 2.700000e+001 -3.000000e+000
         vertex 6.180340e-001 2.390211e+001 -3.000000e+000
      endloop
   endfacet
   facet normal 0.000000e+000 0.000000e+000 -1.000000e+000
      outer loop
         vertex 1.618034e+000 1.175570e+000 -3.000000e+000
         vertex 1.618034e+000 2.082443e+001 -3.000000e+000
         vertex 9.000000e+000 2.700000e+001 -3.000000e+000
      endloop
   endfacet
   facet normal 0.000000e+000 0.000000e+000 -1.000000e+000
      outer loop
         vertex -1.618034e+000 1.175570e+000 -3.000000e+000
         vertex -7.000000e+000 2.700000e+001 -3.000000e+000
         vertex -1.618034e+000 2.082443e+001 -3.000000e+000
      endloop
   endfacet
   facet normal 0.000000e+000 0.000000e+000 -1.000000e+000
      outer loop
         vertex -2.000000e+000 2.200000e+001 -3.000000e+000
         vertex -7.000000e+000 2.700000e+001 -3.000000e+000
         vertex -1.618034e+000 2.317557e+001 -3.000000e+000
      endloop
   endfacet
   facet normal -0.000000e+000 0.000000e+000 -1.000000e+000
      outer loop
         vertex -1.618034e+000 -1.175570e+000 -3.000000e+000
         vertex -6.180340e-001 -1.902113e+000 -3.000000e+000
         vertex -7.000000e+000 -5.000000e+000 -3.000000e+000
      endloop
   endfacet
   facet normal 0.000000e+000 0.000000e+000 -1.000000e+000
      outer loop
         vertex 6.180340e-001 2.009789e+001 -3.000000e+000
         vertex 1.618034e+000 2.082443e+001 -3.000000e+000
         vertex 6.180340e-001 1.902113e+000 -3.000000e+000
      endloop
   endfacet
   facet normal 0.000000e+000 0.000000e+000 -1.000000e+000
      outer loop
         vertex -7.000000e+000 -5.000000e+000 -3.000000e+000
         vertex -7.000000e+000 2.700000e+001 -3.000000e+000
         vertex -1.618034e+000 1.175570e+000 -3.000000e+000
      endloop
   endfacet
   facet normal 0.000000e+000 -0.000000e+000 -1.000000e+000
      outer loop
         vertex 1.618034e+000 1.175570e+000 -3.000000e+000
         vertex 9.000000e+000 2.700000e+001 -3.000000e+000
         vertex 9.000000e+000 -5.000000e+000 -3.000000e+000
      endloop
   endfacet
   facet normal 0.000000e+000 0.000000e+000 -1.000000e+000
      outer loop
         vertex 9.000000e+000 2.700000e+001 -3.000000e+000
         vertex 2.000000e+000 2.200000e+001 -3.000000e+000
         vertex 1.618034e+000 2.317557e+001 -3.000000e+000
      endloop
   endfacet
   facet normal 0.000000e+000 0.000000e+000 -1.000000e+000
      outer loop
         vertex -7.000000e+000 -5.000000e+000 -3.000000e+000
         vertex -1.618034e+000 1.175570e+000 -3.000000e+000
         vertex -2.000000e+000 2.449294e-016 -3.000000e+000
      endloop
   endfacet
   facet normal 0.000000e+000 0.000000e+000 -1.000000e+000
      outer loop
         vertex 9.000000e+000 -5.000000e+000 -3.000000e+000
         vertex 2.000000e+000 0.000000e+000 -3.000000e+000
         vertex 1.618034e+000 1.175570e+000 -3.000000e+000
      endloop
   endfacet
   facet normal 0.000000e+000 0.000000e+000 -1.000000e+000
      outer loop
         vertex 6.180340e-001 1.902113e+000 -3.000000e+000
         vertex -6.180340e-001 1.902113e+000 -3.000000e+000
         vertex 6.180340e-001 2.009789e+001 -3.000000e+000
      endloop
   endfacet
   facet normal 0.000000e+000 0.000000e+000 -1.000000e+000
      outer loop
         vertex -6.180340e-001 2.009789e+001 -3.000000e+000
         vertex -1.618034e+000 1.175570e+000 -3.000000e+000
         vertex -1.618034e+000 2.082443e+001 -3.000000e+000
      endloop
   endfacet
   facet normal 0.000000e+000 0.000000e+000 -1.000000e+000
      outer loop
         vertex 9.000000e+000 -5.000000e+000 -3.000000e+000
         vertex 6.180340e-001 -1.902113e+000 -3.000000e+000
         vertex 1.618034e+000 -1.175570e+000 -3.000000e+000
      endloop
   endfacet
   facet normal 0.000000e+000 1.000000e+000 -0.000000e+000
      outer loop
         vertex 9.000000e+000 2.700000e+001 0.000000e+000
         vertex 9.000000e+000 2.700000e+001 -3.000000e+000
         vertex -7.000000e+000 2.700000e+001 -3.000000e+000
      endloop
   endfacet
   facet normal 0.000000e+000 1.000000e+000 0.000000e+000
      outer loop
         vertex -7.000000e+000 2.700000e+001 0.000000e+000
         vertex 9.000000e+000 2.700000e+001 0.000000e+000
         vertex -7.000000e+000 2.700000e+001 -3.000000e+000
      endloop
   endfacet
   facet normal -1.000000e+000 0.000000e+000 0.000000e+000
      outer loop
         vertex -7.000000e+000 2.700000e+001 0.000000e+000
         vertex -7.000000e+000 2.700000e+001 -3.000000e+000
         vertex -7.000000e+000 -5.000000e+000 -3.000000e+000
      endloop
   endfacet
   facet normal -1.000000e+000 -0.000000e+000 0.000000e+000
      outer loop
         vertex -7.000000e+000 -5.000000e+000 0.000000e+000
         vertex -7.000000e+000 2.700000e+001 0.000000e+000
         vertex -7.000000e+000 -5.000000e+000 -3.000000e+000
      endloop
   endfacet
   facet normal 0.000000e+000 -1.000000e+000 0.000000e+000
      outer loop
         vertex -7.000000e+000 -5.000000e+000 0.000000e+000
         vertex -7.000000e+000 -5.000000e+000 -3.000000e+000
         vertex 9.000000e+000 -5.000000e+000 -3.000000e+000
      endloop
   endfacet
   facet normal 0.000000e+000 -1.000000e+000 0.000000e+000
      outer loop
         vertex 9.000000e+000 -5.000000e+000 0.000000e+000
         vertex -7.000000e+000 -5.000000e+000 0.000000e+000
         vertex 9.000000e+000 -5.000000e+000 -3.000000e+000
      endloop
   endfacet
   facet normal 1.000000e+000 0.000000e+000 0.000000e+000
      outer loop
         vertex 9.000000e+000 -5.000000e+000 0.000000e+000
         vertex 9.000000e+000 -5.000000e+000 -3.000000e+000
         vertex 9.000000e+000 2.700000e+001 -3.000000e+000
      endloop
   endfacet
   facet normal 1.000000e+000 -0.000000e+000 0.000000e+000
      outer loop
         vertex 9.000000e+000 2.700000e+001 0.000000e+000
         vertex 9.000000e+000 -5.000000e+000 0.000000e+000
         vertex 9.000000e+000 2.700000e+001 -3.000000e+000
      endloop
   endfacet
endsolid
